<svg width="220" height="206" version="1.1" xmlns="http://www.w3.org/2000/svg" desc="Created with imagetracer.js version 1.2.6" ><path fill="rgb(195,219,48)" stroke="rgb(195,219,48)" stroke-width="1" opacity="1" d="M 105.5 5 L 115 5.5 L 89.5 8 L 89.5 7 Q 95 4.5 104.5 6 L 105.5 5 Z " /><path fill="rgb(195,219,48)" stroke="rgb(195,219,48)" stroke-width="1" opacity="1" d="M 117.5 6 L 127.5 6 L 134 7.5 L 128.5 8 L 127.5 7 L 117.5 7 L 117.5 6 Z " /><path fill="rgb(195,219,48)" stroke="rgb(195,219,48)" stroke-width="1" opacity="1" d="M 84.5 8 L 88 8.5 L 82 10 L 82 15.5 L 84 18.5 L 86 30.5 L 88 33.5 L 88 38.5 L 90 41.5 L 90 47.5 L 93.5 52 L 114.5 50 L 127.5 53 L 137.5 58 L 147 66.5 L 142.5 63 L 135.5 58 L 120.5 52 L 100.5 52 Q 85.8 56.3 76 65.5 L 71.5 71 L 72 69.5 Q 72.8 67.3 70.5 68 L 39.5 38 L 35 41.5 L 45.5 30 L 69.5 14 L 84.5 8 Z " /><path fill="rgb(195,219,48)" stroke="rgb(195,219,48)" stroke-width="1" opacity="1" d="M 138.5 9 L 142 10.5 L 140.5 11 L 138.5 9 Z " /><path fill="rgb(195,219,48)" stroke="rgb(195,219,48)" stroke-width="1" opacity="1" d="M 143.5 11 L 146 12.5 L 144.5 12 L 143.5 11 Z " /><path fill="rgb(195,219,48)" stroke="rgb(195,219,48)" stroke-width="1" opacity="1" d="M 147.5 13 L 152 14.5 L 150.5 15 L 147.5 14 L 147.5 13 Z " /><path fill="rgb(195,219,48)" stroke="rgb(195,219,48)" stroke-width="1" opacity="1" d="M 156.5 17 L 175 29.5 L 173.5 30 L 157.5 19 L 156.5 17 Z " /><path fill="rgb(195,219,48)" stroke="rgb(195,219,48)" stroke-width="1" opacity="1" d="M 183.5 39 L 185.5 42 L 183.5 39 Z " /><path fill="rgb(195,219,48)" stroke="rgb(195,219,48)" stroke-width="1" opacity="1" d="M 186.5 43 L 187.5 45 L 186.5 43 Z " /><path fill="rgb(195,219,48)" stroke="rgb(195,219,48)" stroke-width="1" opacity="1" d="M 33.5 44 L 32.5 46 L 33.5 44 Z " /><path fill="rgb(195,219,48)" stroke="rgb(195,219,48)" stroke-width="1" opacity="1" d="M 31.5 47 L 30.5 49 L 31.5 47 Z " /><path fill="rgb(195,219,48)" stroke="rgb(195,219,48)" stroke-width="1" opacity="1" d="M 28.5 52 L 28 53.5 L 26.5 56 L 27 54.5 L 28.5 52 Z " /><path fill="rgb(195,219,48)" stroke="rgb(195,219,48)" stroke-width="1" opacity="1" d="M 25.5 57 L 26 58.5 L 24 59.5 L 25.5 57 Z " /><path fill="rgb(195,219,48)" stroke="rgb(195,219,48)" stroke-width="1" opacity="1" d="M 23.5 61 L 24 62.5 L 22 63.5 L 23.5 61 Z " /><path fill="rgb(195,219,48)" stroke="rgb(195,219,48)" stroke-width="1" opacity="1" d="M 70.5 72 L 69 74.5 L 64.5 84 L 64 82.5 L 70.5 72 Z " /><path fill="rgb(195,219,48)" stroke="rgb(195,219,48)" stroke-width="1" opacity="1" d="M 151.5 73 L 154 76.5 L 152 75.5 L 151.5 73 Z " /><path fill="rgb(195,219,48)" stroke="rgb(195,219,48)" stroke-width="1" opacity="1" d="M 17.5 77 L 18 79.5 L 17 79.5 L 17.5 77 Z " /><path fill="rgb(195,219,48)" stroke="rgb(195,219,48)" stroke-width="1" opacity="1" d="M 63.5 85 L 64 86.5 L 62.5 89 L 62 87.5 L 63.5 85 Z " /><path fill="rgb(195,219,48)" stroke="rgb(195,219,48)" stroke-width="1" opacity="1" d="M 159.5 92 L 160 95.5 L 159 95.5 L 159.5 92 Z " /><path fill="rgb(243,209,4)" stroke="rgb(243,209,4)" stroke-width="1" opacity="1" d="M 105.5 6 L 127.5 7 L 135.5 9 L 138 8 Q 136.9 10.7 139.5 10 L 141.5 11 L 143 10.5 Q 142.3 12.8 144.5 12 L 146.5 12 L 148 12.5 L 147.5 14 L 156 16 L 157.5 19 L 161.5 21 L 163 20.5 L 162.5 22 L 173 29.5 L 171.5 32 L 166 36.5 L 164.5 39 L 157 44.5 L 155 47.5 L 144 58.5 L 142.5 62 Q 131.7 51.3 111.5 50 L 110.5 51 L 93.5 52 L 90 47.5 L 90 41.5 L 88 38.5 L 88 33.5 L 86 30.5 L 84 18.5 L 82 15.5 L 82 10 L 93.5 7 L 104.5 7 L 105.5 6 Z " /><path fill="rgb(230,90,12)" stroke="rgb(230,90,12)" stroke-width="1" opacity="1" d="M 180.5 36 L 182.5 39 L 180.5 36 Z " /><path fill="rgb(230,90,12)" stroke="rgb(230,90,12)" stroke-width="1" opacity="1" d="M 183.5 40 L 185.5 43 L 183.5 40 Z " /><path fill="rgb(230,90,12)" stroke="rgb(230,90,12)" stroke-width="1" opacity="1" d="M 186.5 44 L 187.5 46 L 186.5 44 Z " /><path fill="rgb(230,90,12)" stroke="rgb(230,90,12)" stroke-width="1" opacity="1" d="M 189.5 48 L 193 53.5 L 191 52.5 L 189.5 48 Z " /><path fill="rgb(230,90,12)" stroke="rgb(230,90,12)" stroke-width="1" opacity="1" d="M 193.5 55 L 194.5 57 L 193.5 55 Z " /><path fill="rgb(230,90,12)" stroke="rgb(230,90,12)" stroke-width="1" opacity="1" d="M 196.5 60 L 198 63.5 L 197 63.5 L 196.5 60 Z " /><path fill="rgb(230,90,12)" stroke="rgb(230,90,12)" stroke-width="1" opacity="1" d="M 143.5 62 L 145.5 65 L 143.5 62 Z " /><path fill="rgb(230,90,12)" stroke="rgb(230,90,12)" stroke-width="1" opacity="1" d="M 153.5 74 L 155 77.5 L 154 77.5 L 153.5 74 Z " /><path fill="rgb(230,90,12)" stroke="rgb(230,90,12)" stroke-width="1" opacity="1" d="M 203.5 80 L 206 93.5 L 206 106.5 L 205 107.5 L 205 116.5 L 203.5 125 L 203 120 L 165.5 110 L 160 110 L 159.5 113 L 159 108.5 L 160 107.5 L 160 92.5 L 159 89.5 L 160 89.5 L 161.5 92 L 172.5 90 L 195.5 83 L 199.5 83 L 203.5 80 Z " /><path fill="rgb(230,90,12)" stroke="rgb(230,90,12)" stroke-width="1" opacity="1" d="M 202.5 126 L 203 128.5 L 201.5 131 L 201 129.5 L 202.5 126 Z " /><path fill="rgb(230,90,12)" stroke="rgb(230,90,12)" stroke-width="1" opacity="1" d="M 152.5 127 L 151.5 129 L 152.5 127 Z " /><path fill="rgb(230,90,12)" stroke="rgb(230,90,12)" stroke-width="1" opacity="1" d="M 150.5 130 L 149.5 132 L 150.5 130 Z " /><path fill="rgb(230,90,12)" stroke="rgb(230,90,12)" stroke-width="1" opacity="1" d="M 148.5 133 L 146.5 136 L 148.5 133 Z " /><path fill="rgb(230,90,12)" stroke="rgb(230,90,12)" stroke-width="1" opacity="1" d="M 198.5 137 L 199 138.5 L 197 139.5 L 198.5 137 Z " /><path fill="rgb(230,90,12)" stroke="rgb(230,90,12)" stroke-width="1" opacity="1" d="M 196.5 141 L 197 142.5 L 195 143.5 L 196.5 141 Z " /><path fill="rgb(230,90,12)" stroke="rgb(230,90,12)" stroke-width="1" opacity="1" d="M 191.5 151 L 190.5 153 L 191.5 151 Z " /><path fill="rgb(230,90,12)" stroke="rgb(230,90,12)" stroke-width="1" opacity="1" d="M 189.5 154 L 188.5 156 L 189.5 154 Z " /><path fill="rgb(230,90,12)" stroke="rgb(230,90,12)" stroke-width="1" opacity="1" d="M 187.5 157 L 186.5 159 L 187.5 157 Z " /><path fill="rgb(230,90,12)" stroke="rgb(230,90,12)" stroke-width="1" opacity="1" d="M 184.5 161 L 183.5 163 L 184.5 161 Z " /><path fill="rgb(254,254,254)" stroke="rgb(254,254,254)" stroke-width="1" opacity="1" d="M 0 0 L 48.5 0 L 49 1.5 L 48 4 Q 44.4 6.6 38 6 Q 39.1 8.7 36.5 8 L 32 10.5 L 34 11 Q 35.3 14 31.5 13 L 27 15.5 L 27.5 17 Q 21.8 16.3 21 20.5 L 17.5 27 L 14 29.5 L 11 40 L 8 41.5 Q 9.1 44.8 6.5 44 L 2 53 L 0 52.5 L 0 0 Z " /><path fill="rgb(254,254,254)" stroke="rgb(254,254,254)" stroke-width="1" opacity="1" d="M 171 0 L 220 0 L 220 50 L 218 50 Q 219.1 47.3 216.5 48 L 210 36 L 208 35.5 L 208 28.5 L 206.5 29 L 203 26.5 L 200.5 21 L 198 22 Q 198.8 18.2 195.5 17 L 192 16 L 192 13 Q 189.3 14.1 190 11.5 L 184 9 Q 185.1 6.3 182.5 7 L 178.5 4 L 171 2 L 171 0 Z " /><path fill="rgb(254,254,254)" stroke="rgb(254,254,254)" stroke-width="1" opacity="1" d="M 110.5 82 Q 113.1 81.3 112 84 L 116.5 84 Q 117.6 86.7 121 86 Q 119.8 89 123.5 88 L 128 90 L 130 95.5 L 128 96.5 Q 131.3 97.8 130 103.5 L 130 105.5 L 130 113.5 L 128 114 L 128 116.5 L 124.5 121 L 116.5 125 L 105.5 125 L 94 120.5 L 94 118.5 L 93 116.5 Q 95.3 115.3 92.5 114 L 90 112.5 L 91 110.5 L 88 104 Q 93.3 105.8 91 98.5 L 96 88 L 104 86 Q 102.9 83.3 105.5 84 L 110.5 82 Z " /><path fill="rgb(254,254,254)" stroke="rgb(254,254,254)" stroke-width="1" opacity="1" d="M 0.5 155 L 2 160 L 5 161.5 L 7.5 167 Q 10.8 165.9 10 168.5 L 16 184 Q 19 182.8 18 186.5 L 21 185.5 L 23 191.5 L 25.5 194 L 35.5 200 L 38 200 L 40 204 L 44.5 204 L 45.5 206 L 0 206 L 0.5 155 Z " /><path fill="rgb(254,254,254)" stroke="rgb(254,254,254)" stroke-width="1" opacity="1" d="M 219.5 158 L 220 206 L 176.5 206 L 176 204 L 180.5 204 Q 183.2 199.4 189 200 Q 188 196.2 190.5 195 L 192.5 194 L 194.5 195 L 198.5 189 Q 200.8 189.8 200 187.5 L 203 186 L 203 183.5 L 206 180.5 L 216 160 Q 219.8 161.3 219.5 158 Z " /><path fill="rgb(225,224,223)" stroke="rgb(225,224,223)" stroke-width="1" opacity="1" d="M 120.5 1 L 122 1.5 L 120 2.5 L 127.5 3 L 130 1.5 Q 130.8 3.8 128.5 3 L 128.5 4 L 133.5 5 L 135.5 4 L 140.5 5 L 143.5 8 Q 145 5.5 146.5 9 Q 149.2 11.8 155.5 11 L 157 12.5 L 156.5 14 Q 160.3 13.3 161 15.5 Q 160.3 17.8 162.5 17 L 164 16.5 L 163.5 18 L 166.5 17 L 166.5 19 L 170 20.5 L 172.5 24 Q 176.3 23.3 177 25.5 Q 176.3 27.8 178.5 27 Q 180 24.5 181.5 28 Q 183.8 27.3 183 29.5 L 182 33.5 L 183 33.5 L 183.5 31 L 184 33.5 L 183.5 35 Q 188 34 189 36.5 Q 190.4 44 195.5 48 L 199 49.5 L 198 52.5 L 200 52.5 L 199 54.5 L 206 64.5 L 206.5 70 L 207.5 68 L 208 69.5 L 207 71.5 L 210 75.5 Q 209.4 81.6 212 84.5 L 213 112.5 L 212 113.5 L 212 124.5 L 208.5 137 L 207 136.5 L 208 141.5 L 205 142 L 204 144.5 Q 206.5 146 203 147.5 L 202 151.5 L 198 155.5 L 198 157.5 L 187.5 174 L 185 175.5 Q 187.3 176.8 184.5 178 L 175.5 185 L 173 185 L 171.5 188 L 144.5 203 L 142.5 202 L 135.5 206 L 85.5 206 L 83.5 204 L 76.5 203 L 73.5 200 L 70.5 200 L 56.5 191 L 52.5 190 L 35 175.5 L 35 173.5 L 25 160.5 L 26 158.5 L 23.5 160 L 22 158.5 L 22 155.5 L 12 136.5 L 9 120.5 L 9.5 119 Q 6.9 119.7 8 117 Q 11 118 10 115 Q 7 116.3 8 112.5 L 9 110.5 Q 6.7 109.3 8 104.5 L 8 102.5 L 9 95.5 Q 6.3 93.8 8 87.5 L 10 83.5 L 10 79.5 L 15 68.5 L 16.5 61 L 17.5 64 Q 17.3 59.8 20 58.5 L 19 56.5 L 20.5 57 L 22 56.5 L 21 53.5 Q 26.3 51.9 25 45 Q 28 46.3 27 42.5 L 30.5 40 L 33 41 L 34 37.5 L 32 37.5 L 33 35 L 36 34.5 L 34.5 32 Q 37.1 31.3 36 34 L 38 34 L 37 30.5 Q 39 26.8 41 28.5 Q 40.2 25.9 43.5 27 L 45.5 24 L 42.5 25 L 42.5 24 L 48 22 L 48.5 24 L 51 19 L 55.5 19 L 63.5 13 L 68 12 Q 66.7 8.7 71.5 10 L 71.5 8 Q 73 10.5 74.5 7 L 79 8 Q 77.8 5 81.5 6 L 83 3 L 95.5 2 L 99.5 3 L 100.5 2 L 111.5 2 L 114.5 3 L 120.5 1 Z M 106 5 L 105 6 L 91 6 L 89 8 L 84 8 L 79 10 Q 60 18 46 30 Q 30 44 21 66 L 17 78 L 16 92 L 14 96 L 15 97 L 15 110 L 16 111 L 17 125 L 20 134 Q 27 152 39 166 Q 53 181 74 190 L 88 195 L 104 196 L 105 197 L 127 196 L 138 193 L 140 194 L 140 192 Q 160 186 175 173 Q 186 162 194 149 L 204 126 L 205 113 L 206 112 L 206 91 L 204 83 L 204 77 L 194 54 L 182 37 Q 168 21 148 12 L 129 6 L 106 5 Z M 180 28 L 181 30 Q 182 27 180 28 Z M 28 42 L 28 44 L 30 43 L 28 42 Z M 10 88 L 9 91 L 10 91 L 10 88 Z M 10 106 L 9 109 L 10 109 L 10 106 Z " /><path fill="rgb(225,224,223)" stroke="rgb(225,224,223)" stroke-width="1" opacity="1" d="M 100.5 52 L 120.5 52 L 127.5 54 L 138.5 60 L 148 68.5 Q 155.2 77.3 159 89.5 L 160 105.5 Q 156.2 128.2 141.5 140 L 126.5 148 L 125 147.5 L 124.5 149 L 121.5 148 L 121.5 150 L 113.5 150 L 112.5 149 L 110.5 150 L 107.5 149 Q 106 151.5 100.5 150 Q 83.1 145.4 73 133.5 Q 65.9 125.1 62 113.5 L 61 97.5 L 64 84.5 Q 68.8 72.3 77.5 64 Q 87 56 100.5 52 Z M 110 66 L 95 70 L 86 76 Q 87 78 85 77 L 80 84 L 78 85 L 78 87 L 72 102 L 73 114 L 75 116 L 74 115 L 72 116 Q 76 117 75 123 L 77 122 L 81 127 Q 79 131 83 130 Q 86 131 85 135 L 88 133 L 88 137 L 95 138 L 108 144 Q 113 145 114 142 L 122 142 Q 128 136 137 133 L 148 115 Q 147 109 149 108 L 149 100 L 147 99 L 148 97 Q 149 93 147 94 Q 144 93 146 92 L 139 78 Q 135 79 136 77 Q 127 67 110 66 Z M 130 137 L 130 139 L 132 138 L 130 137 Z " /><path fill="rgb(253,122,2)" stroke="rgb(253,122,2)" stroke-width="1" opacity="1" d="M 174.5 30 L 175 32 L 180 35.5 L 187.5 46 Q 190.5 45.1 189 49.5 L 191 49.5 L 191 51.5 L 192.5 54 L 194 54.5 L 193 55.5 L 196 58.5 L 197 64 Q 199.7 62.9 199 65.5 L 200 68.5 L 204 79.5 L 199.5 83 L 195.5 83 L 172.5 90 L 161.5 92 L 158 87.5 L 158 83 L 156 82.5 L 156 80.5 Q 156.8 78.3 154.5 79 L 155 77.5 L 154 74 L 152 74 L 152 72 Q 149.3 73.1 150 70.5 Q 147.3 69.4 148 66 Q 145.3 67.1 146 64.5 L 143 60.5 L 155 46 Q 157.7 47.1 157 44.5 L 166 37.5 L 170.5 32 L 174.5 30 Z " /><path fill="rgb(253,122,2)" stroke="rgb(253,122,2)" stroke-width="1" opacity="1" d="M 205.5 107 L 206 111.5 L 205 111.5 L 205.5 107 Z " /><path fill="rgb(246,246,246)" stroke="rgb(246,246,246)" stroke-width="1" opacity="1" d="M 59.5 0 L 71 0.5 L 65.5 2 L 56 7.5 Q 56.8 9.8 54.5 9 L 49 11.5 Q 49.9 14.5 45.5 13 L 42 15 L 39.5 19 L 37.5 18 L 32.5 24 Q 30.3 23.3 31 25.5 L 25 30.5 Q 23 38 17 41.5 L 17 43.5 Q 16.3 49.3 12.5 52 Q 10.3 51.3 11 53.5 L 3 69.5 L 0.5 82 L 0 67.5 L 2 60.5 L 9 48 L 12 46.5 L 15.5 37 Q 18.8 38.1 18 35.5 L 25 24.5 L 24.5 23 L 29 22 L 30.5 19 Q 32.2 21.7 34 17.5 L 35.5 15 L 40 14 Q 38.3 9.9 42.5 11 Q 44 6.8 50 8 Q 48.9 5.3 51.5 6 L 54 5 L 56.5 1 L 59.5 0 Z " /><path fill="rgb(246,246,246)" stroke="rgb(246,246,246)" stroke-width="1" opacity="1" d="M 147.5 0 L 163.5 0 L 172.5 8 L 175.5 8 L 184 13 L 185.5 16 L 192 19.5 Q 190.9 22.8 193.5 22 L 195 25 L 199 27.5 L 200 32 Q 202.7 30.9 202 33.5 L 208 41.5 L 208 44.5 L 210 48 Q 213.7 46.5 213 49.5 L 216 57.5 L 220 61.5 L 220 74 Q 216.3 75.3 218 69.5 L 213 58 Q 210 59.3 211 55.5 L 208 48 Q 205.3 49.1 206 46.5 L 203 42.5 L 203 40 L 199 37.5 L 198 33.5 L 184.5 18 L 182.5 19 Q 180.6 15.4 176 16 Q 177.7 11.9 173.5 13 L 165 7.5 L 163.5 5 L 157 4 Q 158.3 0.3 152.5 2 L 147.5 1 L 147.5 0 Z " /><path fill="rgb(246,246,246)" stroke="rgb(246,246,246)" stroke-width="1" opacity="1" d="M 158 6 Q 161 5 160 8 Q 157 9 158 6 Z " /><path fill="rgb(246,246,246)" stroke="rgb(246,246,246)" stroke-width="1" opacity="1" d="M 110.5 75 Q 123.3 76.8 131 83 L 139 96.5 L 139 109.5 L 136 121 L 132 123.5 L 130.5 126 Q 126.3 124.7 128 129.5 L 125.5 130 L 117.5 133 L 102.5 133 L 98.5 132 L 88 123.5 L 87 120 Q 83.7 121.3 85 116.5 L 83 114.5 L 82 95.5 L 85 94 Q 84.1 88.1 88.5 86 L 91 84.5 L 93.5 81 Q 98.7 80.7 100.5 77 Q 107.5 78 110.5 75 Z M 105 79 Q 104 81 107 81 L 99 83 Q 95 82 96 85 L 94 86 L 90 91 Q 91 93 88 92 L 85 105 L 88 118 L 94 125 L 105 129 L 112 129 L 114 129 L 119 127 L 121 127 L 125 126 L 126 123 L 131 121 L 132 120 L 133 114 L 135 112 L 134 108 Q 133 103 136 102 L 134 94 L 130 90 L 130 87 Q 127 88 128 85 L 122 83 L 120 83 L 118 82 L 116 79 L 113 80 L 105 79 Z " /><path fill="rgb(246,246,246)" stroke="rgb(246,246,246)" stroke-width="1" opacity="1" d="M 0.5 130 L 2 137.5 L 9 151.5 L 8.5 153 L 12 155.5 L 13 159.5 L 18 165.5 L 23 175.5 L 35.5 189 L 46.5 197 L 53 199 L 54.5 202 Q 59.3 202.3 61 205.5 L 53.5 206 L 34 193.5 L 31.5 190 L 27 187.5 Q 25.5 181 20 178.5 L 20 176 Q 15.9 177.7 17 173.5 L 12 165.5 L 12 162 L 8 161 L 6 153.5 L 1 145.5 L 0.5 130 Z " /><path fill="rgb(246,246,246)" stroke="rgb(246,246,246)" stroke-width="1" opacity="1" d="M 219.5 133 L 220 147.5 Q 214.8 149.2 216 156 L 213 157.5 L 212 159.5 Q 214.3 160.8 211.5 162 L 208 163 L 208 168 Q 205.3 166.9 206 169.5 L 200 182 Q 196.2 180.5 197 183.5 L 193.5 188 L 190.5 190 L 184 195 Q 185.1 197.7 182.5 197 L 166.5 206 L 161 206 L 162.5 203 Q 167.3 203.8 168 200.5 Q 167.2 197.9 170.5 199 L 176 197 Q 174.9 194.3 177.5 195 L 182 193 L 184.5 189 L 189 187 L 190.5 184 L 192 184 Q 190.5 180.3 193.5 181 L 200 172.5 L 200 170 Q 202.7 171.1 202 168.5 L 211 154.5 L 211 152 Q 213.7 153.1 213 150.5 L 218 140.5 Q 217.1 135.1 219.5 133 Z " /><path fill="rgb(5,237,6)" stroke="rgb(5,237,6)" stroke-width="1" opacity="1" d="M 39.5 38 L 70.5 68 L 72 68 L 64 82.5 L 60.5 92 L 54.5 92 L 36.5 86 L 32.5 86 L 29.5 84 L 25.5 84 L 18 80.5 L 18 75.5 L 26 56.5 L 34 43.5 L 39.5 38 Z " /><path fill="rgb(236,9,11)" stroke="rgb(236,9,11)" stroke-width="1" opacity="1" d="M 160 110 L 165.5 110 L 203 120 L 203 125.5 L 199 136.5 Q 192.2 152.7 181.5 165 L 177 164 L 173.5 159 Q 171.3 159.8 172 157.5 L 162.5 148 L 161 148 L 155 139 L 150.5 136 L 148 136 L 158 117.5 L 160 110 Z " /><path fill="rgb(239,239,240)" stroke="rgb(239,239,240)" stroke-width="1" opacity="1" d="M 74.5 0 L 145.5 0 L 146 1.5 L 147.5 1 L 152.5 3 Q 154.2 0.2 156 4.5 Q 155.3 7.1 158 6 L 158 8 L 160.5 8 L 172 14.5 L 171.5 16 L 178.5 18 L 190 28.5 Q 189.3 30.8 191.5 30 L 208 54.5 L 218 78.5 L 218 80.5 Q 216 88.5 220 90.5 L 219 94.5 Q 221.2 95.7 220 100.5 Q 217.5 102 219 107.5 L 220 112.5 L 219 113.5 L 218 129.5 L 216 133.5 L 216 139.5 L 200.5 166 Q 197.5 165.1 199 169.5 L 192.5 178 Q 190.3 177.3 191 179.5 L 188.5 183 L 180.5 190 L 162 200 Q 163.1 202.7 160.5 202 L 155 204 L 154.5 206 L 136.5 206 L 136.5 205 L 143.5 202 L 145.5 202 L 173 186.5 Q 172.2 183.9 175.5 185 L 186 176.5 Q 183.8 175.3 186.5 174 L 190 171.5 L 190 168.5 L 194 164.5 L 198 155.5 L 205 145.5 L 205 143.5 Q 204.2 140.9 207.5 142 L 207 140.5 L 206 135.5 L 209 136.5 L 212 124.5 L 213 100.5 L 212 99.5 L 212 84.5 Q 209.4 81.6 210 75.5 L 207.5 72 L 206 72.5 L 207 70.5 L 205.5 64 L 204 64.5 L 204 62.5 L 198 50.5 L 198.5 49 L 195.5 48 L 193.5 49 L 193.5 48 L 195 47.5 L 187.5 35 Q 183 36 182 33.5 L 183 28 Q 180.3 26.9 181 29.5 L 179 28.5 L 181 27.5 Q 179.8 24.8 178.5 27 Q 176.3 27.8 177 25.5 L 170 21.5 L 168.5 19 L 166 18.5 L 166.5 17 L 163.5 18 L 161 17 L 159.5 14 L 156 13.5 Q 158.3 12.3 155.5 11 Q 147 12 144.5 7 L 143.5 8 L 140.5 5 L 134.5 4 L 132.5 4 L 115.5 2 L 112.5 3 L 111.5 2 L 100.5 2 L 96.5 3 L 92.5 2 L 91.5 3 L 83 3 L 81.5 6 L 79 6 Q 80.1 8.7 77.5 8 L 74.5 7 Q 73.1 11 68 10 Q 69.3 13 65.5 12 L 55.5 19 L 51 19 L 48.5 24 L 48 22 L 44 23.5 L 46 24.5 Q 44.8 27.8 41 27 L 40.5 29 Q 38.8 26.3 37 30.5 L 38 34 L 33 35 L 34 38.5 L 33 41 L 30.5 40 L 28 41.5 L 30 42.5 L 28 43.5 L 27.5 42 L 27 45 Q 23.3 43.6 25 49.5 L 21 53.5 L 21 55.5 L 21.5 57 L 19.5 56 L 19 57.5 Q 21.5 59 18 60.5 L 17.5 64 L 16.5 61 L 9 84.5 Q 11.5 86 8 87.5 L 9 98.5 L 8 102.5 L 8 104.5 L 9 111.5 L 8 115 Q 11 114 10 117 Q 7 116 8 119 L 10 119.5 L 9 122.5 L 12 136.5 L 23.5 160 L 26 158.5 L 25 160.5 L 38.5 179 L 59.5 194 L 63.5 195 L 70.5 200 L 73.5 200 L 76.5 203 L 83.5 204 L 85 205.5 L 66 206 Q 67.3 203 63.5 204 L 49.5 194 L 45 193 Q 46.3 190 42.5 191 L 38 187.5 Q 38.8 185.3 36.5 186 L 30 181 L 25 173.5 L 25 171 Q 22 172.3 23 168.5 L 14 156.5 Q 12.2 148.3 7 143.5 L 5 133.5 L 2 127.5 L 2 120.5 L 2 118.5 L 1 96.5 L 1 94.5 L 3 90.5 L 2 88.5 L 2 86.5 L 3 77.5 L 9 62.5 L 27 32 Q 29.7 33.1 29 30.5 L 36.5 22 L 37.5 24 L 42.5 18 L 47.5 16 L 49 16.5 L 50.5 14 L 60.5 7 L 74.5 0 Z M 130 1 L 128 3 L 130 3 L 130 1 Z M 184 31 L 183 34 L 184 34 L 184 31 Z M 35 32 L 36 34 Q 37 31 35 32 Z M 22 48 L 20 50 L 22 50 L 22 48 Z " /><path fill="rgb(239,239,240)" stroke="rgb(239,239,240)" stroke-width="1" opacity="1" d="M 109.5 66 Q 126.9 67.1 136 76.5 Q 135.2 79.1 138.5 78 L 146 91.5 Q 143.8 92.8 146.5 94 Q 149.1 93.2 148 96.5 L 147 99 L 149 99.5 L 149 107.5 Q 146.5 109 148 114.5 L 137 133 Q 127.9 135.6 121.5 142 L 113.5 142 Q 112.5 145 107.5 144 L 94.5 138 L 88 137 L 87.5 133 L 85 134.5 Q 85.5 130.5 82.5 130 Q 79.5 130.9 81 126.5 L 76.5 122 L 75 122.5 Q 75.7 115.8 71 114.5 L 72.5 115 L 74 114.5 L 73 113.5 L 72 101.5 L 78 86.5 L 77.5 85 L 80 83.5 L 84.5 77 Q 86.8 77.8 86 75.5 L 94.5 70 L 109.5 66 Z M 102 74 L 89 82 L 87 85 L 84 87 L 84 89 L 80 96 L 79 101 L 79 109 L 80 110 L 79 112 L 88 128 L 93 129 L 94 133 Q 95 135 97 133 L 106 136 L 119 135 L 127 131 Q 129 132 128 130 L 132 128 L 136 124 L 142 111 L 141 96 L 138 89 L 133 83 L 129 78 L 128 79 L 118 74 L 102 74 Z " /><path fill="rgb(239,239,240)" stroke="rgb(239,239,240)" stroke-width="1" opacity="1" d="M 9.5 88 L 10 90.5 L 9 90.5 L 9.5 88 Z " /><path fill="rgb(239,239,240)" stroke="rgb(239,239,240)" stroke-width="1" opacity="1" d="M 9.5 106 L 10 108.5 L 9 108.5 L 9.5 106 Z " /><path fill="rgb(239,239,240)" stroke="rgb(239,239,240)" stroke-width="1" opacity="1" d="M 130 137 L 132 137.5 L 130 138.5 L 130 137 Z " /><path fill="rgb(239,239,240)" stroke="rgb(239,239,240)" stroke-width="1" opacity="1" d="M 107.5 149 L 110 149.5 L 107.5 150 L 107.5 149 Z " /><path fill="rgb(239,239,240)" stroke="rgb(239,239,240)" stroke-width="1" opacity="1" d="M 199.5 149 L 200 150.5 L 198 151.5 L 199.5 149 Z " /><path fill="rgb(9,134,188)" stroke="rgb(9,134,188)" stroke-width="1" opacity="1" d="M 17.5 80 L 19.5 82 L 29.5 84 L 32.5 86 L 36.5 86 L 54.5 92 L 60.5 92 L 62 91.5 L 61 103.5 L 62 104.5 L 62 113.5 L 64 116.5 L 60.5 120 Q 55.9 119.4 54.5 122 L 50.5 122 L 47.5 124 L 43.5 124 L 19.5 131 L 17 124.5 L 16 110.5 L 15 109.5 L 15 92.5 L 17.5 80 Z " /><path fill="rgb(9,134,188)" stroke="rgb(9,134,188)" stroke-width="1" opacity="1" d="M 71.5 131 L 72.5 133 L 71.5 131 Z " /><path fill="rgb(9,134,188)" stroke="rgb(9,134,188)" stroke-width="1" opacity="1" d="M 74.5 135 L 75.5 137 L 74.5 135 Z " /><path fill="rgb(9,134,188)" stroke="rgb(9,134,188)" stroke-width="1" opacity="1" d="M 35.5 160 L 36.5 162 L 35.5 160 Z " /><path fill="rgb(9,134,188)" stroke="rgb(9,134,188)" stroke-width="1" opacity="1" d="M 39.5 165 L 40.5 167 L 39.5 165 Z " /><path fill="rgb(9,134,188)" stroke="rgb(9,134,188)" stroke-width="1" opacity="1" d="M 45.5 171 L 46.5 173 L 45.5 171 Z " /><path fill="rgb(243,244,243)" stroke="rgb(243,244,243)" stroke-width="1" opacity="1" d="M 71.5 0 L 74 0.5 L 64 5.5 L 64.5 7 L 62.5 6 L 49 15.5 L 48.5 17 L 46.5 16 L 38 22.5 L 37.5 24 L 36.5 22 L 29 32 Q 26.3 30.9 27 33.5 L 20 42.5 L 15 52.5 L 15.5 54 L 14 53.5 L 3 77.5 L 2 86.5 L 2 88.5 L 3 91.5 L 1 94.5 L 1 96.5 L 2 118.5 L 3 119.5 Q 0.2 121.3 2 127.5 L 5 133.5 L 7 143.5 Q 12.2 148.3 14 156.5 L 23 168.5 L 23 171 Q 26 169.8 25 173.5 L 30 181 L 38 186 L 39.5 189 L 45 191 Q 43.9 193.7 46.5 193 L 61.5 203 L 66 204 Q 67.3 207.7 61.5 206 L 53 200.5 Q 53.8 198.3 51.5 199 Q 36.5 192.5 27 180.5 L 9.5 153 L 8 152.5 L 9 150.5 L 2 137.5 Q 2.7 131.8 0 129.5 L 0 90.5 L 1 88.5 Q -1.3 87.3 0 82.5 L 3 69.5 Q 8.9 62.3 11 52 L 14 50.5 L 18 42.5 L 17 41.5 L 23 35.5 L 23 33.5 L 27.5 28 L 31 25.5 Q 30.3 23.3 32.5 24 L 37.5 18 L 39.5 19 L 42 15 L 45.5 13 L 49 13 L 50.5 10 L 56 9 L 57.5 6 L 71.5 0 Z " /><path fill="rgb(243,244,243)" stroke="rgb(243,244,243)" stroke-width="1" opacity="1" d="M 149.5 1 L 153 2.5 L 151.5 2 Q 148.5 2.5 149.5 1 Z " /><path fill="rgb(243,244,243)" stroke="rgb(243,244,243)" stroke-width="1" opacity="1" d="M 154.5 2 L 157 2 Q 155.9 4.7 158.5 4 L 165 6.5 L 166.5 9 L 176 13 Q 174.3 17.1 178.5 16 L 183.5 19 Q 184.8 16.8 186 19.5 L 198 33.5 Q 198.3 38.3 201.5 40 Q 204.1 39.2 203 42.5 L 206 48 Q 209 46.8 208 50.5 L 211 58 Q 213.7 56.9 213 59.5 L 218 69.5 L 218 74 L 220 74.5 L 220 89.5 L 218 88.5 L 218 80.5 L 217 79.5 L 218 76.5 L 208 54.5 L 191.5 30 Q 189.3 30.8 190 28.5 L 178.5 18 L 171 15.5 Q 173.3 14.3 170.5 13 L 160 7.5 L 160 6 L 156 6 L 156 4.5 L 154.5 2 Z " /><path fill="rgb(243,244,243)" stroke="rgb(243,244,243)" stroke-width="1" opacity="1" d="M 101.5 74 L 117.5 74 L 127.5 79 L 128.5 78 L 133 82.5 L 138 88.5 L 141 95.5 L 142 110.5 L 136 123.5 L 131.5 128 L 128.5 129 L 128 126 L 132 124.5 L 134.5 121 Q 137.5 121.9 136 117.5 Q 140.8 110.3 139 96.5 L 131 83 Q 123.3 76.8 110.5 75 Q 107.5 78 100.5 77 L 91 83.5 L 89.5 86 L 86 88.5 L 85 94 L 82 95.5 L 82 107.5 L 85 120 Q 87.7 118.9 87 121.5 L 90.5 126 L 98.5 132 Q 106 134.5 117.5 133 L 126.5 129 L 127.5 131 L 118.5 135 L 105.5 136 L 96.5 133 Q 95.3 135.3 94 132.5 L 93 129 L 88 128 L 79 111.5 L 80 109.5 L 79 108.5 L 79 100.5 L 80 95.5 L 84 88.5 L 83.5 87 L 87 84.5 L 88.5 82 L 101.5 74 Z " /><path fill="rgb(243,244,243)" stroke="rgb(243,244,243)" stroke-width="1" opacity="1" d="M 219.5 91 L 220 94.5 L 219 94.5 L 219.5 91 Z " /><path fill="rgb(243,244,243)" stroke="rgb(243,244,243)" stroke-width="1" opacity="1" d="M 219.5 101 L 220 107.5 L 219 107.5 L 219.5 101 Z " /><path fill="rgb(243,244,243)" stroke="rgb(243,244,243)" stroke-width="1" opacity="1" d="M 219.5 113 L 220 132.5 L 213 152 Q 210 150.8 211 154.5 L 203 165.5 L 202 170 Q 199 168.8 200 172.5 L 193.5 181 L 192 181 Q 193.5 184.8 190.5 184 L 189 187 L 182 191.5 Q 182.8 193.8 180.5 193 L 176 195 Q 177.1 197.7 174.5 197 L 168 199 L 165.5 203 Q 161.8 202.3 161 204.5 L 160.5 206 L 158.5 206 Q 153.7 207.3 155 204 L 162 202 Q 160.9 199.3 163.5 200 L 178.5 190 L 180.5 190 L 190 181.5 L 191 178 L 194 176.5 L 199 169.5 L 199 166 L 202 164.5 L 204 159.5 L 203.5 158 L 205 158.5 L 216 139.5 L 216 133.5 L 219 123.5 L 219.5 113 Z " /><path fill="rgb(250,250,250)" stroke="rgb(250,250,250)" stroke-width="1" opacity="1" d="M 49 0 L 59 0.5 L 54 3.5 Q 54.8 5.8 52.5 5 L 50 6 Q 51.4 9.7 45.5 8 Q 44.2 11.8 40 11 Q 41.7 15.1 37.5 14 L 34 16.5 L 31.5 20 Q 30.3 17.8 29 20.5 Q 29.8 22.8 27.5 22 L 24 23.5 L 24 25.5 L 18 37 L 14 38.5 L 14 41.5 L 10.5 48 Q 8.3 47.3 9 49.5 Q 2.1 55.6 0.5 67 L 0 57.5 L 0 55.5 L 0 53 Q 2.7 54.1 2 51.5 L 6.5 44 Q 9.1 44.8 8 41.5 L 11 40 L 14 29.5 L 16.5 27 L 19 25.5 L 21 20.5 L 24.5 17 L 28 16.5 L 27.5 15 L 34 13 Q 35.1 10.3 32.5 11 L 32.5 10 L 38 8 Q 36.6 4.3 42.5 6 L 48 4 L 49 0 Z " /><path fill="rgb(250,250,250)" stroke="rgb(250,250,250)" stroke-width="1" opacity="1" d="M 164.5 0 L 170.5 0 L 171 2 L 172.5 2 L 184 7 Q 182.9 9.7 185.5 9 L 190 11.5 Q 189.3 14.1 192 13 L 192 16 L 193.5 16 L 198 19.5 Q 196.9 22.8 199.5 22 Q 200.8 19.8 202 22.5 Q 202.3 27.3 205.5 29 L 207.5 28 L 208 36 Q 210.7 34.9 210 37.5 L 216.5 48 L 220 50.5 L 220 60.5 L 216 57.5 L 213 48 Q 209.2 49.5 210 46.5 L 202 32 Q 199 33.3 200 29.5 L 196.5 25 Q 194.3 25.8 195 23.5 L 192 22 L 190.5 18 L 184 14.5 Q 184.8 12.3 182.5 13 L 175.5 8 L 172.5 8 L 164.5 0 Z " /><path fill="rgb(250,250,250)" stroke="rgb(250,250,250)" stroke-width="1" opacity="1" d="M 104.5 79 L 112.5 80 L 116 79 L 117.5 82 L 119.5 83 L 121.5 83 L 128 85 Q 127 88 130 87 L 130 89.5 L 134 93.5 L 136 101.5 Q 133.4 102.9 134 107.5 L 135 111.5 L 133 113.5 L 132 119.5 L 130.5 121 L 126 123 L 124.5 126 L 120.5 127 L 118.5 127 L 113.5 129 L 111.5 129 L 104.5 129 L 94 125 L 88 117.5 L 85 104.5 L 88 92 Q 90.7 93.1 90 90.5 L 93.5 86 L 96 84.5 Q 95.2 81.9 98.5 83 L 107 80.5 Q 103.7 80.6 104.5 79 Z M 111 82 L 106 84 Q 103 83 104 86 L 96 88 L 91 99 Q 93 106 88 104 L 91 111 L 90 113 L 93 114 Q 95 115 93 117 L 94 119 L 94 121 L 106 125 L 117 125 L 125 121 L 128 117 L 128 114 L 130 114 L 130 106 L 130 104 Q 131 98 128 97 L 130 96 L 128 90 L 124 88 Q 120 89 121 86 Q 118 87 117 84 L 112 84 Q 113 81 111 82 Z " /><path fill="rgb(250,250,250)" stroke="rgb(250,250,250)" stroke-width="1" opacity="1" d="M 0.5 141 L 1 145.5 L 6 153.5 L 8 161 L 12 162 L 12 165.5 Q 16.9 168.9 17 176 Q 21.1 174.3 20 178.5 L 28.5 189 L 34 192.5 L 36.5 196 L 42.5 198 L 53 205.5 L 46.5 206 Q 45 202.8 40 204 L 38 200 L 35.5 200 L 23 191.5 L 20.5 185 L 18 186.5 L 18 184 Q 15 185.3 16 181.5 L 14 179.5 L 14 176.5 L 10 167 L 6 165.5 L 3.5 160 Q 0.9 160.8 2 157.5 L 0 154.5 L 0.5 141 Z " /><path fill="rgb(250,250,250)" stroke="rgb(250,250,250)" stroke-width="1" opacity="1" d="M 219.5 148 L 220 157.5 L 219 160 Q 215.2 158.5 216 161.5 L 211 171.5 L 208 174.5 L 206 180.5 L 203 183.5 L 203 186 L 200 187.5 Q 200.8 189.8 198.5 189 L 194.5 195 L 192.5 194 L 189 196.5 Q 190.7 201.3 186.5 200 L 180.5 204 L 176 204 L 175.5 206 L 167.5 206 L 168.5 204 L 184 197 Q 182.9 194.3 185.5 195 L 192 190 Q 190.9 187.3 193.5 188 L 197 182 Q 200.8 183.5 200 180.5 L 205 173.5 L 206 168 L 208 168 L 208 163 L 209.5 163 L 213 160.5 L 213 158.5 L 214.5 156 Q 217.9 156.9 216 151.5 L 219.5 148 Z " /><path fill="rgb(2,2,233)" stroke="rgb(2,2,233)" stroke-width="1" opacity="1" d="M 62.5 118 Q 65.1 117.2 64 120.5 L 78 140.5 L 73.5 146 L 68.5 150 L 66 154 Q 63.3 152.9 64 155.5 L 61 157 L 59.5 160 Q 57.3 159.3 58 161.5 L 49.5 170 L 46.5 171 L 40 165.5 L 28 148.5 L 24 138 Q 20.7 139.3 22 134.5 L 20 130.5 L 43.5 124 L 47.5 124 L 50.5 122 L 54.5 122 L 62.5 118 Z " /><path fill="rgb(2,2,233)" stroke="rgb(2,2,233)" stroke-width="1" opacity="1" d="M 114.5 152 L 115 156 Q 111.3 157.5 112 154.5 L 111.5 153 L 114.5 152 Z " /><path fill="rgb(59,2,159)" stroke="rgb(59,2,159)" stroke-width="1" opacity="1" d="M 66.5 124 L 67.5 126 L 66.5 124 Z " /><path fill="rgb(59,2,159)" stroke="rgb(59,2,159)" stroke-width="1" opacity="1" d="M 72.5 133 L 73.5 135 L 72.5 133 Z " /><path fill="rgb(59,2,159)" stroke="rgb(59,2,159)" stroke-width="1" opacity="1" d="M 76.5 137 L 88.5 146 L 102 151.5 L 101 161.5 L 96 179.5 Q 98.5 181 95 182.5 L 92 194 L 85.5 194 L 64.5 185 L 41 167.5 L 44.5 170 L 47.5 171 L 58 161.5 Q 57.3 159.3 59.5 160 L 61 157 L 64 155.5 L 66 152.5 L 70 150 L 70 148 L 72 148 Q 70.9 145.3 73.5 146 L 78 140.5 L 76.5 137 Z " /><path fill="rgb(59,2,159)" stroke="rgb(59,2,159)" stroke-width="1" opacity="1" d="M 26.5 145 L 28 147.5 L 27 147.5 L 26.5 145 Z " /><path fill="rgb(59,2,159)" stroke="rgb(59,2,159)" stroke-width="1" opacity="1" d="M 30.5 152 L 31.5 154 L 30.5 152 Z " /><path fill="rgb(59,2,159)" stroke="rgb(59,2,159)" stroke-width="1" opacity="1" d="M 32.5 155 L 33.5 157 L 32.5 155 Z " /><path fill="rgb(59,2,159)" stroke="rgb(59,2,159)" stroke-width="1" opacity="1" d="M 34.5 158 L 35.5 160 L 34.5 158 Z " /><path fill="rgb(59,2,159)" stroke="rgb(59,2,159)" stroke-width="1" opacity="1" d="M 37.5 162 L 39.5 165 L 37.5 162 Z " /><path fill="rgb(139,15,155)" stroke="rgb(139,15,155)" stroke-width="1" opacity="1" d="M 147.5 135 L 155 139 L 161 148 L 162.5 148 L 172 157.5 Q 171.3 159.8 173.5 159 L 177 164 L 181 165 L 174.5 173 Q 160.6 184.6 142.5 192 L 126.5 196 L 104.5 197 L 103.5 196 L 94.5 196 L 87 194.5 L 92 194 L 96 181.5 L 96 179.5 L 98 175.5 Q 98.5 164.5 102 156.5 L 102 151.5 L 101.5 150 L 121.5 150 Q 137.1 145.1 147.5 135 Z M 115 152 L 112 153 L 112 155 Q 111 158 115 156 L 115 152 Z " /><path fill="rgb(139,15,155)" stroke="rgb(139,15,155)" stroke-width="1" opacity="1" d="M 49.5 174 L 50.5 176 L 49.5 174 Z " /><path fill="rgb(139,15,155)" stroke="rgb(139,15,155)" stroke-width="1" opacity="1" d="M 53.5 177 L 54.5 179 L 53.5 177 Z " /><path fill="rgb(139,15,155)" stroke="rgb(139,15,155)" stroke-width="1" opacity="1" d="M 59.5 181 L 60.5 183 L 59.5 181 Z " /></svg>