<svg width="185" height="212" version="1.1" xmlns="http://www.w3.org/2000/svg" desc="Created with imagetracer.js version 1.2.6" ><path fill="rgb(243,243,243)" stroke="rgb(243,243,243)" stroke-width="1" opacity="1" d="M 80.5 21 L 82 21.5 L 79.5 23 L 80.5 21 Z " /><path fill="rgb(243,243,243)" stroke="rgb(243,243,243)" stroke-width="1" opacity="1" d="M 85.5 29 L 86 34 L 88 34.5 L 85 35 L 85.5 29 Z " /><path fill="rgb(243,243,243)" stroke="rgb(243,243,243)" stroke-width="1" opacity="1" d="M 97.5 33 L 96.5 35 L 95 34.5 L 97.5 33 Z " /><path fill="rgb(243,243,243)" stroke="rgb(243,243,243)" stroke-width="1" opacity="1" d="M 89.5 41 L 94 41.5 L 89.5 42 L 89.5 41 Z " /><path fill="rgb(243,243,243)" stroke="rgb(243,243,243)" stroke-width="1" opacity="1" d="M 96.5 42 L 102 46.5 L 98.5 44 L 96.5 42 Z " /><path fill="rgb(243,243,243)" stroke="rgb(243,243,243)" stroke-width="1" opacity="1" d="M 83.5 44 L 81.5 47 L 83.5 44 Z " /><path fill="rgb(243,243,243)" stroke="rgb(243,243,243)" stroke-width="1" opacity="1" d="M 79.5 50 L 80 53.5 L 79 53.5 L 79.5 50 Z " /><path fill="rgb(243,243,243)" stroke="rgb(243,243,243)" stroke-width="1" opacity="1" d="M 103.5 51 L 104 53.5 L 103 53.5 L 103.5 51 Z " /><path fill="rgb(243,243,243)" stroke="rgb(243,243,243)" stroke-width="1" opacity="1" d="M 110.5 58 L 111 60.5 L 109.5 63 L 109 61.5 L 110.5 58 Z " /><path fill="rgb(243,243,243)" stroke="rgb(243,243,243)" stroke-width="1" opacity="1" d="M 84.5 63 L 85.5 65 L 84.5 63 Z " /><path fill="rgb(243,243,243)" stroke="rgb(243,243,243)" stroke-width="1" opacity="1" d="M 88.5 63 L 95 63.5 L 88.5 64 L 88.5 63 Z " /><path fill="rgb(243,243,243)" stroke="rgb(243,243,243)" stroke-width="1" opacity="1" d="M 78.5 69 L 79 70.5 L 77 71.5 L 78.5 69 Z " /><path fill="rgb(243,243,243)" stroke="rgb(243,243,243)" stroke-width="1" opacity="1" d="M 114.5 72 L 116 75.5 L 115 75.5 L 114.5 72 Z " /><path fill="rgb(243,243,243)" stroke="rgb(243,243,243)" stroke-width="1" opacity="1" d="M 89.5 77 L 88.5 79 L 89.5 77 Z " /><path fill="rgb(243,243,243)" stroke="rgb(243,243,243)" stroke-width="1" opacity="1" d="M 74.5 78 L 75 79.5 L 72.5 83 L 73 81.5 L 74.5 78 Z " /><path fill="rgb(243,243,243)" stroke="rgb(243,243,243)" stroke-width="1" opacity="1" d="M 109.5 80 L 111 83.5 L 110 83.5 L 109.5 80 Z " /><path fill="rgb(243,243,243)" stroke="rgb(243,243,243)" stroke-width="1" opacity="1" d="M 120.5 86 L 121.5 88 L 120.5 86 Z " /><path fill="rgb(243,243,243)" stroke="rgb(243,243,243)" stroke-width="1" opacity="1" d="M 59.5 90 L 60.5 92 L 59.5 90 Z " /><path fill="rgb(243,243,243)" stroke="rgb(243,243,243)" stroke-width="1" opacity="1" d="M 117.5 98 L 119 100.5 L 117 99.5 L 117.5 98 Z " /><path fill="rgb(243,243,243)" stroke="rgb(243,243,243)" stroke-width="1" opacity="1" d="M 117.5 102 L 120 102.5 L 119 106 Q 122.8 104.5 122 107.5 L 123 109.5 L 121 110.5 L 122 108 Q 119.3 106.9 120 109.5 L 118 113 L 123.5 111 L 125 113.5 L 123.5 113 Q 120.9 112.2 122 115.5 L 122 117.5 L 123 119.5 L 121 120.5 L 117 111.5 L 120 107.5 L 117 105.5 L 117.5 102 Z " /><path fill="rgb(243,243,243)" stroke="rgb(243,243,243)" stroke-width="1" opacity="1" d="M 54.5 104 L 54 105.5 L 53.5 107 L 53 105.5 L 54.5 104 Z " /><path fill="rgb(243,243,243)" stroke="rgb(243,243,243)" stroke-width="1" opacity="1" d="M 68.5 104 L 69 105.5 L 67.5 108 L 67 106.5 L 68.5 104 Z " /><path fill="rgb(243,243,243)" stroke="rgb(243,243,243)" stroke-width="1" opacity="1" d="M 29.5 105 L 32 106.5 L 30 107 L 30.5 110 L 33 108.5 L 32.5 111 L 29.5 110 L 27.5 116 L 25.5 115 L 24 118.5 L 26.5 120 L 27.5 117 L 32 118 L 32 121 Q 29.3 119.9 30 122.5 L 29 122.5 L 30 120.5 Q 28.5 117.5 27 120.5 Q 27.8 123.1 24.5 122 L 22.5 123 Q 18.3 122.2 19 116.5 L 21 112 L 24.5 110 L 24.5 112 L 28 111.5 L 28 109.5 Q 26.9 106.2 29.5 107 L 29.5 105 Z M 24 112 L 23 116 L 25 115 L 24 112 Z M 23 116 L 21 118 Q 20 121 23 120 L 23 116 Z M 23 120 L 23 122 L 25 121 L 23 120 Z " /><path fill="rgb(243,243,243)" stroke="rgb(243,243,243)" stroke-width="1" opacity="1" d="M 115.5 106 L 116 108 L 118 108.5 L 116 109.5 L 115.5 106 Z " /><path fill="rgb(243,243,243)" stroke="rgb(243,243,243)" stroke-width="1" opacity="1" d="M 106 107 Q 109 105.8 108 109.5 L 108.5 111 L 106 109.5 L 105.5 111 L 105 109.5 L 106 107 Z " /><path fill="rgb(243,243,243)" stroke="rgb(243,243,243)" stroke-width="1" opacity="1" d="M 66.5 109 L 66 110.5 L 64 117 L 60 118 L 60.5 116 Q 62.3 118.8 64 114.5 L 61.5 113 L 59 113.5 L 58 116.5 L 58.5 118 L 57 118.5 L 57.5 120 L 56 117.5 L 59.5 112 L 61.5 111 Q 63.2 114.8 65 111.5 L 64.5 110 L 66.5 109 Z " /><path fill="rgb(243,243,243)" stroke="rgb(243,243,243)" stroke-width="1" opacity="1" d="M 99.5 110 L 102 110.5 L 99.5 111 L 99.5 110 Z " /><path fill="rgb(243,243,243)" stroke="rgb(243,243,243)" stroke-width="1" opacity="1" d="M 154.5 111 L 158 113.5 L 156 114.5 L 158 115.5 L 155 117.5 L 155.5 119 L 152.5 121 Q 151.3 123.3 150 120.5 L 149.5 119 L 148 121.5 Q 149 124 153.5 123 L 156 122 L 154.5 125 L 149.5 124 L 146 120.5 L 147 118 L 150.5 119 L 155 117 L 156 113.5 L 154.5 111 Z " /><path fill="rgb(243,243,243)" stroke="rgb(243,243,243)" stroke-width="1" opacity="1" d="M 125.5 115 L 129 124 L 126.5 123 L 125 123.5 L 124 118.5 L 125.5 115 Z " /><path fill="rgb(243,243,243)" stroke="rgb(243,243,243)" stroke-width="1" opacity="1" d="M 35 118 L 37 118.5 L 35.5 125 L 34 120.5 L 35 118 Z " /><path fill="rgb(243,243,243)" stroke="rgb(243,243,243)" stroke-width="1" opacity="1" d="M 44.5 118 L 43.5 120 L 44.5 118 Z " /><path fill="rgb(243,243,243)" stroke="rgb(243,243,243)" stroke-width="1" opacity="1" d="M 47.5 118 L 48 119.5 L 45.5 125 L 44 121.5 L 47.5 118 Z " /><path fill="rgb(243,243,243)" stroke="rgb(243,243,243)" stroke-width="1" opacity="1" d="M 75 118 Q 79 116.6 77 123.5 Q 75.5 126.5 74 123.5 L 75 118 Z " /><path fill="rgb(243,243,243)" stroke="rgb(243,243,243)" stroke-width="1" opacity="1" d="M 81 118 L 84 119.5 Q 85 124 82.5 125 L 80 123.5 L 81 118 Z M 83 119 L 82 122 L 83 122 L 83 119 Z " /><path fill="rgb(243,243,243)" stroke="rgb(243,243,243)" stroke-width="1" opacity="1" d="M 86.5 118 L 87 123.5 L 86 123.5 L 86.5 118 Z " /><path fill="rgb(243,243,243)" stroke="rgb(243,243,243)" stroke-width="1" opacity="1" d="M 136.5 118 L 137 120.5 L 136.5 122 L 135 119.5 L 136.5 118 Z " /><path fill="rgb(243,243,243)" stroke="rgb(243,243,243)" stroke-width="1" opacity="1" d="M 141.5 118 L 143 121.5 L 142 123.5 L 142.5 125 L 140.5 124 L 138.5 127 L 139 125.5 L 140 123.5 L 139 121.5 L 141.5 118 Z " /><path fill="rgb(243,243,243)" stroke="rgb(243,243,243)" stroke-width="1" opacity="1" d="M 60.5 119 L 62 119.5 L 59 121 L 58.5 123 L 58 121.5 L 60.5 119 Z " /><path fill="rgb(243,243,243)" stroke="rgb(243,243,243)" stroke-width="1" opacity="1" d="M 73.5 119 L 73 120.5 L 72.5 122 L 72 120.5 L 73.5 119 Z " /><path fill="rgb(243,243,243)" stroke="rgb(243,243,243)" stroke-width="1" opacity="1" d="M 89.5 119 L 91 122.5 L 88 124 Q 87 120.2 89.5 119 Z " /><path fill="rgb(243,243,243)" stroke="rgb(243,243,243)" stroke-width="1" opacity="1" d="M 97.5 119 Q 100.1 118.3 99 121 L 94.5 122 L 94 120 L 97.5 119 Z " /><path fill="rgb(243,243,243)" stroke="rgb(243,243,243)" stroke-width="1" opacity="1" d="M 108.5 119 L 108 120.5 L 109.5 123 Q 111.8 123.8 111 121.5 L 110.5 120 L 112.5 119 L 114 121.5 L 113.5 123 L 115 123.5 L 113.5 124 L 112 123.5 Q 112.8 126.1 109.5 125 L 106 120 L 108.5 119 Z " /><path fill="rgb(243,243,243)" stroke="rgb(243,243,243)" stroke-width="1" opacity="1" d="M 159 120 Q 162.8 119 164 121.5 L 162.5 125 L 159 123.5 L 159 120 Z " /><path fill="rgb(243,243,243)" stroke="rgb(243,243,243)" stroke-width="1" opacity="1" d="M 69.5 121 L 71 122.5 L 67.5 126 L 68 124.5 Q 67.3 122.3 69.5 123 L 69.5 121 Z " /><path fill="rgb(243,243,243)" stroke="rgb(243,243,243)" stroke-width="1" opacity="1" d="M 54 122 L 57 123.5 L 55 123.5 L 53.5 126 L 53 124.5 L 54 122 Z " /><path fill="rgb(243,243,243)" stroke="rgb(243,243,243)" stroke-width="1" opacity="1" d="M 25.5 123 L 26.5 125 L 24 124.5 L 25.5 123 Z " /><path fill="rgb(243,243,243)" stroke="rgb(243,243,243)" stroke-width="1" opacity="1" d="M 94.5 123 L 97 123.5 L 94 125 L 94.5 123 Z " /><path fill="rgb(243,243,243)" stroke="rgb(243,243,243)" stroke-width="1" opacity="1" d="M 44.5 126 L 43.5 128 L 44.5 126 Z " /><path fill="rgb(243,243,243)" stroke="rgb(243,243,243)" stroke-width="1" opacity="1" d="M 142.5 132 L 141.5 134 L 142.5 132 Z " /><path fill="rgb(243,243,243)" stroke="rgb(243,243,243)" stroke-width="1" opacity="1" d="M 44.5 144 L 45 145.5 L 43 146.5 L 44.5 144 Z " /><path fill="rgb(243,243,243)" stroke="rgb(243,243,243)" stroke-width="1" opacity="1" d="M 56.5 150 L 57 151.5 L 55 152.5 L 56.5 150 Z " /><path fill="rgb(243,243,243)" stroke="rgb(243,243,243)" stroke-width="1" opacity="1" d="M 126.5 152 Q 128.8 151.3 128 153.5 L 126.5 152 Z " /><path fill="rgb(243,243,243)" stroke="rgb(243,243,243)" stroke-width="1" opacity="1" d="M 45.5 157 L 45 158.5 L 44.5 160 L 44 158.5 L 45.5 157 Z " /><path fill="rgb(243,243,243)" stroke="rgb(243,243,243)" stroke-width="1" opacity="1" d="M 28.5 162 L 29 168.5 L 28 168.5 L 28.5 162 Z " /><path fill="rgb(243,243,243)" stroke="rgb(243,243,243)" stroke-width="1" opacity="1" d="M 154.5 162 L 155 169.5 L 154 169.5 L 154.5 162 Z " /><path fill="rgb(243,243,243)" stroke="rgb(243,243,243)" stroke-width="1" opacity="1" d="M 48.5 168 L 49 169.5 L 47 170.5 L 48.5 168 Z " /><path fill="rgb(243,243,243)" stroke="rgb(243,243,243)" stroke-width="1" opacity="1" d="M 36.5 200 L 39 200.5 L 36.5 201 L 36.5 200 Z " /><path fill="rgb(243,243,243)" stroke="rgb(243,243,243)" stroke-width="1" opacity="1" d="M 144.5 200 L 147 200.5 L 144.5 201 L 144.5 200 Z " /><path fill="rgb(254,254,253)" stroke="rgb(254,254,253)" stroke-width="1" opacity="1" d="M 77.5 16 L 80 16.5 L 77.5 17 L 77.5 16 Z " /><path fill="rgb(254,254,253)" stroke="rgb(254,254,253)" stroke-width="1" opacity="1" d="M 81.5 16 L 85 20.5 L 84 20.5 L 82.5 18 Q 79.7 18.7 81.5 16 Z " /><path fill="rgb(254,254,253)" stroke="rgb(254,254,253)" stroke-width="1" opacity="1" d="M 98.5 16 L 101 17.5 L 99.5 18 L 98 17.5 L 96.5 20 L 88 19.5 L 97 19 L 98.5 16 Z " /><path fill="rgb(254,254,253)" stroke="rgb(254,254,253)" stroke-width="1" opacity="1" d="M 102.5 16 L 103.5 18 L 102.5 16 Z " /><path fill="rgb(254,254,253)" stroke="rgb(254,254,253)" stroke-width="1" opacity="1" d="M 88.5 17 L 96 17.5 L 88.5 18 L 88.5 17 Z " /><path fill="rgb(254,254,253)" stroke="rgb(254,254,253)" stroke-width="1" opacity="1" d="M 72.5 18 L 73.5 20 L 72.5 18 Z " /><path fill="rgb(254,254,253)" stroke="rgb(254,254,253)" stroke-width="1" opacity="1" d="M 104.5 19 Q 107.8 20.8 108 25.5 L 105.5 29 L 105 27.5 L 106 24.5 Q 103 22.7 104.5 19 Z " /><path fill="rgb(254,254,253)" stroke="rgb(254,254,253)" stroke-width="1" opacity="1" d="M 75.5 20 L 77.5 21 L 79 20.5 L 77.5 23 L 75.5 20 Z " /><path fill="rgb(254,254,253)" stroke="rgb(254,254,253)" stroke-width="1" opacity="1" d="M 72.5 21 L 74 23.5 L 72 24.5 L 72 22.5 L 72.5 21 Z " /><path fill="rgb(254,254,253)" stroke="rgb(254,254,253)" stroke-width="1" opacity="1" d="M 75.5 24 L 77 26.5 L 75 27.5 L 75.5 24 Z " /><path fill="rgb(254,254,253)" stroke="rgb(254,254,253)" stroke-width="1" opacity="1" d="M 110.5 24 L 112 31.5 L 112 33.5 L 110.5 38 Q 107.3 36.3 111 34.5 Q 111.7 31.9 109 33 Q 110.1 35.7 107.5 35 L 105 33.5 L 106.5 33 Q 107.8 35.3 109 32.5 L 107 32 Q 106 29 109 30 L 109.5 32 L 111 28.5 L 110.5 24 Z " /><path fill="rgb(254,254,253)" stroke="rgb(254,254,253)" stroke-width="1" opacity="1" d="M 72.5 27 L 73.5 29 Q 70.7 29.7 72.5 27 Z " /><path fill="rgb(254,254,253)" stroke="rgb(254,254,253)" stroke-width="1" opacity="1" d="M 88.5 29 Q 95.3 27.2 97 30.5 L 95.5 34 L 95 32 L 91.5 33 L 88 31.5 L 96 30.5 L 88.5 30 L 88.5 29 Z " /><path fill="rgb(254,254,253)" stroke="rgb(254,254,253)" stroke-width="1" opacity="1" d="M 75.5 31 L 77 34.5 L 76 34.5 L 75.5 31 Z " /><path fill="rgb(254,254,253)" stroke="rgb(254,254,253)" stroke-width="1" opacity="1" d="M 74.5 34 L 75 36.5 L 74 36.5 L 74.5 34 Z " /><path fill="rgb(254,254,253)" stroke="rgb(254,254,253)" stroke-width="1" opacity="1" d="M 77.5 36 L 76.5 39 L 78 39.5 L 76.5 40 Q 73 38 77.5 36 Z " /><path fill="rgb(254,254,253)" stroke="rgb(254,254,253)" stroke-width="1" opacity="1" d="M 106.5 36 Q 108.8 36.8 108 40.5 L 107 40.5 L 106.5 36 Z " /><path fill="rgb(254,254,253)" stroke="rgb(254,254,253)" stroke-width="1" opacity="1" d="M 89.5 42 L 90.5 44 L 88 43.5 L 89.5 42 Z " /><path fill="rgb(254,254,253)" stroke="rgb(254,254,253)" stroke-width="1" opacity="1" d="M 93.5 42 L 92.5 44 L 93.5 42 Z " /><path fill="rgb(254,254,253)" stroke="rgb(254,254,253)" stroke-width="1" opacity="1" d="M 89.5 52 L 91 54.5 L 90 54.5 L 89.5 52 Z " /><path fill="rgb(254,254,253)" stroke="rgb(254,254,253)" stroke-width="1" opacity="1" d="M 101.5 52 L 102.5 54 L 101.5 52 Z " /><path fill="rgb(254,254,253)" stroke="rgb(254,254,253)" stroke-width="1" opacity="1" d="M 80.5 53 L 81 55.5 L 80 55.5 L 80.5 53 Z " /><path fill="rgb(254,254,253)" stroke="rgb(254,254,253)" stroke-width="1" opacity="1" d="M 111.5 56 L 112 58.5 L 111 58.5 L 111.5 56 Z " /><path fill="rgb(254,254,253)" stroke="rgb(254,254,253)" stroke-width="1" opacity="1" d="M 97.5 63 L 96.5 65 L 95 64.5 L 97.5 63 Z " /><path fill="rgb(254,254,253)" stroke="rgb(254,254,253)" stroke-width="1" opacity="1" d="M 91.5 64 L 94 65.5 L 92.5 65 L 91.5 64 Z " /><path fill="rgb(254,254,253)" stroke="rgb(254,254,253)" stroke-width="1" opacity="1" d="M 112 64 L 114 64.5 L 112 65.5 L 112 64 Z " /><path fill="rgb(254,254,253)" stroke="rgb(254,254,253)" stroke-width="1" opacity="1" d="M 115.5 64 L 117 66.5 L 115 65.5 L 115.5 64 Z " /><path fill="rgb(254,254,253)" stroke="rgb(254,254,253)" stroke-width="1" opacity="1" d="M 118.5 64 L 120 67.5 L 119 70.5 Q 121.3 71.8 118.5 73 L 118 67.5 L 118 65.5 L 118.5 64 Z " /><path fill="rgb(254,254,253)" stroke="rgb(254,254,253)" stroke-width="1" opacity="1" d="M 68.5 67 L 71 67.5 L 68.5 68 L 68.5 67 Z " /><path fill="rgb(254,254,253)" stroke="rgb(254,254,253)" stroke-width="1" opacity="1" d="M 65.5 68 L 69 69.5 L 68.5 72 Q 66.2 67.8 64 69.5 L 65.5 68 Z " /><path fill="rgb(254,254,253)" stroke="rgb(254,254,253)" stroke-width="1" opacity="1" d="M 65.5 72 L 66.5 74 L 65.5 72 Z " /><path fill="rgb(254,254,253)" stroke="rgb(254,254,253)" stroke-width="1" opacity="1" d="M 79.5 72 L 81.5 75 L 79.5 74 L 78 77.5 L 77.5 79 Q 74.8 77.8 77 76.5 L 79.5 72 Z " /><path fill="rgb(254,254,253)" stroke="rgb(254,254,253)" stroke-width="1" opacity="1" d="M 103 73 L 106 74.5 L 104 74.5 L 103.5 76 L 103 73 Z " /><path fill="rgb(254,254,253)" stroke="rgb(254,254,253)" stroke-width="1" opacity="1" d="M 91.5 76 L 93 78.5 L 91 77.5 L 91.5 76 Z " /><path fill="rgb(254,254,253)" stroke="rgb(254,254,253)" stroke-width="1" opacity="1" d="M 105.5 76 L 103.5 79 L 105.5 76 Z " /><path fill="rgb(254,254,253)" stroke="rgb(254,254,253)" stroke-width="1" opacity="1" d="M 64.5 78 L 65 79.5 L 62.5 81 L 62.5 80 Q 65 80.7 64.5 78 Z " /><path fill="rgb(254,254,253)" stroke="rgb(254,254,253)" stroke-width="1" opacity="1" d="M 59.5 80 Q 62.3 81.3 60 82.5 L 59.5 84 L 59 82.5 L 59.5 80 Z " /><path fill="rgb(254,254,253)" stroke="rgb(254,254,253)" stroke-width="1" opacity="1" d="M 91.5 80 L 92 83.5 L 91 83.5 L 91.5 80 Z " /><path fill="rgb(254,254,253)" stroke="rgb(254,254,253)" stroke-width="1" opacity="1" d="M 104.5 80 L 107.5 81 L 109 80.5 L 107.5 83 L 104.5 80 Z " /><path fill="rgb(254,254,253)" stroke="rgb(254,254,253)" stroke-width="1" opacity="1" d="M 122.5 80 L 123 82 L 120 81.5 L 122.5 80 Z " /><path fill="rgb(254,254,253)" stroke="rgb(254,254,253)" stroke-width="1" opacity="1" d="M 56 81 L 58 81.5 L 56 82.5 L 56 81 Z " /><path fill="rgb(254,254,253)" stroke="rgb(254,254,253)" stroke-width="1" opacity="1" d="M 87 83 L 92.5 86 L 98 86 L 99 92.5 L 98 95 L 96 94.5 L 98 91.5 L 95.5 87 L 93.5 87 L 90 87 L 90 85 Q 85.9 86.3 87 83 Z " /><path fill="rgb(254,254,253)" stroke="rgb(254,254,253)" stroke-width="1" opacity="1" d="M 121.5 83 L 123.5 86 Q 121.3 86.8 122 84.5 L 120 84.5 L 121.5 83 Z " /><path fill="rgb(254,254,253)" stroke="rgb(254,254,253)" stroke-width="1" opacity="1" d="M 107.5 84 L 110 85.5 L 108.5 86 L 107.5 84 Z " /><path fill="rgb(254,254,253)" stroke="rgb(254,254,253)" stroke-width="1" opacity="1" d="M 125.5 84 Q 127.8 83.3 127 85.5 L 125.5 84 Z " /><path fill="rgb(254,254,253)" stroke="rgb(254,254,253)" stroke-width="1" opacity="1" d="M 59.5 85 Q 61.8 84.3 61 86.5 L 59.5 85 Z " /><path fill="rgb(254,254,253)" stroke="rgb(254,254,253)" stroke-width="1" opacity="1" d="M 87.5 86 L 88.5 88 Q 85.7 88.7 87.5 86 Z " /><path fill="rgb(254,254,253)" stroke="rgb(254,254,253)" stroke-width="1" opacity="1" d="M 85.5 87 L 86 88.5 L 85.5 90 L 87 90.5 Q 85.5 93.5 84 90.5 L 85.5 87 Z " /><path fill="rgb(254,254,253)" stroke="rgb(254,254,253)" stroke-width="1" opacity="1" d="M 71.5 88 L 72.5 90 L 71.5 88 Z " /><path fill="rgb(254,254,253)" stroke="rgb(254,254,253)" stroke-width="1" opacity="1" d="M 125.5 88 L 128 88.5 Q 125.9 91.8 125.5 88 Z " /><path fill="rgb(254,254,253)" stroke="rgb(254,254,253)" stroke-width="1" opacity="1" d="M 74.5 90 L 72.5 93 L 71.5 91 L 74.5 90 Z " /><path fill="rgb(254,254,253)" stroke="rgb(254,254,253)" stroke-width="1" opacity="1" d="M 57 91 Q 60 90 59 93 Q 56 94 57 91 Z " /><path fill="rgb(254,254,253)" stroke="rgb(254,254,253)" stroke-width="1" opacity="1" d="M 109.5 92 L 113 93.5 L 110.5 94 L 109.5 92 Z " /><path fill="rgb(254,254,253)" stroke="rgb(254,254,253)" stroke-width="1" opacity="1" d="M 125.5 92 L 126.5 94 L 125.5 92 Z " /><path fill="rgb(254,254,253)" stroke="rgb(254,254,253)" stroke-width="1" opacity="1" d="M 83.5 94 L 86 94.5 Q 83.9 97.8 83.5 94 Z " /><path fill="rgb(254,254,253)" stroke="rgb(254,254,253)" stroke-width="1" opacity="1" d="M 69.5 95 L 70.5 97 L 69.5 95 Z " /><path fill="rgb(254,254,253)" stroke="rgb(254,254,253)" stroke-width="1" opacity="1" d="M 125.5 95 Q 128.8 93.9 128 96.5 L 126.5 96 L 125.5 95 Z " /><path fill="rgb(254,254,253)" stroke="rgb(254,254,253)" stroke-width="1" opacity="1" d="M 50.5 96 L 50.5 99 Q 47.5 97.5 50.5 96 Z " /><path fill="rgb(254,254,253)" stroke="rgb(254,254,253)" stroke-width="1" opacity="1" d="M 53.5 96 L 55.5 97 L 57 96.5 L 54.5 98 L 53.5 96 Z " /><path fill="rgb(254,254,253)" stroke="rgb(254,254,253)" stroke-width="1" opacity="1" d="M 82.5 96 L 83 98 L 81 97.5 L 82.5 96 Z " /><path fill="rgb(254,254,253)" stroke="rgb(254,254,253)" stroke-width="1" opacity="1" d="M 87.5 96 L 88 99 L 86 98.5 L 87.5 96 Z " /><path fill="rgb(254,254,253)" stroke="rgb(254,254,253)" stroke-width="1" opacity="1" d="M 96.5 97 Q 98.3 100.1 100 98.5 Q 100.7 101.5 97 100 L 96.5 97 Z " /><path fill="rgb(254,254,253)" stroke="rgb(254,254,253)" stroke-width="1" opacity="1" d="M 111.5 97 L 114 97.5 L 112.5 100 L 111.5 97 Z " /><path fill="rgb(254,254,253)" stroke="rgb(254,254,253)" stroke-width="1" opacity="1" d="M 48.5 99 L 49 101.5 L 48 101.5 L 48.5 99 Z " /><path fill="rgb(254,254,253)" stroke="rgb(254,254,253)" stroke-width="1" opacity="1" d="M 66.5 99 L 65.5 101 L 66.5 99 Z " /><path fill="rgb(254,254,253)" stroke="rgb(254,254,253)" stroke-width="1" opacity="1" d="M 102.5 99 L 103.5 101 Q 100.9 100.3 102 103 L 99.5 103 L 102.5 99 Z " /><path fill="rgb(254,254,253)" stroke="rgb(254,254,253)" stroke-width="1" opacity="1" d="M 128.5 99 Q 130.8 99.8 130 103.5 L 129 103.5 L 128.5 99 Z " /><path fill="rgb(254,254,253)" stroke="rgb(254,254,253)" stroke-width="1" opacity="1" d="M 52.5 100 L 53.5 102 L 52.5 100 Z " /><path fill="rgb(254,254,253)" stroke="rgb(254,254,253)" stroke-width="1" opacity="1" d="M 133.5 100 L 135 104.5 L 132 104.5 L 133.5 100 Z " /><path fill="rgb(254,254,253)" stroke="rgb(254,254,253)" stroke-width="1" opacity="1" d="M 86.5 103 L 88 103 L 88.5 105 L 95.5 105 L 98 103.5 Q 98.8 105.8 96.5 105 Q 94.8 107.8 88.5 106 Q 87 102.5 85.5 105 L 83 104.5 L 86.5 103 Z " /><path fill="rgb(254,254,253)" stroke="rgb(254,254,253)" stroke-width="1" opacity="1" d="M 19.5 104 Q 24.5 103.5 25 107.5 L 23.5 107 Q 19.5 106.5 19.5 104 Z " /><path fill="rgb(254,254,253)" stroke="rgb(254,254,253)" stroke-width="1" opacity="1" d="M 32.5 104 L 37.5 105 L 41.5 104 L 44.5 105 L 47 104 L 46.5 106 L 44.5 106 L 38.5 105 L 38.5 107 L 34 106 Q 32.9 108.7 35.5 108 L 35.5 109 L 33 107.5 L 34 105.5 L 32.5 104 Z " /><path fill="rgb(254,254,253)" stroke="rgb(254,254,253)" stroke-width="1" opacity="1" d="M 65.5 104 L 66.5 106 L 65.5 104 Z " /><path fill="rgb(254,254,253)" stroke="rgb(254,254,253)" stroke-width="1" opacity="1" d="M 146.5 104 L 152 105.5 L 150.5 106 L 146.5 105 L 146.5 104 Z " /><path fill="rgb(254,254,253)" stroke="rgb(254,254,253)" stroke-width="1" opacity="1" d="M 153.5 104 L 156 105.5 L 154.5 106 L 153.5 104 Z " /><path fill="rgb(254,254,253)" stroke="rgb(254,254,253)" stroke-width="1" opacity="1" d="M 80 105 L 82 105.5 L 78.5 108 L 78.5 107 Q 81.1 107.7 80 105 Z " /><path fill="rgb(254,254,253)" stroke="rgb(254,254,253)" stroke-width="1" opacity="1" d="M 99.5 105 L 99.5 107 Q 102.8 105.9 102 108.5 L 102.5 110 L 98 106.5 L 99.5 105 Z " /><path fill="rgb(254,254,253)" stroke="rgb(254,254,253)" stroke-width="1" opacity="1" d="M 16 106 L 20 108.5 L 18.5 111 L 16 106 Z " /><path fill="rgb(254,254,253)" stroke="rgb(254,254,253)" stroke-width="1" opacity="1" d="M 40.5 106 L 41.5 108 L 40.5 106 Z " /><path fill="rgb(254,254,253)" stroke="rgb(254,254,253)" stroke-width="1" opacity="1" d="M 83.5 106 L 86 106.5 L 83 108.5 L 83.5 106 Z " /><path fill="rgb(254,254,253)" stroke="rgb(254,254,253)" stroke-width="1" opacity="1" d="M 139.5 106 L 141 106.5 L 139 107.5 Q 141.3 108.8 138.5 110 L 136 110 Q 137.1 107.3 134.5 108 L 134.5 107 L 139.5 106 Z " /><path fill="rgb(254,254,253)" stroke="rgb(254,254,253)" stroke-width="1" opacity="1" d="M 43.5 107 L 44.5 109 Q 41.7 109.7 43.5 107 Z " /><path fill="rgb(254,254,253)" stroke="rgb(254,254,253)" stroke-width="1" opacity="1" d="M 93.5 107 L 96 107.5 L 93.5 108 L 93.5 107 Z " /><path fill="rgb(254,254,253)" stroke="rgb(254,254,253)" stroke-width="1" opacity="1" d="M 148.5 107 L 153 107.5 L 144.5 109 L 144.5 108 L 148.5 107 Z " /><path fill="rgb(254,254,253)" stroke="rgb(254,254,253)" stroke-width="1" opacity="1" d="M 37.5 108 L 39 111 L 37 110.5 L 37.5 108 Z " /><path fill="rgb(254,254,253)" stroke="rgb(254,254,253)" stroke-width="1" opacity="1" d="M 61.5 109 L 62.5 111 L 61.5 109 Z " /><path fill="rgb(254,254,253)" stroke="rgb(254,254,253)" stroke-width="1" opacity="1" d="M 88.5 109 L 96 110.5 L 92.5 111 L 88.5 110 L 87 110.5 L 88.5 109 Z " /><path fill="rgb(254,254,253)" stroke="rgb(254,254,253)" stroke-width="1" opacity="1" d="M 159.5 111 L 160 113 L 163 114.5 L 159.5 115 L 159 112.5 L 159.5 111 Z " /><path fill="rgb(254,254,253)" stroke="rgb(254,254,253)" stroke-width="1" opacity="1" d="M 25.5 116 L 26.5 120 Q 22 118 25.5 116 Z " /><path fill="rgb(254,254,253)" stroke="rgb(254,254,253)" stroke-width="1" opacity="1" d="M 124.5 116 L 123.5 118 L 124.5 116 Z " /><path fill="rgb(254,254,253)" stroke="rgb(254,254,253)" stroke-width="1" opacity="1" d="M 78.5 118 Q 81.3 119.3 79 120.5 Q 77.1 125.9 80.5 125 L 80.5 126 L 77.5 125 L 73.5 128 L 73.5 125 L 75.5 126 L 78 123.5 L 79 119.5 L 78.5 118 Z " /><path fill="rgb(254,254,253)" stroke="rgb(254,254,253)" stroke-width="1" opacity="1" d="M 85.5 118 L 86 120.5 Q 85 125.5 88 126.5 L 85.5 125 L 84.5 126 L 83 125.5 Q 85.8 124.7 85 120.5 Q 82.8 119.3 85.5 118 Z " /><path fill="rgb(254,254,253)" stroke="rgb(254,254,253)" stroke-width="1" opacity="1" d="M 160.5 118 Q 164.3 117.3 165 119.5 L 163.5 120 L 160.5 119 L 160.5 118 Z " /><path fill="rgb(254,254,253)" stroke="rgb(254,254,253)" stroke-width="1" opacity="1" d="M 18.5 119 L 21.5 125 L 26 127.5 L 24.5 128 L 19 123.5 L 18.5 119 Z " /><path fill="rgb(254,254,253)" stroke="rgb(254,254,253)" stroke-width="1" opacity="1" d="M 40.5 119 L 40.5 122 Q 37.5 120.5 40.5 119 Z " /><path fill="rgb(254,254,253)" stroke="rgb(254,254,253)" stroke-width="1" opacity="1" d="M 91.5 119 L 92.5 121 Q 89.7 121.7 91.5 119 Z " /><path fill="rgb(254,254,253)" stroke="rgb(254,254,253)" stroke-width="1" opacity="1" d="M 103 120 Q 106 118.8 105 122.5 L 105.5 124 L 103 123 L 103 120 Z " /><path fill="rgb(254,254,253)" stroke="rgb(254,254,253)" stroke-width="1" opacity="1" d="M 100.5 121 L 102 125 L 96.5 126 L 96.5 125 L 100 124 L 100.5 121 Z " /><path fill="rgb(254,254,253)" stroke="rgb(254,254,253)" stroke-width="1" opacity="1" d="M 157.5 121 L 158 125 L 160 125.5 L 159 128 L 156 127.5 L 157 124.5 L 157.5 121 Z " /><path fill="rgb(254,254,253)" stroke="rgb(254,254,253)" stroke-width="1" opacity="1" d="M 164.5 121 L 165 123.5 L 164 123.5 L 164.5 121 Z " /><path fill="rgb(254,254,253)" stroke="rgb(254,254,253)" stroke-width="1" opacity="1" d="M 32.5 122 Q 35 123 34 127.5 L 33 127.5 Q 34.5 123.1 31.5 124 Q 33.2 126 29.5 128 L 30 126.5 Q 29.5 122.5 32.5 122 Z " /><path fill="rgb(254,254,253)" stroke="rgb(254,254,253)" stroke-width="1" opacity="1" d="M 145.5 122 L 147.5 125 L 152 126 L 151.5 128 L 148.5 127 Q 147 129.5 141.5 128 L 141.5 127 Q 143.8 127.8 143 125.5 L 145.5 122 Z " /><path fill="rgb(254,254,253)" stroke="rgb(254,254,253)" stroke-width="1" opacity="1" d="M 39.5 123 L 40 125 L 42 125.5 L 40.5 129 L 38 125.5 L 39.5 123 Z " /><path fill="rgb(254,254,253)" stroke="rgb(254,254,253)" stroke-width="1" opacity="1" d="M 44.5 123 L 43.5 125 L 44.5 123 Z " /><path fill="rgb(254,254,253)" stroke="rgb(254,254,253)" stroke-width="1" opacity="1" d="M 70 123 L 72 123.5 L 70.5 126 L 70 123 Z " /><path fill="rgb(254,254,253)" stroke="rgb(254,254,253)" stroke-width="1" opacity="1" d="M 90.5 125 L 94 125.5 L 90.5 126 L 90.5 125 Z " /><path fill="rgb(254,254,253)" stroke="rgb(254,254,253)" stroke-width="1" opacity="1" d="M 107.5 125 L 111.5 126 L 113.5 125 L 115.5 128 L 112.5 126 L 112.5 128 L 108.5 127 L 107.5 125 Z " /><path fill="rgb(254,254,253)" stroke="rgb(254,254,253)" stroke-width="1" opacity="1" d="M 69.5 127 L 72 127.5 L 70.5 130 L 69.5 127 Z " /><path fill="rgb(254,254,253)" stroke="rgb(254,254,253)" stroke-width="1" opacity="1" d="M 52.5 129 L 55 133.5 L 54.5 136 Q 52.3 136.8 53 134.5 L 54 133.5 L 52 131.5 L 52.5 129 Z " /><path fill="rgb(254,254,253)" stroke="rgb(254,254,253)" stroke-width="1" opacity="1" d="M 128.5 129 L 131.5 134 L 133 134.5 L 131.5 135 L 129 131 L 127 131.5 L 127.5 133 Q 124 131 128.5 129 Z " /><path fill="rgb(254,254,253)" stroke="rgb(254,254,253)" stroke-width="1" opacity="1" d="M 51.5 133 L 52 134.5 L 49.5 136 L 49.5 135 Q 52 135.7 51.5 133 Z " /><path fill="rgb(254,254,253)" stroke="rgb(254,254,253)" stroke-width="1" opacity="1" d="M 67.5 133 L 66.5 135 L 67.5 133 Z " /><path fill="rgb(254,254,253)" stroke="rgb(254,254,253)" stroke-width="1" opacity="1" d="M 113.5 133 L 112.5 135 L 113.5 133 Z " /><path fill="rgb(254,254,253)" stroke="rgb(254,254,253)" stroke-width="1" opacity="1" d="M 142.5 134 L 143.5 136 L 142.5 134 Z " /><path fill="rgb(254,254,253)" stroke="rgb(254,254,253)" stroke-width="1" opacity="1" d="M 64.5 135 L 64 136.5 L 63.5 140 L 63 136.5 L 64.5 135 Z " /><path fill="rgb(254,254,253)" stroke="rgb(254,254,253)" stroke-width="1" opacity="1" d="M 32.5 136 L 33 138 L 35 137.5 L 34.5 136 L 39 139.5 L 36 139.5 L 36.5 138 L 33.5 139 L 32.5 136 Z " /><path fill="rgb(254,254,253)" stroke="rgb(254,254,253)" stroke-width="1" opacity="1" d="M 132.5 136 L 134.5 140 L 135.5 138 L 136 139.5 L 136 141.5 L 137 143.5 L 133.5 145 L 133 143 Q 136 144 135 141 L 132 140.5 L 133 137.5 L 132.5 136 Z " /><path fill="rgb(254,254,253)" stroke="rgb(254,254,253)" stroke-width="1" opacity="1" d="M 147.5 136 Q 152 138 148.5 140 L 147.5 136 Z " /><path fill="rgb(254,254,253)" stroke="rgb(254,254,253)" stroke-width="1" opacity="1" d="M 48.5 137 Q 52.3 135.8 51 139.5 L 50 139.5 Q 50.8 137.3 48.5 138 L 48.5 137 Z " /><path fill="rgb(254,254,253)" stroke="rgb(254,254,253)" stroke-width="1" opacity="1" d="M 129.5 137 Q 132.1 136.2 131 139.5 L 130 139.5 L 129.5 137 Z " /><path fill="rgb(254,254,253)" stroke="rgb(254,254,253)" stroke-width="1" opacity="1" d="M 33.5 140 L 34 142.5 L 32 143.5 L 33.5 140 Z " /><path fill="rgb(254,254,253)" stroke="rgb(254,254,253)" stroke-width="1" opacity="1" d="M 48.5 140 L 50 142.5 L 49 142.5 L 48.5 140 Z " /><path fill="rgb(254,254,253)" stroke="rgb(254,254,253)" stroke-width="1" opacity="1" d="M 61.5 141 Q 63.8 140.3 63 142.5 L 64 144.5 L 63 144.5 L 62.5 143 Q 61.3 145.3 60 142.5 L 61.5 141 Z " /><path fill="rgb(254,254,253)" stroke="rgb(254,254,253)" stroke-width="1" opacity="1" d="M 147.5 143 L 150 143.5 L 147.5 144 L 147.5 143 Z " /><path fill="rgb(254,254,253)" stroke="rgb(254,254,253)" stroke-width="1" opacity="1" d="M 32.5 145 L 35 146.5 L 33.5 147 L 32.5 145 Z " /><path fill="rgb(254,254,253)" stroke="rgb(254,254,253)" stroke-width="1" opacity="1" d="M 137.5 145 L 137 146.5 L 136.5 148 L 135.5 146 L 137.5 145 Z " /><path fill="rgb(254,254,253)" stroke="rgb(254,254,253)" stroke-width="1" opacity="1" d="M 149.5 145 L 152 145.5 L 151 147.5 L 152 149.5 L 151 149.5 L 149.5 147 L 148 147.5 L 149.5 145 Z " /><path fill="rgb(254,254,253)" stroke="rgb(254,254,253)" stroke-width="1" opacity="1" d="M 44.5 146 L 46 148.5 L 44 149 L 44.5 146 Z " /><path fill="rgb(254,254,253)" stroke="rgb(254,254,253)" stroke-width="1" opacity="1" d="M 59.5 146 L 61.5 146 L 64 146.5 L 63 150.5 L 63 152.5 Q 64.5 160.1 61 159 L 60.5 149 L 59 149.5 L 60 147.5 L 59.5 146 Z " /><path fill="rgb(254,254,253)" stroke="rgb(254,254,253)" stroke-width="1" opacity="1" d="M 46.5 150 L 48 150.5 L 44 153.5 Q 44.8 155.8 42.5 155 L 46.5 150 Z " /><path fill="rgb(254,254,253)" stroke="rgb(254,254,253)" stroke-width="1" opacity="1" d="M 29.5 152 L 30.5 154 L 29.5 152 Z " /><path fill="rgb(254,254,253)" stroke="rgb(254,254,253)" stroke-width="1" opacity="1" d="M 120.5 152 L 121 154.5 L 120 154.5 L 120.5 152 Z " /><path fill="rgb(254,254,253)" stroke="rgb(254,254,253)" stroke-width="1" opacity="1" d="M 152.5 152 L 157 153 L 156.5 155 L 154 154 L 155 156.5 L 153 157 L 152.5 152 Z " /><path fill="rgb(254,254,253)" stroke="rgb(254,254,253)" stroke-width="1" opacity="1" d="M 159.5 152 L 160 154.5 L 159 154.5 L 159.5 152 Z " /><path fill="rgb(254,254,253)" stroke="rgb(254,254,253)" stroke-width="1" opacity="1" d="M 26 153 L 28 153.5 L 26 154.5 L 26 153 Z " /><path fill="rgb(254,254,253)" stroke="rgb(254,254,253)" stroke-width="1" opacity="1" d="M 28 155 Q 31 154 30 157 Q 27 158 28 155 Z " /><path fill="rgb(254,254,253)" stroke="rgb(254,254,253)" stroke-width="1" opacity="1" d="M 125.5 155 L 126.5 157 Q 123.7 157.7 125.5 155 Z " /><path fill="rgb(254,254,253)" stroke="rgb(254,254,253)" stroke-width="1" opacity="1" d="M 41.5 156 L 42 158 L 40 157.5 L 41.5 156 Z " /><path fill="rgb(254,254,253)" stroke="rgb(254,254,253)" stroke-width="1" opacity="1" d="M 121 156 Q 124 155 123 158 Q 120.3 156.9 121 159.5 L 120 159.5 L 121 156 Z " /><path fill="rgb(254,254,253)" stroke="rgb(254,254,253)" stroke-width="1" opacity="1" d="M 138.5 156 L 140.5 160 L 142 159.5 L 140.5 162 L 138.5 156 Z " /><path fill="rgb(254,254,253)" stroke="rgb(254,254,253)" stroke-width="1" opacity="1" d="M 24.5 157 L 25.5 159 L 27.5 158 L 27.5 159 L 24.5 161 L 24 158.5 L 24.5 157 Z " /><path fill="rgb(254,254,253)" stroke="rgb(254,254,253)" stroke-width="1" opacity="1" d="M 143.5 158 L 144.5 160 L 143.5 158 Z " /><path fill="rgb(254,254,253)" stroke="rgb(254,254,253)" stroke-width="1" opacity="1" d="M 154.5 158 L 155 160 L 157 160.5 L 155.5 163 L 154.5 158 Z " /><path fill="rgb(254,254,253)" stroke="rgb(254,254,253)" stroke-width="1" opacity="1" d="M 38.5 159 Q 40.8 158.3 40 160.5 L 38.5 159 Z " /><path fill="rgb(254,254,253)" stroke="rgb(254,254,253)" stroke-width="1" opacity="1" d="M 43.5 160 L 42.5 164 Q 39 162 43.5 160 Z " /><path fill="rgb(254,254,253)" stroke="rgb(254,254,253)" stroke-width="1" opacity="1" d="M 25.5 162 L 26 164.5 L 25 164.5 L 25.5 162 Z " /><path fill="rgb(254,254,253)" stroke="rgb(254,254,253)" stroke-width="1" opacity="1" d="M 54 162 Q 57 161 56 164 Q 53 165 54 162 Z " /><path fill="rgb(254,254,253)" stroke="rgb(254,254,253)" stroke-width="1" opacity="1" d="M 158.5 163 L 159 169.5 L 158 169.5 L 158.5 163 Z " /><path fill="rgb(254,254,253)" stroke="rgb(254,254,253)" stroke-width="1" opacity="1" d="M 128.5 164 L 130 166.5 L 128 165.5 L 128.5 164 Z " /><path fill="rgb(254,254,253)" stroke="rgb(254,254,253)" stroke-width="1" opacity="1" d="M 130.5 164 L 133 165 Q 134 168 131 167 L 130.5 164 Z " /><path fill="rgb(254,254,253)" stroke="rgb(254,254,253)" stroke-width="1" opacity="1" d="M 143.5 164 L 145 164.5 L 143 165.5 L 145 168.5 L 143 169.5 L 144 167.5 Q 140.3 165.8 143.5 164 Z " /><path fill="rgb(254,254,253)" stroke="rgb(254,254,253)" stroke-width="1" opacity="1" d="M 50.5 165 Q 55.8 163.3 54 168.5 L 53 168.5 Q 54.3 164.8 50.5 166 L 50.5 165 Z " /><path fill="rgb(254,254,253)" stroke="rgb(254,254,253)" stroke-width="1" opacity="1" d="M 25.5 166 L 29 171.5 L 26.5 170 L 25 171.5 L 24.5 173 L 24 168.5 L 25.5 166 Z M 25 168 L 25 170 L 27 169 L 25 168 Z " /><path fill="rgb(254,254,253)" stroke="rgb(254,254,253)" stroke-width="1" opacity="1" d="M 156.5 167 L 157 169.5 L 154.5 171 L 154.5 170 Q 157.4 170.7 156.5 167 Z " /><path fill="rgb(254,254,253)" stroke="rgb(254,254,253)" stroke-width="1" opacity="1" d="M 51.5 168 L 56 175.5 L 55 175.5 Q 55.8 173.3 53.5 174 Q 52 170.5 50.5 173 L 48 172.5 L 48.5 170 Q 50.8 169.3 50 171.5 L 51 171.5 L 51.5 168 Z " /><path fill="rgb(254,254,253)" stroke="rgb(254,254,253)" stroke-width="1" opacity="1" d="M 129.5 168 L 131 171 Q 127.5 172.1 129.5 168 Z " /><path fill="rgb(254,254,253)" stroke="rgb(254,254,253)" stroke-width="1" opacity="1" d="M 132.5 170 Q 134.8 169.3 134 171.5 L 132.5 170 Z " /><path fill="rgb(254,254,253)" stroke="rgb(254,254,253)" stroke-width="1" opacity="1" d="M 155.5 172 L 153.5 175 L 153 173 L 155.5 172 Z " /><path fill="rgb(254,254,253)" stroke="rgb(254,254,253)" stroke-width="1" opacity="1" d="M 157 172 Q 159.7 170.9 159 173.5 L 160 175.5 L 159 175.5 L 158.5 174 L 157.5 176 L 157 172 Z " /><path fill="rgb(254,254,253)" stroke="rgb(254,254,253)" stroke-width="1" opacity="1" d="M 29.5 173 L 30 175.5 L 28 175.5 L 26.5 179 L 25 178.5 L 29.5 173 Z " /><path fill="rgb(254,254,253)" stroke="rgb(254,254,253)" stroke-width="1" opacity="1" d="M 29.5 177 L 32 182 L 30 181.5 L 30.5 180 Q 27.4 180.7 29.5 177 Z " /><path fill="rgb(254,254,253)" stroke="rgb(254,254,253)" stroke-width="1" opacity="1" d="M 49 177 L 55 177 L 55 191 L 48.5 191 L 47 192.5 L 48 196.5 L 46.5 199 L 45 197.5 L 46.5 195 L 43.5 197 L 45 194.5 L 43.5 193 L 42.5 195 L 41.5 193 L 43 192.5 L 42 190.5 L 45 191.5 L 46 189.5 L 44.5 186 L 42.5 189 L 41.5 187 L 43 187.5 L 44.5 185 L 46.5 186 L 48 182.5 L 46 181.5 L 47.5 181 L 49 181.5 L 49 177 Z " /><path fill="rgb(254,254,253)" stroke="rgb(254,254,253)" stroke-width="1" opacity="1" d="M 45.5 178 L 46 179.5 L 44 180.5 L 45.5 178 Z " /><path fill="rgb(254,254,253)" stroke="rgb(254,254,253)" stroke-width="1" opacity="1" d="M 25.5 180 L 26.5 182 L 25.5 180 Z " /><path fill="rgb(254,254,253)" stroke="rgb(254,254,253)" stroke-width="1" opacity="1" d="M 138.5 181 L 142 185.5 L 140.5 188 L 139.5 186 L 141 185.5 L 139.5 184 L 136 186.5 L 137.5 184 Q 139.8 184.8 139 182.5 L 138.5 181 Z " /><path fill="rgb(254,254,253)" stroke="rgb(254,254,253)" stroke-width="1" opacity="1" d="M 150.5 184 L 151 187.5 L 150 187.5 L 150.5 184 Z " /><path fill="rgb(254,254,253)" stroke="rgb(254,254,253)" stroke-width="1" opacity="1" d="M 33.5 186 L 34 189.5 L 33 192.5 L 33.5 194 Q 30.8 194.6 32 188.5 L 33.5 186 Z " /><path fill="rgb(254,254,253)" stroke="rgb(254,254,253)" stroke-width="1" opacity="1" d="M 138.5 188 L 139 190.5 L 137 189.5 L 138.5 188 Z " /><path fill="rgb(254,254,253)" stroke="rgb(254,254,253)" stroke-width="1" opacity="1" d="M 139.5 192 L 138.5 194 L 139.5 192 Z " /><path fill="rgb(254,254,253)" stroke="rgb(254,254,253)" stroke-width="1" opacity="1" d="M 140.5 195 L 142 197.5 L 141.5 200 Q 139.3 200.8 140 198.5 L 139 196.5 L 140.5 195 Z " /><path fill="rgb(254,254,253)" stroke="rgb(254,254,253)" stroke-width="1" opacity="1" d="M 32.5 196 Q 35.3 197.3 33 198.5 L 32.5 200 L 32 198.5 L 32.5 196 Z " /><path fill="rgb(254,254,253)" stroke="rgb(254,254,253)" stroke-width="1" opacity="1" d="M 137.5 196 L 137 197.5 Q 136.3 199.8 138.5 199 L 138.5 200 L 136 198.5 L 137.5 196 Z " /><path fill="rgb(254,254,253)" stroke="rgb(254,254,253)" stroke-width="1" opacity="1" d="M 41.5 198 L 42.5 200 L 44.5 199 L 44 200.5 L 42.5 204 Q 38.8 205.3 40 201.5 L 39.5 200 Q 42 200.7 41.5 198 Z " /><path fill="rgb(254,254,253)" stroke="rgb(254,254,253)" stroke-width="1" opacity="1" d="M 149 200 Q 152 199 151 202 Q 148 203 149 200 Z " /><path fill="rgb(254,254,253)" stroke="rgb(254,254,253)" stroke-width="1" opacity="1" d="M 33 201 Q 36 199.8 35 203.5 Q 32.2 205.3 36.5 207 L 39.5 205 L 37.5 208 L 33.5 207 L 32 207.5 L 33 205.5 L 32.5 204 L 34 203.5 L 33 201 Z " /><path fill="rgb(254,254,253)" stroke="rgb(254,254,253)" stroke-width="1" opacity="1" d="M 146.5 202 Q 149.1 201.3 148 204 L 144.5 205 L 144 203 L 146.5 202 Z " /><path fill="rgb(254,254,253)" stroke="rgb(254,254,253)" stroke-width="1" opacity="1" d="M 37 203 L 39 203.5 L 37 204.5 L 37 203 Z " /><path fill="rgb(254,254,253)" stroke="rgb(254,254,253)" stroke-width="1" opacity="1" d="M 148.5 205 L 150.5 208 L 146.5 207 L 145 207.5 Q 144.2 204.9 147.5 206 L 148.5 205 Z " /><path fill="rgb(255,255,255)" stroke="rgb(255,255,255)" stroke-width="1" opacity="1" d="M 0 0 L 185 0 L 185 212 L 0 212 L 0 0 Z M 77 16 L 77 17 L 80 17 L 77 16 Z M 82 16 Q 80 19 83 18 L 82 16 Z M 99 16 L 97 18 L 98 19 L 101 18 L 99 16 Z M 74 17 L 73 20 L 75 20 L 76 18 L 74 17 Z M 89 17 L 89 18 L 96 18 L 89 17 Z M 76 18 L 75 22 L 78 23 L 80 20 L 78 21 L 77 19 L 79 19 L 76 18 Z M 84 18 L 84 20 L 84 21 L 81 19 L 81 21 L 78 24 L 78 36 L 77 32 L 76 38 L 78 37 L 78 39 L 76 38 L 75 40 Q 77 41 75 42 Q 72 41 73 44 L 75 44 L 72 45 L 72 62 L 73 63 L 72 65 L 70 64 L 71 67 L 68 67 L 68 69 L 66 67 L 65 67 Q 65 71 68 71 L 69 69 L 70 69 L 68 72 Q 69 74 67 73 L 67 75 L 66 77 Q 67 79 64 78 L 65 81 L 61 89 Q 57 90 60 92 L 60 93 L 58 89 L 56 90 L 59 95 L 58 97 L 55 96 L 53 97 L 57 99 Q 56 101 55 99 L 54 101 L 56 102 L 53 107 Q 50 108 52 110 L 50 108 L 49 108 Q 50 110 46 109 L 46 111 Q 42 112 43 109 L 38 110 L 33 110 L 38 109 L 38 108 Q 33 109 34 106 L 32 106 L 34 105 L 32 104 L 30 104 L 27 105 L 25 105 L 27 108 Q 29 109 27 110 L 24 109 L 21 110 L 18 116 L 19 124 L 24 127 L 30 125 L 31 127 Q 33 126 31 125 L 33 124 L 34 128 L 34 126 L 37 127 L 39 126 L 41 129 L 42 127 Q 43 124 40 125 L 39 122 L 39 120 L 40 118 L 42 121 L 42 120 L 42 118 Q 44 117 43 121 L 43 122 Q 45 121 44 124 L 42 125 L 44 125 Q 45 128 43 127 L 43 129 L 38 142 L 35 143 L 36 146 L 35 145 L 33 148 L 35 148 L 34 150 L 33 149 L 32 149 L 33 152 L 31 156 L 29 153 Q 25 151 26 155 L 28 154 L 28 157 L 30 158 L 29 161 L 27 161 L 28 163 L 27 165 L 28 167 L 26 170 Q 27 172 29 170 L 28 172 L 28 175 L 31 179 L 32 180 L 30 178 L 29 178 L 30 181 Q 29 183 32 182 L 33 186 L 32 189 Q 31 194 34 196 L 33 198 L 34 200 Q 35 202 39 202 L 40 202 Q 39 205 43 204 L 44 201 L 45 199 L 43 200 L 41 196 L 42 196 Q 41 198 44 197 L 43 196 L 44 193 L 44 196 L 46 196 L 45 198 L 47 200 L 48 197 L 47 195 L 48 193 L 49 191 L 55 191 L 55 177 L 49 177 L 49 182 L 46 184 L 47 186 L 46 185 L 44 186 Q 46 187 45 192 L 44 192 Q 45 189 42 190 L 42 193 L 41 189 L 44 188 L 44 186 L 41 187 L 43 181 L 45 181 L 46 179 L 44 179 L 45 177 L 48 174 Q 46 172 49 171 L 49 173 L 52 172 L 55 174 L 53 170 Q 56 168 54 167 Q 55 164 53 165 L 54 163 L 54 165 L 56 164 Q 57 161 55 162 L 53 162 L 53 161 Q 52 157 56 158 L 55 157 L 59 147 L 59 150 L 61 149 L 60 151 L 61 152 L 61 159 Q 64 160 63 153 L 64 150 L 63 148 Q 65 146 63 145 Q 60 144 61 147 L 59 146 L 60 144 Q 61 141 63 143 L 63 141 L 61 141 L 63 138 L 63 140 L 64 140 L 63 136 L 66 134 Q 67 136 68 134 L 67 133 L 66 131 L 68 132 L 68 130 L 66 130 L 69 129 L 68 128 L 69 126 L 70 128 L 70 127 L 73 125 L 74 128 L 78 125 L 85 126 Q 86 123 88 127 L 89 126 Q 97 127 102 125 L 101 121 Q 103 116 105 120 L 104 119 L 103 123 L 107 124 L 109 127 L 113 126 L 117 130 L 114 131 L 118 131 L 120 138 Q 123 139 121 141 L 123 144 L 122 147 L 124 148 L 123 148 Q 121 146 120 149 L 123 149 L 125 149 L 129 158 Q 128 162 131 161 L 132 164 L 131 167 L 134 168 L 133 170 Q 131 171 134 172 L 135 170 L 136 173 L 135 176 L 138 175 L 136 178 L 139 178 L 138 180 L 140 181 L 139 181 L 137 181 Q 136 183 139 182 L 142 187 L 142 190 L 142 192 L 141 194 L 142 196 L 141 198 L 146 203 Q 143 202 144 205 L 146 204 Q 149 205 148 203 L 147 202 L 150 199 L 149 198 L 151 198 L 149 195 L 151 188 L 150 184 L 152 183 L 151 182 L 152 180 L 152 176 Q 155 177 154 175 L 154 173 L 155 171 L 155 173 L 156 173 L 155 170 L 156 166 L 156 170 L 157 170 Q 159 164 155 165 L 157 160 L 155 161 L 155 160 L 154 156 Q 153 153 156 154 L 157 157 L 157 153 L 153 152 L 150 150 L 151 148 L 150 145 L 149 147 L 145 142 L 146 140 L 145 139 L 145 138 L 144 137 Q 145 135 141 133 L 143 133 Q 144 130 141 131 L 138 126 L 139 124 L 141 127 L 142 125 L 143 127 Q 140 126 141 129 L 144 129 L 149 127 L 152 128 L 152 126 L 155 127 L 158 125 L 157 128 L 159 128 L 160 126 L 164 126 L 165 122 L 164 118 L 158 118 L 158 121 L 157 121 L 159 117 Q 161 118 160 115 L 163 115 L 162 113 L 159 114 L 159 116 L 157 115 L 158 113 Q 156 114 154 111 L 156 111 L 158 111 L 156 109 L 145 111 L 140 110 L 140 109 Q 139 106 135 107 L 136 110 L 133 108 L 132 110 L 133 111 L 130 108 L 131 106 L 129 106 L 130 101 L 127 99 L 126 97 L 128 97 L 128 95 L 124 94 L 125 90 L 123 91 L 123 90 L 120 86 L 122 85 L 124 89 L 124 86 Q 122 81 121 84 Q 118 85 119 83 L 117 79 L 118 77 L 119 75 Q 116 74 117 77 L 116 77 L 117 75 L 116 74 L 117 72 L 117 69 L 115 72 L 113 70 L 114 65 L 110 63 L 112 57 L 112 55 L 111 53 L 112 50 L 112 48 L 111 47 L 111 46 L 108 44 L 106 39 L 106 37 L 107 41 L 109 40 L 107 36 Q 104 37 105 34 L 109 35 Q 110 31 105 33 Q 104 28 108 26 L 107 22 L 104 19 L 104 21 L 104 22 L 103 21 L 102 21 L 87 21 L 85 20 Q 86 17 84 18 Z M 89 19 L 89 20 L 97 20 L 89 19 Z M 73 21 L 72 23 L 74 24 L 73 21 Z M 76 24 L 75 28 L 77 27 L 76 24 Z M 111 24 L 110 28 L 111 28 L 111 24 Z M 73 27 Q 71 30 74 29 L 73 27 Z M 112 28 L 111 31 L 110 33 L 112 32 L 112 28 Z M 107 30 Q 106 33 109 32 Q 110 29 107 30 Z M 75 34 L 74 37 L 75 37 L 75 34 Z M 111 35 L 109 37 L 111 38 L 111 35 Z M 74 38 L 73 41 L 75 41 L 74 38 Z M 116 64 L 115 66 L 117 67 L 116 64 Z M 120 66 L 118 68 Q 119 72 117 74 L 120 74 L 119 71 L 120 68 L 120 66 Z M 115 67 L 114 70 L 115 70 L 115 67 Z M 63 80 L 61 81 L 61 82 L 64 81 L 63 80 Z M 123 80 L 119 82 L 123 82 L 123 80 Z M 56 81 L 56 83 L 58 82 L 56 81 Z M 60 82 L 58 85 L 60 84 L 60 82 Z M 125 82 L 126 88 L 127 88 Q 128 83 125 82 Z M 59 85 Q 58 88 61 87 Q 62 84 59 85 Z M 58 87 L 59 89 Q 60 86 58 87 Z M 126 92 L 127 94 Q 128 91 126 92 Z M 51 96 L 49 98 Q 48 100 51 99 L 52 97 L 51 96 Z M 53 98 L 52 101 L 53 101 L 53 98 Z M 49 99 L 48 102 L 49 102 L 49 99 Z M 134 100 L 133 104 L 135 105 L 134 100 Z M 54 101 L 52 103 L 54 103 L 54 101 Z M 20 104 Q 20 107 25 108 L 25 106 L 20 104 Z M 39 104 L 39 105 L 42 105 L 39 104 Z M 46 104 L 42 106 L 47 106 Q 48 103 46 104 Z M 147 104 L 147 105 L 150 105 L 147 104 Z M 154 104 L 151 105 L 151 106 L 158 106 L 154 104 Z M 35 105 L 37 107 L 39 107 Q 38 104 35 105 Z M 52 105 L 50 107 L 52 107 L 52 105 Z M 136 105 L 136 106 L 138 106 L 136 105 Z M 16 106 L 19 111 L 20 109 L 16 106 Z M 41 106 Q 39 109 42 108 L 41 106 Z M 140 106 L 140 107 L 147 107 L 140 106 Z M 44 107 Q 42 110 45 109 L 44 107 Z M 149 107 Q 147 109 143 108 L 143 109 L 157 108 L 149 107 Z M 70 130 L 69 133 L 70 133 L 70 130 Z M 114 131 L 112 135 L 113 136 L 115 135 L 114 131 Z M 117 132 L 116 135 L 117 135 L 117 132 Z M 35 136 L 38 139 L 38 137 L 35 136 Z M 150 136 L 148 140 L 150 139 L 150 136 Z M 33 138 L 32 143 L 33 144 L 35 143 L 34 142 L 35 139 L 33 138 Z M 148 143 Q 148 147 150 144 L 148 143 Z M 121 150 L 122 152 Q 123 149 121 150 Z M 123 151 L 124 154 L 125 152 L 123 151 Z M 121 152 L 120 155 L 121 155 L 121 152 Z M 160 152 L 159 155 L 160 155 L 160 152 Z M 126 155 Q 124 158 127 157 L 126 155 Z M 159 155 L 158 159 L 160 159 L 159 155 Z M 121 156 Q 120 159 123 158 Q 124 155 121 156 Z M 28 157 L 26 160 L 28 159 L 28 157 Z M 26 162 L 25 165 L 26 165 L 26 162 Z M 159 163 L 158 170 L 159 170 L 159 163 Z M 26 166 Q 24 169 27 168 L 26 166 Z M 25 168 L 25 173 L 26 171 L 25 168 Z M 130 168 Q 127 172 131 171 L 130 168 Z M 27 172 L 26 175 L 27 175 L 27 172 Z M 157 172 L 156 176 L 158 176 L 159 174 Q 160 171 157 172 Z M 132 173 L 131 176 L 132 176 L 132 173 Z M 28 175 L 25 179 L 26 181 L 28 178 L 28 175 Z M 47 180 Q 45 183 48 182 L 47 180 Z M 27 181 L 26 184 L 27 184 L 27 181 Z M 29 181 L 28 184 L 30 184 L 29 181 Z M 45 182 L 44 184 L 46 183 L 45 182 Z M 138 183 L 136 186 L 137 187 Q 141 185 138 183 Z M 139 186 Q 138 189 141 188 Q 142 185 139 186 Z M 139 188 L 137 190 L 139 191 L 139 188 Z M 137 193 L 137 195 L 139 194 L 137 193 Z M 139 195 L 139 199 L 142 200 L 140 198 L 141 196 L 139 195 Z M 151 199 L 149 201 Q 148 203 151 202 L 151 199 Z M 33 201 L 33 203 L 35 204 Q 36 200 33 201 Z M 37 203 L 37 205 L 39 204 L 37 203 Z M 33 204 L 33 207 L 36 207 L 33 204 Z M 40 205 L 38 207 L 40 207 L 40 205 Z M 149 205 L 148 206 Q 144 205 145 208 L 147 207 L 151 208 L 149 205 Z " /><path fill="rgb(255,255,255)" stroke="rgb(255,255,255)" stroke-width="1" opacity="1" d="M 105.5 24 L 106 26.5 L 105 26.5 L 105.5 24 Z " /><path fill="rgb(255,255,255)" stroke="rgb(255,255,255)" stroke-width="1" opacity="1" d="M 86.5 29 L 95.5 30 L 97 29.5 L 97 31.5 L 96.5 34 L 96 31 L 87 31.5 L 91.5 33 L 94.5 32 L 94.5 33 L 91.5 34 L 86 33 L 87 30.5 L 86.5 29 Z " /><path fill="rgb(255,255,255)" stroke="rgb(255,255,255)" stroke-width="1" opacity="1" d="M 91 42 L 93 42.5 L 91 43.5 L 91 42 Z " /><path fill="rgb(255,255,255)" stroke="rgb(255,255,255)" stroke-width="1" opacity="1" d="M 85.5 43 L 86.5 45 Q 84.8 42.2 83 46.5 L 81 52.5 L 82 54.5 L 81 54.5 L 80 51.5 L 81 47.5 L 85.5 43 Z " /><path fill="rgb(255,255,255)" stroke="rgb(255,255,255)" stroke-width="1" opacity="1" d="M 96.5 43 L 102 47.5 L 99.5 46 L 96.5 43 Z " /><path fill="rgb(255,255,255)" stroke="rgb(255,255,255)" stroke-width="1" opacity="1" d="M 90.5 51 L 91.5 53 L 93.5 52 L 93.5 53 L 92 53 Q 93.5 56.8 90.5 56 L 89.5 54 L 91 54.5 L 90.5 51 Z " /><path fill="rgb(255,255,255)" stroke="rgb(255,255,255)" stroke-width="1" opacity="1" d="M 81.5 56 L 82 58.5 Q 81.3 60.8 83.5 60 L 83.5 62 L 87 63.5 L 85.5 64 L 82 61.5 L 80 57.5 L 81.5 56 Z " /><path fill="rgb(255,255,255)" stroke="rgb(255,255,255)" stroke-width="1" opacity="1" d="M 102.5 56 L 103 57.5 L 100 59.5 L 102.5 56 Z " /><path fill="rgb(255,255,255)" stroke="rgb(255,255,255)" stroke-width="1" opacity="1" d="M 97.5 62 L 98.5 64 L 96 63.5 L 97.5 62 Z " /><path fill="rgb(255,255,255)" stroke="rgb(255,255,255)" stroke-width="1" opacity="1" d="M 89.5 64 L 92.5 65 L 94.5 64 L 94.5 65 L 91.5 66 L 89.5 64 Z " /><path fill="rgb(255,255,255)" stroke="rgb(255,255,255)" stroke-width="1" opacity="1" d="M 103.5 69 L 107 74.5 L 105 74.5 L 105.5 77 L 107 76.5 L 106 78.5 L 108 79 L 109 84 L 106.5 83 L 106 84.5 L 106.5 86 L 105 83.5 L 105.5 82 L 104 81.5 L 105.5 81 L 108 82.5 L 105.5 79 L 104 79.5 Q 104.8 77.3 102.5 78 Q 104.1 76.3 101 74.5 L 100 71.5 L 101 71.5 L 101.5 73 L 103.5 69 Z M 103 73 L 104 76 L 105 74 L 103 73 Z " /><path fill="rgb(255,255,255)" stroke="rgb(255,255,255)" stroke-width="1" opacity="1" d="M 80.5 71 L 82 73.5 L 81 73.5 L 80.5 71 Z " /><path fill="rgb(255,255,255)" stroke="rgb(255,255,255)" stroke-width="1" opacity="1" d="M 79.5 74 L 82 75.5 L 78.5 76 L 79.5 74 Z " /><path fill="rgb(255,255,255)" stroke="rgb(255,255,255)" stroke-width="1" opacity="1" d="M 91.5 74 L 94 77.5 L 92 78 L 91.5 75 L 90.5 77 L 90 75.5 L 91.5 74 Z " /><path fill="rgb(255,255,255)" stroke="rgb(255,255,255)" stroke-width="1" opacity="1" d="M 78.5 77 L 80 79.5 L 77 83.5 Q 79.3 84.8 76.5 86 Q 75.3 83.8 74 86.5 L 74.5 88 L 76 87.5 Q 76.7 90.1 74 89 L 74 91 L 71 91 L 71 93 L 73 93.5 L 71 97.5 Q 71.8 99.8 69.5 99 L 69.5 101 L 68 101.5 L 69 103.5 L 66 105.5 L 67 107.5 L 64 109.5 L 63.5 108 L 61.5 111 L 62 109.5 L 61 107.5 L 65 105.5 L 63.5 103 Q 65.8 103.8 65 101.5 L 65.5 99 L 68 100 Q 69.1 97.3 66.5 98 L 66.5 97 L 69 96.5 L 67 94.5 L 71 90.5 L 70 88.5 L 72.5 85 L 74 85.5 L 73 82.5 L 75 81.5 L 74 83.5 L 77 81.5 L 75 78.5 L 76.5 79 Q 79 79.7 78.5 77 Z M 73 86 L 71 89 L 73 90 L 73 86 Z M 66 106 L 64 108 L 66 108 L 66 106 Z " /><path fill="rgb(255,255,255)" stroke="rgb(255,255,255)" stroke-width="1" opacity="1" d="M 90.5 78 L 91 84 L 97 84 L 97 86 L 90 85 Q 88.7 88.3 93.5 87 L 97 88.5 L 96 94.5 Q 97.2 97.3 98.5 95 L 100 94.5 L 99 92.5 L 100 92.5 L 101 94.5 L 101 96.5 L 101.5 98 L 103 97.5 L 104 99.5 Q 101.5 97.7 99 102.5 L 99.5 104 L 102 103 L 102.5 101 L 106 105.5 L 105 108.5 Q 105.8 110.8 103.5 110 L 102 107 L 99 107.5 L 100.5 110 L 96.5 111 Q 94.2 108.3 88.5 109 L 88.5 110 L 92 110.5 L 88.5 111 L 84.5 109 L 80.5 110 L 78 109.5 L 77.5 108 L 75.5 111 L 76 109.5 L 77 107.5 L 76.5 106 L 79.5 108 L 78 105.5 L 79 104.5 L 78 102.5 L 80 98 Q 83.7 99.5 83 96.5 L 81.5 94 L 83 93.5 L 82.5 92 L 84 91.5 L 83.5 90 Q 85.8 94.2 88 89.5 L 86.5 89 L 85 89.5 L 86 87.5 L 86 85.5 L 86.5 84 L 89.5 85 L 88.5 83 L 87 82.5 L 89 82 L 90.5 78 Z M 88 86 Q 86 89 89 88 L 88 86 Z M 84 94 Q 82 97 85 96 L 84 94 Z M 88 96 L 86 99 L 88 99 L 88 96 Z M 98 98 L 99 101 L 100 99 L 98 98 Z M 80 102 L 81 104 Q 82 101 80 102 Z M 87 103 L 87 105 L 88 106 L 96 106 L 96 105 L 89 105 L 88 103 L 87 103 Z M 98 103 L 96 105 L 98 105 L 98 103 Z M 84 104 L 84 105 L 86 105 L 84 104 Z M 80 105 Q 80 109 82 106 L 80 105 Z M 83 106 Q 84 109 82 108 L 82 109 Q 85 110 86 107 L 83 106 Z M 97 106 L 97 107 L 99 107 L 97 106 Z M 94 107 L 94 108 L 96 108 L 94 107 Z " /><path fill="rgb(255,255,255)" stroke="rgb(255,255,255)" stroke-width="1" opacity="1" d="M 92 79 Q 94.7 77.9 94 80.5 L 95.5 83 L 92 81.5 L 92 79 Z " /><path fill="rgb(255,255,255)" stroke="rgb(255,255,255)" stroke-width="1" opacity="1" d="M 110.5 84 L 113 88.5 L 112.5 90 L 114 90.5 L 113.5 92 L 115 92.5 L 114.5 94 L 116 94.5 L 115 95.5 L 116.5 98 L 112 97.5 L 111.5 94 L 110 94.5 L 113 93.5 L 111.5 91 L 109.5 92 L 107 88.5 L 108 86 Q 110.8 87 110.5 84 Z M 111 86 L 109 88 L 111 88 L 111 86 Z M 111 89 L 109 91 L 111 91 L 111 89 Z " /><path fill="rgb(255,255,255)" stroke="rgb(255,255,255)" stroke-width="1" opacity="1" d="M 113.5 99 L 116 99.5 L 115 102 L 113 101.5 L 113.5 99 Z " /><path fill="rgb(255,255,255)" stroke="rgb(255,255,255)" stroke-width="1" opacity="1" d="M 119.5 110 L 118.5 112 L 119.5 110 Z " /><path fill="rgb(255,255,255)" stroke="rgb(255,255,255)" stroke-width="1" opacity="1" d="M 26.5 116 L 27 118.5 Q 25.5 121.5 24 118.5 L 26 118.5 L 26.5 116 Z " /><path fill="rgb(255,255,255)" stroke="rgb(255,255,255)" stroke-width="1" opacity="1" d="M 92 118 L 95 118.5 L 92 120 L 92 118 Z " /><path fill="rgb(255,255,255)" stroke="rgb(255,255,255)" stroke-width="1" opacity="1" d="M 56.5 120 L 59 124.5 L 57 128.5 L 57.5 130 L 55.5 129 L 55 130.5 L 55.5 132 Q 53.3 132.8 54 130.5 L 53 127.5 L 54.5 125 L 57 126.5 L 58 123.5 L 56.5 120 Z " /><path fill="rgb(255,255,255)" stroke="rgb(255,255,255)" stroke-width="1" opacity="1" d="M 144.5 120 L 145 122.5 L 144 122.5 L 144.5 120 Z " /><path fill="rgb(255,255,255)" stroke="rgb(255,255,255)" stroke-width="1" opacity="1" d="M 124.5 121 L 125 122.5 L 123 123.5 L 124.5 121 Z " /><path fill="rgb(255,255,255)" stroke="rgb(255,255,255)" stroke-width="1" opacity="1" d="M 125.5 124 L 126 126 L 128.5 127 L 130 126.5 L 133 134 Q 130.3 132.9 131 135.5 L 132.5 135 Q 134.8 134.3 134 136.5 L 135 138.5 L 134 138.5 L 132.5 136 L 130 137 L 129.5 134 L 128.5 136 L 127 133.5 Q 129.5 132 126 130.5 L 127 127.5 L 125 127.5 L 125.5 126 L 124 125.5 L 125.5 124 Z M 129 129 L 127 131 L 129 131 L 129 129 Z " /><path fill="rgb(255,255,255)" stroke="rgb(255,255,255)" stroke-width="1" opacity="1" d="M 51.5 130 L 54.5 134 L 56 133.5 Q 54.8 136.3 53.5 134 Q 51.3 134.8 52 132.5 L 51.5 130 Z " /><path fill="rgb(255,255,255)" stroke="rgb(255,255,255)" stroke-width="1" opacity="1" d="M 52.5 135 L 53 139 L 51 139 Q 52.1 136.3 49.5 137 L 49.5 136 L 51.5 137 L 52.5 135 Z " /><path fill="rgb(255,255,255)" stroke="rgb(255,255,255)" stroke-width="1" opacity="1" d="M 48.5 138 Q 50.8 137.3 50 139.5 Q 53.5 141 51 142.5 L 47.5 150 L 46 149.5 L 47 152.5 L 45 156 L 43 156.5 L 45 157.5 L 44 160 L 41 161.5 L 42 163.5 L 40.5 167 L 39 167 Q 40.5 170.7 37.5 170 L 38 168.5 L 36 164.5 L 41 160.5 L 39 157.5 L 40.5 158 Q 42.8 158.8 42 156.5 L 40.5 154 L 44 155 L 43.5 153 Q 42.3 155.3 41 152.5 L 41.5 151 L 42.5 153 L 43.5 148 L 46 149 L 45 143.5 L 46 141 L 49 140.5 L 47 139.5 L 48.5 138 Z M 46 151 L 44 153 L 46 153 L 46 151 Z " /><path fill="rgb(255,255,255)" stroke="rgb(255,255,255)" stroke-width="1" opacity="1" d="M 137.5 143 L 137 144.5 Q 136.3 146.8 138.5 146 Q 141.8 147.8 138 149.5 L 138.5 151 L 141 149.5 L 142 151.5 L 141 154 Q 144 153 143 156 L 141 156.5 L 144 157.5 L 142 158.5 L 145 160.5 L 147 166.5 L 144.5 172 L 141 163.5 L 142 161.5 L 140 158.5 L 140.5 157 L 138.5 158 L 138 155.5 L 133 145.5 L 137.5 143 Z M 136 145 L 135 147 Q 137 151 139 148 L 136 145 Z M 140 151 L 138 154 L 140 154 L 140 151 Z M 145 162 L 144 164 L 142 164 L 143 166 L 145 165 L 145 162 Z " /><path fill="rgb(255,255,255)" stroke="rgb(255,255,255)" stroke-width="1" opacity="1" d="M 151.5 153 L 153 155.5 L 152 155.5 L 151.5 153 Z " /><path fill="rgb(255,255,255)" stroke="rgb(255,255,255)" stroke-width="1" opacity="1" d="M 38.5 160 L 37.5 162 L 38.5 160 Z " /><path fill="rgb(255,255,255)" stroke="rgb(255,255,255)" stroke-width="1" opacity="1" d="M 50.5 166 L 51 170.5 L 50 170.5 L 49 167.5 L 50.5 166 Z " /><path fill="rgb(255,255,255)" stroke="rgb(255,255,255)" stroke-width="1" opacity="1" d="M 33.5 190 L 34 192.5 L 33 192.5 L 33.5 190 Z " /><path fill="rgb(193,193,193)" stroke="rgb(193,193,193)" stroke-width="1" opacity="1" d="M 82.5 21 L 101 21.5 L 82.5 22 L 82.5 21 Z " /><path fill="rgb(193,193,193)" stroke="rgb(193,193,193)" stroke-width="1" opacity="1" d="M 78.5 24 L 79 39.5 L 76 41.5 L 78 39.5 L 78.5 24 Z " /><path fill="rgb(193,193,193)" stroke="rgb(193,193,193)" stroke-width="1" opacity="1" d="M 104.5 26 L 105 36.5 L 104 36.5 L 104.5 26 Z " /><path fill="rgb(193,193,193)" stroke="rgb(193,193,193)" stroke-width="1" opacity="1" d="M 85.5 28 L 98 28 L 98 32.5 L 97 32.5 L 96.5 29 L 85.5 29 L 85.5 28 Z " /><path fill="rgb(193,193,193)" stroke="rgb(193,193,193)" stroke-width="1" opacity="1" d="M 88.5 34 L 95 34.5 L 88.5 35 L 88.5 34 Z " /><path fill="rgb(193,193,193)" stroke="rgb(193,193,193)" stroke-width="1" opacity="1" d="M 104.5 38 L 107 41.5 L 104 39.5 L 104.5 38 Z " /><path fill="rgb(193,193,193)" stroke="rgb(193,193,193)" stroke-width="1" opacity="1" d="M 85.5 42 L 84.5 44 L 85.5 42 Z " /><path fill="rgb(193,193,193)" stroke="rgb(193,193,193)" stroke-width="1" opacity="1" d="M 110.5 49 L 111 57.5 L 110 57.5 L 110.5 49 Z " /><path fill="rgb(193,193,193)" stroke="rgb(193,193,193)" stroke-width="1" opacity="1" d="M 72.5 50 L 73 57.5 L 72 57.5 L 72.5 50 Z " /><path fill="rgb(193,193,193)" stroke="rgb(193,193,193)" stroke-width="1" opacity="1" d="M 90.5 56 L 93 56.5 L 90.5 57 L 90.5 56 Z " /><path fill="rgb(193,193,193)" stroke="rgb(193,193,193)" stroke-width="1" opacity="1" d="M 83.5 59 L 85.5 62 L 83.5 59 Z " /><path fill="rgb(193,193,193)" stroke="rgb(193,193,193)" stroke-width="1" opacity="1" d="M 98.5 60 L 97.5 62 L 98.5 60 Z " /><path fill="rgb(193,193,193)" stroke="rgb(193,193,193)" stroke-width="1" opacity="1" d="M 81.5 61 L 83.5 64 L 81.5 61 Z " /><path fill="rgb(193,193,193)" stroke="rgb(193,193,193)" stroke-width="1" opacity="1" d="M 101.5 61 L 99.5 64 L 101.5 61 Z " /><path fill="rgb(193,193,193)" stroke="rgb(193,193,193)" stroke-width="1" opacity="1" d="M 78.5 68 L 81 69.5 L 79.5 69 L 78.5 68 Z " /><path fill="rgb(193,193,193)" stroke="rgb(193,193,193)" stroke-width="1" opacity="1" d="M 103.5 68 L 105 68.5 L 102.5 70 L 103.5 68 Z " /><path fill="rgb(193,193,193)" stroke="rgb(193,193,193)" stroke-width="1" opacity="1" d="M 70.5 69 L 71 70.5 L 69.5 73 L 69 71.5 L 70.5 69 Z " /><path fill="rgb(193,193,193)" stroke="rgb(193,193,193)" stroke-width="1" opacity="1" d="M 112.5 69 L 114 72.5 L 113 72.5 L 112.5 69 Z " /><path fill="rgb(193,193,193)" stroke="rgb(193,193,193)" stroke-width="1" opacity="1" d="M 100.5 70 L 100 71.5 L 99.5 73 L 99 71.5 L 100.5 70 Z " /><path fill="rgb(193,193,193)" stroke="rgb(193,193,193)" stroke-width="1" opacity="1" d="M 71.5 83 L 72 84.5 L 70.5 87 L 70 85.5 L 71.5 83 Z " /><path fill="rgb(193,193,193)" stroke="rgb(193,193,193)" stroke-width="1" opacity="1" d="M 111.5 83 L 113 86.5 L 112 86.5 L 111.5 83 Z " /><path fill="rgb(193,193,193)" stroke="rgb(193,193,193)" stroke-width="1" opacity="1" d="M 113.5 103 L 115 106.5 L 114 106.5 L 113.5 103 Z " /><path fill="rgb(193,193,193)" stroke="rgb(193,193,193)" stroke-width="1" opacity="1" d="M 120.5 103 L 122 105.5 L 120 104.5 L 120.5 103 Z " /><path fill="rgb(193,193,193)" stroke="rgb(193,193,193)" stroke-width="1" opacity="1" d="M 74.5 108 L 75 109.5 L 73 110.5 L 74.5 108 Z " /><path fill="rgb(193,193,193)" stroke="rgb(193,193,193)" stroke-width="1" opacity="1" d="M 29.5 111 L 28.5 113 L 29.5 111 Z " /><path fill="rgb(193,193,193)" stroke="rgb(193,193,193)" stroke-width="1" opacity="1" d="M 153.5 111 L 155.5 114 L 153.5 111 Z " /><path fill="rgb(193,193,193)" stroke="rgb(193,193,193)" stroke-width="1" opacity="1" d="M 30.5 117 L 48.5 117 L 49 118.5 L 47.5 118 L 30.5 118 L 30.5 117 Z " /><path fill="rgb(193,193,193)" stroke="rgb(193,193,193)" stroke-width="1" opacity="1" d="M 71.5 117 L 111.5 117 L 114 119.5 L 113.5 121 L 111.5 118 L 71.5 118 L 70 119.5 L 69.5 121 L 69 119.5 L 71.5 117 Z " /><path fill="rgb(193,193,193)" stroke="rgb(193,193,193)" stroke-width="1" opacity="1" d="M 134 117 L 153 117.5 L 135.5 118 L 134.5 119 L 134 117 Z " /><path fill="rgb(193,193,193)" stroke="rgb(193,193,193)" stroke-width="1" opacity="1" d="M 135.5 120 L 137 123.5 L 136 123.5 L 135.5 120 Z " /><path fill="rgb(193,193,193)" stroke="rgb(193,193,193)" stroke-width="1" opacity="1" d="M 129.5 123 L 132 128.5 L 131 128.5 L 129.5 123 Z " /><path fill="rgb(193,193,193)" stroke="rgb(193,193,193)" stroke-width="1" opacity="1" d="M 52.5 125 L 53 126.5 L 51.5 129 L 51 127.5 L 52.5 125 Z " /><path fill="rgb(193,193,193)" stroke="rgb(193,193,193)" stroke-width="1" opacity="1" d="M 132.5 146 L 135 151.5 L 134 151.5 L 132.5 146 Z " /><path fill="rgb(193,193,193)" stroke="rgb(193,193,193)" stroke-width="1" opacity="1" d="M 51.5 160 L 52 161.5 L 50.5 164 L 50 162.5 L 51.5 160 Z " /><path fill="rgb(193,193,193)" stroke="rgb(193,193,193)" stroke-width="1" opacity="1" d="M 131.5 160 L 133 163.5 L 132 163.5 L 131.5 160 Z " /><path fill="rgb(193,193,193)" stroke="rgb(193,193,193)" stroke-width="1" opacity="1" d="M 153.5 160 L 154 162.5 L 153 162.5 L 153.5 160 Z " /><path fill="rgb(193,193,193)" stroke="rgb(193,193,193)" stroke-width="1" opacity="1" d="M 35.5 163 L 36 165.5 L 35 165.5 L 35.5 163 Z " /><path fill="rgb(193,193,193)" stroke="rgb(193,193,193)" stroke-width="1" opacity="1" d="M 147.5 163 L 148 167.5 L 147 167.5 L 147.5 163 Z " /><path fill="rgb(193,193,193)" stroke="rgb(193,193,193)" stroke-width="1" opacity="1" d="M 34.5 198 L 35.5 200 L 34.5 198 Z " /><path fill="rgb(193,193,193)" stroke="rgb(193,193,193)" stroke-width="1" opacity="1" d="M 40.5 198 L 39.5 200 L 40.5 198 Z " /><path fill="rgb(193,193,193)" stroke="rgb(193,193,193)" stroke-width="1" opacity="1" d="M 142.5 198 L 143.5 200 L 142.5 198 Z " /><path fill="rgb(193,193,193)" stroke="rgb(193,193,193)" stroke-width="1" opacity="1" d="M 148.5 198 L 147.5 200 L 148.5 198 Z " /><path fill="rgb(252,252,253)" stroke="rgb(252,252,253)" stroke-width="1" opacity="1" d="M 101.5 18 L 100.5 20 L 101.5 18 Z " /><path fill="rgb(252,252,253)" stroke="rgb(252,252,253)" stroke-width="1" opacity="1" d="M 105.5 36 L 106.5 38 L 105.5 36 Z " /><path fill="rgb(252,252,253)" stroke="rgb(252,252,253)" stroke-width="1" opacity="1" d="M 88.5 42 L 87.5 44 L 88.5 42 Z " /><path fill="rgb(252,252,253)" stroke="rgb(252,252,253)" stroke-width="1" opacity="1" d="M 81.5 55 L 80.5 57 L 81.5 55 Z " /><path fill="rgb(252,252,253)" stroke="rgb(252,252,253)" stroke-width="1" opacity="1" d="M 69.5 64 L 70.5 66 L 69.5 64 Z " /><path fill="rgb(252,252,253)" stroke="rgb(252,252,253)" stroke-width="1" opacity="1" d="M 81.5 71 Q 83.8 70.3 83 72.5 L 80 72.5 L 81.5 71 Z " /><path fill="rgb(252,252,253)" stroke="rgb(252,252,253)" stroke-width="1" opacity="1" d="M 78.5 73 L 77.5 75 L 78.5 73 Z " /><path fill="rgb(252,252,253)" stroke="rgb(252,252,253)" stroke-width="1" opacity="1" d="M 79 76 L 81 76.5 L 79 77.5 L 79 76 Z " /><path fill="rgb(252,252,253)" stroke="rgb(252,252,253)" stroke-width="1" opacity="1" d="M 106.5 78 L 105.5 80 L 106.5 78 Z " /><path fill="rgb(252,252,253)" stroke="rgb(252,252,253)" stroke-width="1" opacity="1" d="M 75.5 79 L 77 81.5 L 74.5 83 L 75 81.5 L 75.5 79 Z " /><path fill="rgb(252,252,253)" stroke="rgb(252,252,253)" stroke-width="1" opacity="1" d="M 126.5 80 L 127.5 82 L 126.5 80 Z " /><path fill="rgb(252,252,253)" stroke="rgb(252,252,253)" stroke-width="1" opacity="1" d="M 92.5 82 L 93.5 84 Q 90.7 84.7 92.5 82 Z " /><path fill="rgb(252,252,253)" stroke="rgb(252,252,253)" stroke-width="1" opacity="1" d="M 58.5 83 L 59 85 L 57 84.5 L 58.5 83 Z " /><path fill="rgb(252,252,253)" stroke="rgb(252,252,253)" stroke-width="1" opacity="1" d="M 107.5 85 L 108 87 L 106 86.5 L 107.5 85 Z " /><path fill="rgb(252,252,253)" stroke="rgb(252,252,253)" stroke-width="1" opacity="1" d="M 58.5 88 L 57.5 90 L 58.5 88 Z " /><path fill="rgb(252,252,253)" stroke="rgb(252,252,253)" stroke-width="1" opacity="1" d="M 110.5 90 L 111.5 92 L 110.5 90 Z " /><path fill="rgb(252,252,253)" stroke="rgb(252,252,253)" stroke-width="1" opacity="1" d="M 97.5 91 L 98 92.5 L 96 93.5 L 97.5 91 Z " /><path fill="rgb(252,252,253)" stroke="rgb(252,252,253)" stroke-width="1" opacity="1" d="M 98.5 94 L 97.5 96 L 98.5 94 Z " /><path fill="rgb(252,252,253)" stroke="rgb(252,252,253)" stroke-width="1" opacity="1" d="M 66.5 98 L 67.5 100 L 66.5 98 Z " /><path fill="rgb(252,252,253)" stroke="rgb(252,252,253)" stroke-width="1" opacity="1" d="M 115.5 98 Q 117.8 97.3 117 99.5 L 115.5 98 Z " /><path fill="rgb(252,252,253)" stroke="rgb(252,252,253)" stroke-width="1" opacity="1" d="M 117.5 101 L 116.5 103 L 117.5 101 Z " /><path fill="rgb(252,252,253)" stroke="rgb(252,252,253)" stroke-width="1" opacity="1" d="M 78.5 103 L 80 105.5 L 78 104.5 L 78.5 103 Z " /><path fill="rgb(252,252,253)" stroke="rgb(252,252,253)" stroke-width="1" opacity="1" d="M 25.5 104 L 26 105.5 L 24 106.5 L 25.5 104 Z " /><path fill="rgb(252,252,253)" stroke="rgb(252,252,253)" stroke-width="1" opacity="1" d="M 64.5 105 L 65.5 107 L 64.5 105 Z " /><path fill="rgb(252,252,253)" stroke="rgb(252,252,253)" stroke-width="1" opacity="1" d="M 62.5 107 L 63.5 109 L 62.5 107 Z " /><path fill="rgb(252,252,253)" stroke="rgb(252,252,253)" stroke-width="1" opacity="1" d="M 95.5 118 L 94.5 120 L 95.5 118 Z " /><path fill="rgb(252,252,253)" stroke="rgb(252,252,253)" stroke-width="1" opacity="1" d="M 102.5 118 L 105 118.5 Q 102.9 121.8 102.5 118 Z " /><path fill="rgb(252,252,253)" stroke="rgb(252,252,253)" stroke-width="1" opacity="1" d="M 110.5 118 L 111.5 120 L 110.5 118 Z " /><path fill="rgb(252,252,253)" stroke="rgb(252,252,253)" stroke-width="1" opacity="1" d="M 122.5 118 Q 124.8 117.3 124 119.5 L 122.5 118 Z " /><path fill="rgb(252,252,253)" stroke="rgb(252,252,253)" stroke-width="1" opacity="1" d="M 44.5 120 L 43.5 122 L 44.5 120 Z " /><path fill="rgb(252,252,253)" stroke="rgb(252,252,253)" stroke-width="1" opacity="1" d="M 84.5 120 L 85 122.5 L 84 122.5 L 84.5 120 Z " /><path fill="rgb(252,252,253)" stroke="rgb(252,252,253)" stroke-width="1" opacity="1" d="M 137.5 121 Q 139.8 120.3 139 122.5 L 137.5 121 Z " /><path fill="rgb(252,252,253)" stroke="rgb(252,252,253)" stroke-width="1" opacity="1" d="M 20.5 123 L 21.5 125 L 20.5 123 Z " /><path fill="rgb(252,252,253)" stroke="rgb(252,252,253)" stroke-width="1" opacity="1" d="M 106.5 123 L 108.5 126 L 106.5 123 Z " /><path fill="rgb(252,252,253)" stroke="rgb(252,252,253)" stroke-width="1" opacity="1" d="M 146.5 123 L 147.5 125 L 146.5 123 Z " /><path fill="rgb(252,252,253)" stroke="rgb(252,252,253)" stroke-width="1" opacity="1" d="M 113.5 134 L 112.5 136 L 113.5 134 Z " /><path fill="rgb(252,252,253)" stroke="rgb(252,252,253)" stroke-width="1" opacity="1" d="M 121.5 147 L 120.5 149 L 121.5 147 Z " /><path fill="rgb(252,252,253)" stroke="rgb(252,252,253)" stroke-width="1" opacity="1" d="M 137.5 147 L 140 148.5 L 138.5 148 L 137.5 147 Z " /><path fill="rgb(252,252,253)" stroke="rgb(252,252,253)" stroke-width="1" opacity="1" d="M 40.5 155 L 41 157 L 39 156.5 L 40.5 155 Z " /><path fill="rgb(252,252,253)" stroke="rgb(252,252,253)" stroke-width="1" opacity="1" d="M 39.5 161 L 38.5 163 L 39.5 161 Z " /><path fill="rgb(252,252,253)" stroke="rgb(252,252,253)" stroke-width="1" opacity="1" d="M 39.5 164 L 38.5 166 L 39.5 164 Z " /><path fill="rgb(252,252,253)" stroke="rgb(252,252,253)" stroke-width="1" opacity="1" d="M 137.5 181 L 136.5 183 L 137.5 181 Z " /><path fill="rgb(252,252,253)" stroke="rgb(252,252,253)" stroke-width="1" opacity="1" d="M 32.5 184 L 33.5 186 L 32.5 184 Z " /><path fill="rgb(252,252,253)" stroke="rgb(252,252,253)" stroke-width="1" opacity="1" d="M 149.5 186 L 150 191.5 L 149 191.5 L 149.5 186 Z " /><path fill="rgb(251,251,251)" stroke="rgb(251,251,251)" stroke-width="1" opacity="1" d="M 110.5 43 L 110 44.5 L 109.5 46 L 109 44.5 L 110.5 43 Z " /><path fill="rgb(251,251,251)" stroke="rgb(251,251,251)" stroke-width="1" opacity="1" d="M 116.5 70 L 117 71.5 L 115 72.5 L 116.5 70 Z " /><path fill="rgb(251,251,251)" stroke="rgb(251,251,251)" stroke-width="1" opacity="1" d="M 102.5 71 L 102.5 74 Q 99.5 72.5 102.5 71 Z " /><path fill="rgb(251,251,251)" stroke="rgb(251,251,251)" stroke-width="1" opacity="1" d="M 72.5 84 L 74.5 87 L 72.5 84 Z " /><path fill="rgb(251,251,251)" stroke="rgb(251,251,251)" stroke-width="1" opacity="1" d="M 81.5 95 L 82 97 L 80 96.5 L 81.5 95 Z " /><path fill="rgb(251,251,251)" stroke="rgb(251,251,251)" stroke-width="1" opacity="1" d="M 51.5 96 L 50.5 98 L 51.5 96 Z " /><path fill="rgb(251,251,251)" stroke="rgb(251,251,251)" stroke-width="1" opacity="1" d="M 56.5 99 L 55.5 101 L 56.5 99 Z " /><path fill="rgb(251,251,251)" stroke="rgb(251,251,251)" stroke-width="1" opacity="1" d="M 116.5 101 L 116 102.5 L 115.5 104 L 115 102.5 L 116.5 101 Z " /><path fill="rgb(251,251,251)" stroke="rgb(251,251,251)" stroke-width="1" opacity="1" d="M 52.5 104 L 52 105.5 L 51.5 107 L 51 105.5 L 52.5 104 Z " /><path fill="rgb(251,251,251)" stroke="rgb(251,251,251)" stroke-width="1" opacity="1" d="M 130.5 105 L 132 107.5 L 130 106.5 L 130.5 105 Z " /><path fill="rgb(251,251,251)" stroke="rgb(251,251,251)" stroke-width="1" opacity="1" d="M 33.5 108 L 32.5 110 L 33.5 108 Z " /><path fill="rgb(251,251,251)" stroke="rgb(251,251,251)" stroke-width="1" opacity="1" d="M 49.5 108 L 50 110.5 L 49 110.5 L 49.5 108 Z " /><path fill="rgb(251,251,251)" stroke="rgb(251,251,251)" stroke-width="1" opacity="1" d="M 61.5 108 L 60.5 110 L 61.5 108 Z " /><path fill="rgb(251,251,251)" stroke="rgb(251,251,251)" stroke-width="1" opacity="1" d="M 41.5 109 L 42.5 111 Q 39.7 111.7 41.5 109 Z " /><path fill="rgb(251,251,251)" stroke="rgb(251,251,251)" stroke-width="1" opacity="1" d="M 138.5 110 L 142 110.5 L 138.5 111 L 138.5 110 Z " /><path fill="rgb(251,251,251)" stroke="rgb(251,251,251)" stroke-width="1" opacity="1" d="M 153.5 118 L 154.5 120 L 153.5 118 Z " /><path fill="rgb(251,251,251)" stroke="rgb(251,251,251)" stroke-width="1" opacity="1" d="M 124.5 119 L 123.5 121 L 124.5 119 Z " /><path fill="rgb(251,251,251)" stroke="rgb(251,251,251)" stroke-width="1" opacity="1" d="M 41.5 120 L 42.5 122 L 41.5 120 Z " /><path fill="rgb(251,251,251)" stroke="rgb(251,251,251)" stroke-width="1" opacity="1" d="M 57.5 120 L 60 121.5 L 58.5 121 L 55.5 122 L 55.5 121 L 57.5 120 Z " /><path fill="rgb(251,251,251)" stroke="rgb(251,251,251)" stroke-width="1" opacity="1" d="M 105.5 120 L 106 122.5 L 105 122.5 L 105.5 120 Z " /><path fill="rgb(251,251,251)" stroke="rgb(251,251,251)" stroke-width="1" opacity="1" d="M 91.5 121 Q 93.8 120.3 93 122.5 L 91.5 121 Z " /><path fill="rgb(251,251,251)" stroke="rgb(251,251,251)" stroke-width="1" opacity="1" d="M 156.5 121 L 157 124.5 L 153.5 126 L 153.5 125 L 156 125 L 156.5 121 Z " /><path fill="rgb(251,251,251)" stroke="rgb(251,251,251)" stroke-width="1" opacity="1" d="M 99.5 122 L 97.5 125 L 99.5 122 Z " /><path fill="rgb(251,251,251)" stroke="rgb(251,251,251)" stroke-width="1" opacity="1" d="M 41.5 123 L 42.5 125 L 41.5 123 Z " /><path fill="rgb(251,251,251)" stroke="rgb(251,251,251)" stroke-width="1" opacity="1" d="M 124.5 123 L 123.5 125 L 124.5 123 Z " /><path fill="rgb(251,251,251)" stroke="rgb(251,251,251)" stroke-width="1" opacity="1" d="M 41.5 126 L 42.5 128 L 41.5 126 Z " /><path fill="rgb(251,251,251)" stroke="rgb(251,251,251)" stroke-width="1" opacity="1" d="M 56.5 126 L 57.5 128 L 56.5 126 Z " /><path fill="rgb(251,251,251)" stroke="rgb(251,251,251)" stroke-width="1" opacity="1" d="M 113.5 128 L 112.5 130 L 113.5 128 Z " /><path fill="rgb(251,251,251)" stroke="rgb(251,251,251)" stroke-width="1" opacity="1" d="M 141.5 128 L 142.5 130 L 141.5 128 Z " /><path fill="rgb(251,251,251)" stroke="rgb(251,251,251)" stroke-width="1" opacity="1" d="M 115.5 129 L 114.5 131 L 115.5 129 Z " /><path fill="rgb(251,251,251)" stroke="rgb(251,251,251)" stroke-width="1" opacity="1" d="M 140.5 130 L 143 131.5 L 141.5 132 L 140.5 130 Z " /><path fill="rgb(251,251,251)" stroke="rgb(251,251,251)" stroke-width="1" opacity="1" d="M 131 137 L 133 137.5 L 131.5 141 L 131 137 Z " /><path fill="rgb(251,251,251)" stroke="rgb(251,251,251)" stroke-width="1" opacity="1" d="M 134.5 139 L 135.5 141 L 134.5 139 Z " /><path fill="rgb(251,251,251)" stroke="rgb(251,251,251)" stroke-width="1" opacity="1" d="M 148.5 144 L 147.5 146 L 148.5 144 Z " /><path fill="rgb(251,251,251)" stroke="rgb(251,251,251)" stroke-width="1" opacity="1" d="M 33.5 147 L 32.5 149 L 33.5 147 Z " /><path fill="rgb(251,251,251)" stroke="rgb(251,251,251)" stroke-width="1" opacity="1" d="M 125.5 150 L 126.5 152 L 125.5 150 Z " /><path fill="rgb(251,251,251)" stroke="rgb(251,251,251)" stroke-width="1" opacity="1" d="M 138.5 150 L 138 151.5 L 137.5 153 L 137 151.5 L 138.5 150 Z " /><path fill="rgb(251,251,251)" stroke="rgb(251,251,251)" stroke-width="1" opacity="1" d="M 46.5 153 L 46 154.5 L 44.5 157 L 43 156.5 L 45 156 L 46.5 153 Z " /><path fill="rgb(251,251,251)" stroke="rgb(251,251,251)" stroke-width="1" opacity="1" d="M 27.5 160 L 28.5 162 L 27.5 160 Z " /><path fill="rgb(251,251,251)" stroke="rgb(251,251,251)" stroke-width="1" opacity="1" d="M 40.5 160 L 41.5 162 L 40.5 160 Z " /><path fill="rgb(251,251,251)" stroke="rgb(251,251,251)" stroke-width="1" opacity="1" d="M 52.5 163 L 51.5 165 L 52.5 163 Z " /><path fill="rgb(251,251,251)" stroke="rgb(251,251,251)" stroke-width="1" opacity="1" d="M 145.5 165 L 147 167.5 L 145 166.5 L 145.5 165 Z " /><path fill="rgb(251,251,251)" stroke="rgb(251,251,251)" stroke-width="1" opacity="1" d="M 36.5 166 L 38 168.5 L 36 167.5 L 36.5 166 Z " /><path fill="rgb(251,251,251)" stroke="rgb(251,251,251)" stroke-width="1" opacity="1" d="M 55.5 166 L 54.5 168 L 55.5 166 Z " /><path fill="rgb(251,251,251)" stroke="rgb(251,251,251)" stroke-width="1" opacity="1" d="M 40.5 167 L 39.5 169 L 40.5 167 Z " /><path fill="rgb(251,251,251)" stroke="rgb(251,251,251)" stroke-width="1" opacity="1" d="M 136.5 174 L 138 176.5 L 136 177.5 L 136.5 176 L 135 175.5 L 136.5 174 Z " /><path fill="rgb(251,251,251)" stroke="rgb(251,251,251)" stroke-width="1" opacity="1" d="M 139.5 181 L 140.5 183 L 139.5 181 Z " /><path fill="rgb(251,251,251)" stroke="rgb(251,251,251)" stroke-width="1" opacity="1" d="M 45.5 182 L 46.5 184 L 45.5 182 Z " /><path fill="rgb(251,251,251)" stroke="rgb(251,251,251)" stroke-width="1" opacity="1" d="M 41.5 194 L 43 196.5 L 42 196.5 L 41.5 194 Z " /><path fill="rgb(251,251,251)" stroke="rgb(251,251,251)" stroke-width="1" opacity="1" d="M 148.5 199 L 146.5 202 L 145 201.5 L 148.5 199 Z " /><path fill="rgb(73,73,73)" stroke="rgb(73,73,73)" stroke-width="1" opacity="1" d="M 80.5 22 L 102.5 22 L 104 23.5 L 104 39.5 Q 112.2 44.3 110 59.5 L 109 63.5 L 130 108.5 L 130 111 L 152.5 111 L 155 113.5 L 154 117 L 134.5 117 L 134 118.5 L 153 159.5 L 154 168.5 L 149 182.5 L 149 197.5 L 146.5 200 Q 142.5 200.5 142 197.5 L 142 183.5 L 114 119.5 L 111.5 117 L 71.5 117 L 69 119.5 L 67 126.5 L 41 183.5 L 41 197.5 L 38.5 200 Q 34.5 200.5 34 197.5 L 34 182.5 Q 29.1 174.9 29 162.5 L 49 117 L 29.5 117 L 29 115.5 L 28 113.5 L 30.5 111 L 51.5 111 L 53 109.5 L 71 70.5 L 74 60.5 L 73 59.5 L 73 48.5 Q 74.4 42.4 79 39.5 L 79 23.5 L 80.5 22 Z M 85 28 L 86 36 L 87 35 L 97 35 L 98 36 L 98 28 L 85 28 Z M 88 41 L 86 42 L 79 50 Q 78 58 81 62 L 84 64 L 92 67 L 100 64 L 104 58 Q 105 51 103 48 L 96 41 L 88 41 Z M 78 68 L 35 164 Q 34 170 37 173 Q 36 175 39 174 L 84 72 L 78 68 Z M 104 68 L 99 72 L 144 173 Q 143 175 146 174 L 148 168 L 148 164 L 145 157 L 105 70 Q 106 67 104 68 Z M 90 73 L 73 111 L 109 111 L 106 102 L 93 75 Q 94 72 90 73 Z " /><path fill="rgb(73,73,73)" stroke="rgb(73,73,73)" stroke-width="1" opacity="1" d="M 89.5 44 Q 96.8 43.2 99 47.5 Q 101.7 49.8 101 55.5 L 96.5 62 L 88.5 63 L 83 58.5 L 82 51.5 L 85.5 46 L 89.5 44 Z M 92 50 L 89 51 L 88 54 L 91 57 Q 95 58 95 55 L 94 51 L 92 50 Z " /><path fill="rgb(249,249,249)" stroke="rgb(249,249,249)" stroke-width="1" opacity="1" d="M 79.5 20 L 78.5 22 L 79.5 20 Z " /><path fill="rgb(249,249,249)" stroke="rgb(249,249,249)" stroke-width="1" opacity="1" d="M 108.5 41 L 109.5 43 L 108.5 41 Z " /><path fill="rgb(249,249,249)" stroke="rgb(249,249,249)" stroke-width="1" opacity="1" d="M 98.5 46 Q 100.8 45.3 100 47.5 L 100.5 49 L 98.5 46 Z " /><path fill="rgb(249,249,249)" stroke="rgb(249,249,249)" stroke-width="1" opacity="1" d="M 81.5 57 L 82.5 59 L 80 58.5 L 81.5 57 Z " /><path fill="rgb(249,249,249)" stroke="rgb(249,249,249)" stroke-width="1" opacity="1" d="M 101.5 57 L 102.5 59 L 101.5 57 Z " /><path fill="rgb(249,249,249)" stroke="rgb(249,249,249)" stroke-width="1" opacity="1" d="M 101.5 60 L 100.5 62 L 101.5 60 Z " /><path fill="rgb(249,249,249)" stroke="rgb(249,249,249)" stroke-width="1" opacity="1" d="M 118.5 75 L 117.5 77 L 118.5 75 Z " /><path fill="rgb(249,249,249)" stroke="rgb(249,249,249)" stroke-width="1" opacity="1" d="M 89.5 76 L 90.5 78 L 89.5 76 Z " /><path fill="rgb(249,249,249)" stroke="rgb(249,249,249)" stroke-width="1" opacity="1" d="M 93.5 78 L 95 80.5 L 94 80.5 L 93.5 78 Z " /><path fill="rgb(249,249,249)" stroke="rgb(249,249,249)" stroke-width="1" opacity="1" d="M 72.5 83 L 75 83.5 Q 72.9 86.8 72.5 83 Z " /><path fill="rgb(249,249,249)" stroke="rgb(249,249,249)" stroke-width="1" opacity="1" d="M 76.5 84 L 76 85.5 L 74.5 88 L 75 86.5 L 76.5 84 Z " /><path fill="rgb(249,249,249)" stroke="rgb(249,249,249)" stroke-width="1" opacity="1" d="M 118.5 101 L 120 103.5 L 118 102.5 L 118.5 101 Z " /><path fill="rgb(249,249,249)" stroke="rgb(249,249,249)" stroke-width="1" opacity="1" d="M 53.5 102 L 54.5 104 L 53.5 102 Z " /><path fill="rgb(249,249,249)" stroke="rgb(249,249,249)" stroke-width="1" opacity="1" d="M 28.5 105 L 31 105.5 L 30.5 107 L 33 107.5 L 30 109 Q 31.1 106.3 28.5 107 L 27 107.5 L 28.5 105 Z " /><path fill="rgb(249,249,249)" stroke="rgb(249,249,249)" stroke-width="1" opacity="1" d="M 115.5 105 L 117 107.5 L 116 107.5 L 115.5 105 Z " /><path fill="rgb(249,249,249)" stroke="rgb(249,249,249)" stroke-width="1" opacity="1" d="M 105.5 106 L 104.5 108 L 105.5 106 Z " /><path fill="rgb(249,249,249)" stroke="rgb(249,249,249)" stroke-width="1" opacity="1" d="M 118.5 107 L 122 109.5 L 120 110 Q 121.1 107.3 118.5 108 L 118.5 107 Z " /><path fill="rgb(249,249,249)" stroke="rgb(249,249,249)" stroke-width="1" opacity="1" d="M 106.5 109 L 107.5 111 Q 104.7 111.7 106.5 109 Z " /><path fill="rgb(249,249,249)" stroke="rgb(249,249,249)" stroke-width="1" opacity="1" d="M 23.5 110 Q 26.2 111.2 24 112.5 L 23.5 114 L 22 111.5 L 23.5 110 Z " /><path fill="rgb(249,249,249)" stroke="rgb(249,249,249)" stroke-width="1" opacity="1" d="M 60.5 110 L 61 112 L 59 111.5 L 60.5 110 Z " /><path fill="rgb(249,249,249)" stroke="rgb(249,249,249)" stroke-width="1" opacity="1" d="M 63.5 110 Q 66.5 111.5 63.5 113 Q 60.5 111.5 63.5 110 Z " /><path fill="rgb(249,249,249)" stroke="rgb(249,249,249)" stroke-width="1" opacity="1" d="M 148.5 110 L 152 110.5 L 148.5 111 L 148.5 110 Z " /><path fill="rgb(249,249,249)" stroke="rgb(249,249,249)" stroke-width="1" opacity="1" d="M 119.5 111 L 123 111.5 L 118.5 113 L 119.5 111 Z " /><path fill="rgb(249,249,249)" stroke="rgb(249,249,249)" stroke-width="1" opacity="1" d="M 59.5 113 L 63 115.5 L 60.5 116 L 58.5 117 L 58 115.5 L 59.5 113 Z " /><path fill="rgb(249,249,249)" stroke="rgb(249,249,249)" stroke-width="1" opacity="1" d="M 122.5 113 Q 125.5 112.1 124 116.5 Q 122.5 119.5 121 116.5 Q 124.1 114.8 122.5 113 Z " /><path fill="rgb(249,249,249)" stroke="rgb(249,249,249)" stroke-width="1" opacity="1" d="M 23.5 115 L 23 116.5 Q 21.5 120.9 24.5 120 L 24.5 122 L 27 122 Q 25.8 119 29.5 120 L 32 121 L 32.5 119 L 33 120.5 L 27.5 125 L 25.5 123 Q 24 126.5 22.5 124 L 20 122.5 L 20.5 121 L 23.5 123 L 23 121.5 Q 23.7 118.9 21 120 L 21 117.5 L 23.5 115 Z " /><path fill="rgb(249,249,249)" stroke="rgb(249,249,249)" stroke-width="1" opacity="1" d="M 156.5 116 L 159 116.5 L 158.5 119 Q 156.8 115.9 155 117.5 L 156.5 116 Z " /><path fill="rgb(249,249,249)" stroke="rgb(249,249,249)" stroke-width="1" opacity="1" d="M 37.5 118 L 39 118.5 L 38 120.5 L 39 123.5 L 36 125 Q 34.5 121.2 37.5 122 L 37.5 121 Q 35.3 121.8 36 119.5 L 37.5 118 Z " /><path fill="rgb(249,249,249)" stroke="rgb(249,249,249)" stroke-width="1" opacity="1" d="M 57.5 118 L 61 118.5 Q 59.8 121.3 58.5 119 L 57.5 118 Z " /><path fill="rgb(249,249,249)" stroke="rgb(249,249,249)" stroke-width="1" opacity="1" d="M 72.5 118 L 73 120 Q 76 118.8 75 122.5 L 74.5 125 L 72 124 Q 70.9 121.3 73.5 122 L 72 119.5 L 72.5 118 Z " /><path fill="rgb(249,249,249)" stroke="rgb(249,249,249)" stroke-width="1" opacity="1" d="M 79.5 118 Q 81.8 118.8 81 122.5 L 80.5 125 L 79 121.5 L 80 119.5 L 78 119.5 L 79.5 118 Z " /><path fill="rgb(249,249,249)" stroke="rgb(249,249,249)" stroke-width="1" opacity="1" d="M 88.5 118 Q 92.3 116.8 91 120.5 L 90 120.5 Q 90.8 118.3 88.5 119 L 88.5 118 Z " /><path fill="rgb(249,249,249)" stroke="rgb(249,249,249)" stroke-width="1" opacity="1" d="M 105 118 Q 109.6 116.8 111 119.5 L 111 121.5 Q 111.8 123.8 109.5 123 L 108 120.5 L 108.5 119 L 105 120 L 105 118 Z " /><path fill="rgb(249,249,249)" stroke="rgb(249,249,249)" stroke-width="1" opacity="1" d="M 135.5 118 L 137.5 119 L 139 118.5 Q 140.1 121.8 137.5 121 L 135.5 118 Z " /><path fill="rgb(249,249,249)" stroke="rgb(249,249,249)" stroke-width="1" opacity="1" d="M 146.5 118 L 145.5 120 L 146.5 118 Z " /><path fill="rgb(249,249,249)" stroke="rgb(249,249,249)" stroke-width="1" opacity="1" d="M 70.5 120 L 71 121.5 L 69 122.5 L 70.5 120 Z " /><path fill="rgb(249,249,249)" stroke="rgb(249,249,249)" stroke-width="1" opacity="1" d="M 93.5 120 L 94.5 122 L 99.5 120 L 100 121.5 L 96.5 125 L 94 123.5 L 93.5 125 L 91.5 124 L 86.5 125 L 87 123.5 L 87.5 122 L 88 124 L 91.5 122 L 93 122.5 L 93.5 120 Z " /><path fill="rgb(249,249,249)" stroke="rgb(249,249,249)" stroke-width="1" opacity="1" d="M 122.5 120 L 123 122.5 L 122 122.5 L 122.5 120 Z " /><path fill="rgb(249,249,249)" stroke="rgb(249,249,249)" stroke-width="1" opacity="1" d="M 148 120 L 151.5 122 L 156 120 Q 157.1 122.7 154.5 122 L 149 123.5 L 153 124.5 L 148.5 125 L 146 121.5 L 148 121.5 L 148 120 Z " /><path fill="rgb(249,249,249)" stroke="rgb(249,249,249)" stroke-width="1" opacity="1" d="M 34.5 121 L 35 124.5 L 34 124.5 L 34.5 121 Z " /><path fill="rgb(249,249,249)" stroke="rgb(249,249,249)" stroke-width="1" opacity="1" d="M 45.5 121 L 44.5 123 L 45.5 121 Z " /><path fill="rgb(249,249,249)" stroke="rgb(249,249,249)" stroke-width="1" opacity="1" d="M 106.5 122 L 108.5 125 L 106.5 122 Z " /><path fill="rgb(249,249,249)" stroke="rgb(249,249,249)" stroke-width="1" opacity="1" d="M 127.5 122 L 127.5 125 Q 125.3 125.8 126 123.5 L 127.5 122 Z " /><path fill="rgb(249,249,249)" stroke="rgb(249,249,249)" stroke-width="1" opacity="1" d="M 142.5 122 Q 144.8 121.3 144 123.5 L 142.5 122 Z " /><path fill="rgb(249,249,249)" stroke="rgb(249,249,249)" stroke-width="1" opacity="1" d="M 158.5 122 L 161 125.5 L 158 123.5 L 158.5 122 Z " /><path fill="rgb(249,249,249)" stroke="rgb(249,249,249)" stroke-width="1" opacity="1" d="M 112.5 123 L 113.5 125 L 110.5 126 L 110.5 125 Q 113 125.7 112.5 123 Z " /><path fill="rgb(249,249,249)" stroke="rgb(249,249,249)" stroke-width="1" opacity="1" d="M 125.5 126 L 124.5 128 L 125.5 126 Z " /><path fill="rgb(249,249,249)" stroke="rgb(249,249,249)" stroke-width="1" opacity="1" d="M 129.5 135 L 128.5 137 L 129.5 135 Z " /><path fill="rgb(249,249,249)" stroke="rgb(249,249,249)" stroke-width="1" opacity="1" d="M 132.5 141 L 133 143.5 L 132.5 145 L 131 142.5 L 132.5 141 Z " /><path fill="rgb(249,249,249)" stroke="rgb(249,249,249)" stroke-width="1" opacity="1" d="M 122.5 146 Q 126.3 144.8 125 148.5 L 125.5 150 L 124 147 L 122.5 146 Z " /><path fill="rgb(249,249,249)" stroke="rgb(249,249,249)" stroke-width="1" opacity="1" d="M 136.5 153 L 138 156.5 L 137 156.5 L 136.5 153 Z " /><path fill="rgb(249,249,249)" stroke="rgb(249,249,249)" stroke-width="1" opacity="1" d="M 52.5 160 L 53.5 162 L 52.5 160 Z " /><path fill="rgb(249,249,249)" stroke="rgb(249,249,249)" stroke-width="1" opacity="1" d="M 131.5 162 L 130.5 164 L 131.5 162 Z " /><path fill="rgb(249,249,249)" stroke="rgb(249,249,249)" stroke-width="1" opacity="1" d="M 133.5 168 L 134.5 170 L 133.5 168 Z " /><path fill="rgb(249,249,249)" stroke="rgb(249,249,249)" stroke-width="1" opacity="1" d="M 149.5 198 L 150.5 200 L 149.5 198 Z " /></svg>