<svg width="166" height="165" version="1.1" xmlns="http://www.w3.org/2000/svg" desc="Created with imagetracer.js version 1.2.6" ><path fill="rgb(36,36,36)" stroke="rgb(36,36,36)" stroke-width="1" opacity="1" d="M 34.5 41 L 35 128.5 L 34 128.5 L 34.5 41 Z " /><path fill="rgb(36,36,36)" stroke="rgb(36,36,36)" stroke-width="1" opacity="1" d="M 127.5 131 L 128 132.5 L 128 134.5 L 127.5 136 L 127 134 L 121 133.5 Q 126 134.1 127.5 131 Z " /><path fill="rgb(36,36,36)" stroke="rgb(36,36,36)" stroke-width="1" opacity="1" d="M 38.5 132 L 39.5 133 L 120 133.5 L 38 134 L 38.5 132 Z " /><path fill="rgb(248,248,248)" stroke="rgb(248,248,248)" stroke-width="1" opacity="1" d="M 35.5 13 L 37.5 13 Q 41.3 12 40 15 Q 35.8 14 34.5 17 L 31 15 L 32 17.5 L 30 16.5 L 31.5 14 Q 34.8 12.9 34 15.5 L 36 14.5 L 35.5 13 Z " /><path fill="rgb(248,248,248)" stroke="rgb(248,248,248)" stroke-width="1" opacity="1" d="M 37.5 18 L 40 18.5 L 39.5 21 L 37 22.5 L 37.5 24 L 40 22.5 L 35 25.5 Q 34.3 27.8 36.5 27 L 38 26.5 L 37 31 L 40 32.5 L 38.5 36 L 36 28 L 32 26.5 L 34 26.5 L 33 24.5 L 36 24 Q 34.8 19.4 37.5 18 Z " /><path fill="rgb(248,248,248)" stroke="rgb(248,248,248)" stroke-width="1" opacity="1" d="M 31 19 L 33 19.5 L 31 20.5 L 31 19 Z " /><path fill="rgb(248,248,248)" stroke="rgb(248,248,248)" stroke-width="1" opacity="1" d="M 30 33 L 32 33.5 L 29.5 39 L 28 36 Q 31.3 37.1 30 33 Z " /><path fill="rgb(248,248,248)" stroke="rgb(248,248,248)" stroke-width="1" opacity="1" d="M 25.5 39 L 28 39.5 L 26.5 42 L 25.5 39 Z " /><path fill="rgb(248,248,248)" stroke="rgb(248,248,248)" stroke-width="1" opacity="1" d="M 29.5 40 L 31.5 43 L 33 42.5 L 33 128.5 L 30 133.5 L 30.5 135 L 29 131.5 L 32 128.5 L 32 45.5 L 29 41.5 L 29.5 40 Z " /><path fill="rgb(248,248,248)" stroke="rgb(248,248,248)" stroke-width="1" opacity="1" d="M 36.5 42 L 37.5 129 L 39 128.5 L 38.5 131 L 36 128.5 L 36.5 42 Z " /><path fill="rgb(248,248,248)" stroke="rgb(248,248,248)" stroke-width="1" opacity="1" d="M 126.5 126 L 137.5 130 L 137.5 128 L 139 128.5 Q 137.8 124.8 141.5 126 L 143.5 129 L 145.5 126 L 150 129.5 L 147 131.5 L 146 133.5 L 150 136.5 L 148 136.5 Q 147.3 138.8 149.5 138 L 149.5 139 L 144.5 138 L 144.5 140 L 142.5 137 L 144 136.5 L 143.5 135 L 147 137.5 L 145 132.5 Q 147.8 131.4 147 128 L 143.5 130 L 140 128 L 142 133.5 L 140 137.5 L 140.5 139 L 138.5 135 L 137.5 137 L 135 136.5 Q 134.3 134.3 136.5 135 L 141 133.5 L 137.5 131 L 126 128 Q 127.5 131.8 124.5 131 L 122 129.5 L 123.5 129 L 125 129.5 L 126.5 126 Z " /><path fill="rgb(248,248,248)" stroke="rgb(248,248,248)" stroke-width="1" opacity="1" d="M 149.5 131 L 151 131.5 L 148.5 133 L 149.5 131 Z " /><path fill="rgb(248,248,248)" stroke="rgb(248,248,248)" stroke-width="1" opacity="1" d="M 39.5 134 L 40.5 135 L 119.5 135 L 121.5 134 L 126 135 Q 124.5 138.8 127.5 138 L 127.5 139 L 125 137.5 L 124.5 136 L 122.5 137 L 121.5 136 L 39.5 136 L 37.5 137 L 39.5 134 Z " /><path fill="rgb(248,248,248)" stroke="rgb(248,248,248)" stroke-width="1" opacity="1" d="M 30.5 136 L 36 137.5 L 31.5 138 L 30.5 136 Z " /><path fill="rgb(248,248,248)" stroke="rgb(248,248,248)" stroke-width="1" opacity="1" d="M 130.5 137 L 133 138.5 L 131.5 139 L 130.5 137 Z " /><path fill="rgb(248,248,248)" stroke="rgb(248,248,248)" stroke-width="1" opacity="1" d="M 34.5 141 L 37 141.5 L 34.5 142 L 34.5 141 Z " /><path fill="rgb(248,248,248)" stroke="rgb(248,248,248)" stroke-width="1" opacity="1" d="M 148.5 141 L 150 141.5 L 148 142 L 147.5 144 L 147 142.5 L 148.5 141 Z " /><path fill="rgb(255,255,255)" stroke="rgb(255,255,255)" stroke-width="1" opacity="1" d="M 0 0 L 166 0 L 166 165 L 0 165 L 0 0 Z M 38 13 L 35 16 L 34 14 L 30 16 L 32 19 L 31 21 L 33 21 L 32 23 L 34 26 L 32 30 L 32 33 Q 29 32 30 36 L 28 36 L 29 42 Q 30 44 32 42 L 31 44 L 32 46 L 32 129 Q 29 129 29 134 L 32 138 Q 37 139 40 136 L 122 136 L 123 137 L 125 136 L 127 139 L 134 137 L 138 137 L 139 135 L 141 139 L 143 138 L 145 138 L 147 139 L 150 139 L 148 138 L 149 136 L 146 134 L 147 132 L 150 130 L 146 126 L 144 129 L 143 128 L 139 126 L 138 130 L 127 126 L 124 131 L 40 131 L 37 129 L 37 43 L 40 42 L 39 34 L 39 31 L 37 31 L 37 27 L 35 27 L 37 23 L 37 21 L 40 15 Q 41 12 38 13 Z M 39 19 Q 37 22 40 21 L 39 19 Z M 150 131 L 149 133 L 151 132 L 150 131 Z M 35 141 L 35 142 L 37 142 L 35 141 Z " /><path fill="rgb(163,163,163)" stroke="rgb(163,163,163)" stroke-width="1" opacity="1" d="M 31 15 L 34.5 17 L 38.5 15 L 38 16.5 L 36.5 19 L 37 17.5 L 36.5 16 L 34.5 18 Q 32.7 14.9 31 16.5 L 31 15 Z " /><path fill="rgb(163,163,163)" stroke="rgb(163,163,163)" stroke-width="1" opacity="1" d="M 32.5 18 L 34.5 23 L 35.5 20 L 36 24 Q 31.1 25.8 33 19.5 L 32.5 18 Z " /><path fill="rgb(163,163,163)" stroke="rgb(163,163,163)" stroke-width="1" opacity="1" d="M 33 28 L 36 28.5 L 33.5 30 L 33 28 Z " /><path fill="rgb(163,163,163)" stroke="rgb(163,163,163)" stroke-width="1" opacity="1" d="M 36.5 31 L 38 34.5 L 37 34.5 L 36.5 31 Z " /><path fill="rgb(163,163,163)" stroke="rgb(163,163,163)" stroke-width="1" opacity="1" d="M 30.5 41 L 33 41.5 L 30.5 42 L 30.5 41 Z " /><path fill="rgb(163,163,163)" stroke="rgb(163,163,163)" stroke-width="1" opacity="1" d="M 126.5 128 L 127 130.5 L 125.5 132 L 39.5 132 L 39.5 131 L 125.5 131 L 126.5 128 Z " /><path fill="rgb(163,163,163)" stroke="rgb(163,163,163)" stroke-width="1" opacity="1" d="M 140 128 L 143.5 130 L 146.5 128 L 146.5 129 Q 144.3 128.3 145 130.5 L 147 130.5 Q 145.8 133.3 144.5 131 L 141.5 129 L 140 129.5 L 140 128 Z " /><path fill="rgb(163,163,163)" stroke="rgb(163,163,163)" stroke-width="1" opacity="1" d="M 32.5 129 L 31.5 131 L 32.5 129 Z " /><path fill="rgb(163,163,163)" stroke="rgb(163,163,163)" stroke-width="1" opacity="1" d="M 36.5 129 L 37.5 131 L 36.5 129 Z " /><path fill="rgb(163,163,163)" stroke="rgb(163,163,163)" stroke-width="1" opacity="1" d="M 137.5 131 L 139.5 134 L 137.5 131 Z " /><path fill="rgb(163,163,163)" stroke="rgb(163,163,163)" stroke-width="1" opacity="1" d="M 38.5 134 L 36.5 137 L 38.5 134 Z " /><path fill="rgb(163,163,163)" stroke="rgb(163,163,163)" stroke-width="1" opacity="1" d="M 40.5 134 L 120 134.5 L 40.5 135 L 40.5 134 Z " /><path fill="rgb(163,163,163)" stroke="rgb(163,163,163)" stroke-width="1" opacity="1" d="M 122.5 134 Q 126.3 133.3 127 135.5 Q 126.2 138.1 129.5 137 L 129.5 138 L 126 138 Q 127.8 133.5 122.5 135 L 122.5 134 Z " /><path fill="rgb(163,163,163)" stroke="rgb(163,163,163)" stroke-width="1" opacity="1" d="M 31.5 135 L 34 136.5 L 32.5 137 L 31.5 135 Z " /><path fill="rgb(163,163,163)" stroke="rgb(163,163,163)" stroke-width="1" opacity="1" d="M 133.5 135 L 135 135.5 L 131.5 137 L 131.5 136 L 133.5 135 Z " /><path fill="rgb(163,163,163)" stroke="rgb(163,163,163)" stroke-width="1" opacity="1" d="M 140.5 135 L 141.5 137 L 142.5 135 L 143 136.5 L 140 138 L 140.5 135 Z " /><path fill="rgb(120,120,120)" stroke="rgb(120,120,120)" stroke-width="1" opacity="1" d="M 32.5 16 L 34 18.5 L 32 17.5 L 32.5 16 Z " /><path fill="rgb(120,120,120)" stroke="rgb(120,120,120)" stroke-width="1" opacity="1" d="M 33.5 41 L 34 128.5 L 33 128.5 L 33.5 41 Z " /><path fill="rgb(120,120,120)" stroke="rgb(120,120,120)" stroke-width="1" opacity="1" d="M 141.5 130 L 143 130 L 143 134 L 145.5 134 L 145.5 135 L 141 134.5 L 142 131.5 L 141.5 130 Z " /><path fill="rgb(26,26,26)" stroke="rgb(26,26,26)" stroke-width="1" opacity="1" d="M 35.5 32 Q 35 37.1 38 38.5 L 35 39 L 34.5 41 L 31 38.5 L 35.5 32 Z " /><path fill="rgb(26,26,26)" stroke="rgb(26,26,26)" stroke-width="1" opacity="1" d="M 34.5 129 L 36 132 Q 39 131 38 134 Q 34.2 132.5 35 135.5 L 32 133.5 L 32.5 131 L 34 131.5 L 34.5 129 Z " /><path fill="rgb(26,26,26)" stroke="rgb(26,26,26)" stroke-width="1" opacity="1" d="M 129.5 130 L 131.5 133 L 132.5 131 L 134 134.5 L 133 134.5 L 132.5 133 L 129 135.5 Q 129.8 133.3 127.5 134 L 127.5 133 L 129 132.5 Q 126.8 131.3 129.5 130 Z " /><path fill="rgb(87,87,87)" stroke="rgb(87,87,87)" stroke-width="1" opacity="1" d="M 35.5 18 L 35 19.5 L 34.5 21 L 34 19.5 L 35.5 18 Z " /><path fill="rgb(87,87,87)" stroke="rgb(87,87,87)" stroke-width="1" opacity="1" d="M 34.5 29 L 35.5 31 L 34.5 29 Z " /><path fill="rgb(87,87,87)" stroke="rgb(87,87,87)" stroke-width="1" opacity="1" d="M 30.5 39 L 33 40.5 L 31.5 41 L 30.5 39 Z " /><path fill="rgb(87,87,87)" stroke="rgb(87,87,87)" stroke-width="1" opacity="1" d="M 38.5 39 L 37.5 41 L 38.5 39 Z " /><path fill="rgb(87,87,87)" stroke="rgb(87,87,87)" stroke-width="1" opacity="1" d="M 35.5 41 L 36 128.5 L 35 128.5 L 35.5 41 Z " /><path fill="rgb(87,87,87)" stroke="rgb(87,87,87)" stroke-width="1" opacity="1" d="M 33.5 129 L 31.5 132 L 33.5 129 Z " /><path fill="rgb(87,87,87)" stroke="rgb(87,87,87)" stroke-width="1" opacity="1" d="M 143.5 131 L 145 133.5 L 144 133.5 L 143.5 131 Z " /><path fill="rgb(87,87,87)" stroke="rgb(87,87,87)" stroke-width="1" opacity="1" d="M 31.5 134 L 32.5 136 L 31.5 134 Z " /><path fill="rgb(57,57,57)" stroke="rgb(57,57,57)" stroke-width="1" opacity="1" d="M 35.5 129 L 36.5 131 L 35.5 129 Z " /><path fill="rgb(57,57,57)" stroke="rgb(57,57,57)" stroke-width="1" opacity="1" d="M 39.5 132 L 126 132.5 L 39.5 133 L 39.5 132 Z " /><path fill="rgb(57,57,57)" stroke="rgb(57,57,57)" stroke-width="1" opacity="1" d="M 37.5 134 L 36.5 136 L 37.5 134 Z " /><path fill="rgb(16,16,16)" stroke="rgb(16,16,16)" stroke-width="1" opacity="1" d="M 35.5 39 L 38 39.5 L 35.5 40 L 35.5 39 Z " /><path fill="rgb(16,16,16)" stroke="rgb(16,16,16)" stroke-width="1" opacity="1" d="M 134 132 L 137 133.5 L 134 133.5 L 134 132 Z " /></svg>