<?xml version="1.0" standalone="no"?>
<!DOCTYPE svg PUBLIC "-//W3C//DTD SVG 20010904//EN"
 "http://www.w3.org/TR/2001/REC-SVG-20010904/DTD/svg10.dtd">
<svg version="1.0" xmlns="http://www.w3.org/2000/svg"
 width="482.000000pt" height="431.000000pt" viewBox="0 0 482.000000 431.000000"
 preserveAspectRatio="xMidYMid meet">

<g transform="translate(0.000000,431.000000) scale(0.100000,-0.100000)"
fill="#000000" stroke="none">
<path d="M2685 3695 c-133 -14 -241 -46 -337 -99 -96 -53 -225 -148 -328 -242
-52 -48 -232 -205 -400 -349 -576 -495 -780 -703 -980 -1000 -115 -172 -163
-286 -200 -483 -40 -218 -53 -542 -24 -662 33 -142 135 -299 257 -397 189
-151 398 -223 649 -223 387 0 768 145 1168 446 289 217 1303 1205 1746 1700
90 100 105 134 124 269 15 105 8 695 -8 746 -28 86 -125 136 -392 205 -306 79
-527 104 -895 103 -143 -1 -314 -7 -380 -14z m865 -80 c221 -30 432 -80 590
-140 165 -63 173 -90 68 -220 -98 -121 -287 -315 -307 -315 -9 0 -120 20 -246
45 -501 99 -687 135 -845 165 -91 17 -196 37 -235 45 -38 8 -162 30 -275 50
-113 20 -212 39 -220 42 -11 3 -4 14 25 39 143 125 284 214 399 254 57 19 225
46 341 54 129 8 593 -4 705 -19z m-1310 -431 c246 -53 472 -96 830 -159 113
-20 228 -40 255 -46 28 -5 154 -28 280 -50 127 -23 233 -44 237 -48 4 -4 -18
-33 -50 -64 l-58 -57 -55 14 c-94 25 -465 110 -609 140 -36 8 -141 30 -235 50
-93 21 -224 48 -290 61 -66 13 -231 47 -367 75 -135 27 -250 50 -254 50 -5 0
11 20 35 44 l43 44 61 -15 c34 -8 114 -25 177 -39z m2063 -51 c7 -120 -18
-500 -38 -568 -21 -75 -65 -137 -181 -254 l-104 -106 0 180 c0 163 -11 344
-26 450 l-5 40 167 178 c92 97 171 177 174 177 4 0 10 -44 13 -97z m-2183 -92
c212 -43 400 -83 760 -161 47 -10 126 -27 175 -39 50 -11 207 -45 350 -77 143
-31 262 -58 264 -60 6 -6 -100 -113 -322 -326 l-178 -171 -57 13 c-31 6 -246
64 -477 127 -558 152 -833 223 -1050 273 -194 44 -215 50 -215 56 0 10 107
107 277 250 95 80 175 150 178 155 10 15 40 11 295 -40z m1774 -258 c7 -18 25
-423 26 -567 l0 -79 -42 -39 c-23 -21 -45 -38 -48 -38 -4 0 -10 114 -13 253
-3 138 -11 285 -18 325 l-12 74 44 44 c48 49 54 52 63 27z m-143 -407 c6 -115
9 -254 6 -308 l-5 -99 -69 -66 c-37 -36 -140 -136 -228 -222 -88 -86 -173
-167 -188 -180 l-27 -25 0 305 c1 167 -2 319 -6 337 -7 33 -3 38 242 283 l249
249 7 -32 c4 -18 12 -127 19 -242z m-2344 218 c142 -33 438 -107 533 -132 41
-11 147 -39 235 -62 88 -24 234 -62 325 -86 91 -24 265 -70 388 -101 l223 -56
-48 -48 -48 -47 -460 114 c-718 178 -1330 338 -1344 351 -4 3 79 93 85 93 1 0
51 -11 111 -26z m28 -198 c238 -66 748 -196 1250 -317 143 -34 262 -64 265
-67 7 -6 -220 -223 -370 -355 -391 -343 -722 -527 -1080 -604 -118 -25 -406
-25 -500 1 -217 58 -365 159 -436 298 -117 230 17 541 409 944 78 81 146 153
151 161 11 21 33 16 311 -61z m1744 -659 l1 -319 -33 -31 -32 -32 -7 230 c-4
127 -12 275 -18 330 l-10 100 42 39 c38 37 42 38 49 20 4 -10 8 -162 8 -337z
m-155 101 c3 -57 8 -205 12 -329 l6 -226 -154 -145 c-256 -243 -406 -368 -598
-493 -307 -202 -566 -297 -870 -320 -240 -19 -543 67 -713 200 -99 79 -178
201 -212 330 -31 119 -32 532 -1 481 40 -67 104 -142 161 -189 172 -142 365
-195 668 -184 130 4 171 10 287 40 400 104 756 338 1325 871 39 36 73 65 77
66 3 0 9 -46 12 -102z"/>
<path d="M4104 3328 c-190 -197 -256 -288 -211 -288 30 0 297 303 297 338 0
26 -28 10 -86 -50z"/>
<path d="M4152 2523 c-34 -24 -132 -142 -132 -159 0 -8 6 -14 14 -14 19 0 176
156 176 175 0 19 -29 18 -58 -2z"/>
<path d="M1885 2989 c-109 -58 -299 -223 -293 -255 5 -30 65 -54 136 -54 54 0
62 2 62 19 0 15 -12 22 -50 31 -27 7 -50 15 -50 20 0 4 22 28 49 53 46 43 51
46 83 37 18 -6 46 -10 61 -10 37 0 33 29 -7 49 l-28 13 21 22 c18 17 37 22
114 26 78 4 92 8 95 23 3 12 -7 22 -32 32 -50 21 -114 19 -161 -6z"/>
<path d="M2038 2846 c-172 -160 -191 -180 -186 -202 6 -36 36 -26 91 30 30 31
58 56 61 56 3 0 6 -17 6 -39 0 -65 11 -101 30 -101 22 0 30 19 30 70 0 20 3
51 6 67 5 28 10 31 54 36 130 15 189 103 121 176 -49 52 -65 45 -213 -93z
m172 30 c0 -21 -24 -36 -67 -42 l-38 -6 33 31 c34 32 72 41 72 17z"/>
<path d="M2513 2852 c-17 -9 -95 -61 -172 -116 -140 -98 -217 -168 -206 -186
13 -21 46 -8 109 40 36 28 69 50 74 50 4 0 24 -8 44 -18 l36 -19 -30 -46 c-30
-46 -32 -87 -4 -87 24 0 147 166 205 275 35 68 38 87 15 109 -20 20 -32 20
-71 -2z m-37 -137 c-26 -40 -42 -55 -59 -55 -30 0 -55 17 -42 29 25 23 129 91
133 86 3 -3 -11 -30 -32 -60z"/>
<path d="M2755 2791 c-62 -29 -78 -52 -71 -103 15 -98 13 -110 -20 -130 -17
-10 -63 -24 -102 -31 -80 -15 -87 -19 -79 -41 18 -46 186 -18 245 40 37 36 38
49 16 124 -16 53 -16 55 5 72 12 9 43 20 69 23 75 10 83 15 80 38 -3 19 -10
22 -53 25 -32 1 -64 -5 -90 -17z"/>
<path d="M2863 2613 c-78 -82 -146 -159 -149 -172 -5 -18 -1 -29 15 -42 28
-23 118 -52 136 -45 29 11 15 37 -30 57 -24 11 -46 23 -49 28 -3 4 28 40 68
80 l73 72 47 -12 c34 -8 50 -9 58 -1 16 16 -5 38 -44 46 l-32 6 35 36 c33 35
36 36 94 31 69 -5 85 -1 85 19 0 21 -61 44 -117 44 l-47 0 -143 -147z"/>
<path d="M3272 2666 c-84 -69 -301 -280 -313 -303 -11 -20 -11 -26 1 -33 25
-16 29 -13 109 65 43 41 80 75 83 75 3 0 -1 -34 -9 -76 -15 -80 -13 -104 10
-104 19 0 35 39 48 119 l11 68 57 -1 c107 -1 184 65 165 142 -10 40 -61 82
-100 82 -12 0 -40 -15 -62 -34z m83 -50 c24 -17 15 -40 -27 -66 -34 -21 -93
-27 -102 -11 -6 10 82 91 99 91 6 0 20 -6 30 -14z"/>
<path d="M745 1929 c-83 -99 -179 -419 -126 -419 16 0 28 24 54 110 15 47 49
139 76 205 27 65 47 123 45 127 -9 15 -22 8 -49 -23z"/>
<path d="M2732 1913 c-94 -76 -142 -122 -142 -136 0 -39 22 -27 163 91 48 40
87 78 87 83 0 24 -54 5 -108 -38z"/>
<path d="M2809 1213 c-58 -54 -132 -120 -164 -147 -91 -76 -155 -139 -155
-153 0 -24 37 -13 101 29 78 52 359 326 359 351 0 37 -40 14 -141 -80z"/>
<path d="M534 1093 c-8 -41 10 -203 29 -260 7 -21 19 -38 27 -38 12 0 14 14
12 75 -3 81 -20 223 -29 246 -10 27 -32 14 -39 -23z"/>
</g>
</svg>
