<?xml version="1.0" standalone="no"?>
<!DOCTYPE svg PUBLIC "-//W3C//DTD SVG 20010904//EN"
 "http://www.w3.org/TR/2001/REC-SVG-20010904/DTD/svg10.dtd">
<svg version="1.0" xmlns="http://www.w3.org/2000/svg"
 width="201.000000pt" height="200.000000pt" viewBox="0 0 201.000000 200.000000"
 preserveAspectRatio="xMidYMid meet">
<metadata>
Created by potrace 1.10, written by Peter Selinger 2001-2011
</metadata>
<g transform="translate(0.000000,200.000000) scale(0.100000,-0.100000)"
fill="#000000" stroke="none">
<path d="M1603 1928 c-21 -18 -272 -265 -558 -549 -286 -285 -580 -575 -652
-646 -121 -117 -136 -135 -169 -208 -19 -44 -42 -93 -49 -110 -8 -16 -41 -93
-75 -170 -33 -77 -67 -153 -75 -168 -19 -36 -19 -51 0 -67 17 -14 22 -13 200
62 63 26 99 41 230 98 22 9 56 23 75 30 19 8 51 24 70 36 19 13 340 326 713
696 l678 673 -1 42 c0 38 -7 49 -72 120 -40 43 -91 97 -113 121 -75 82 -138
94 -202 40z m102 -36 c32 -24 225 -231 225 -241 0 -7 -28 -42 -62 -77 l-62
-65 -131 137 -130 137 60 58 c58 57 79 67 100 51z m-73 -294 l126 -133 -49
-51 -50 -51 -112 116 c-61 64 -119 122 -129 129 -10 7 -18 18 -18 23 0 12 81
95 95 97 5 1 67 -58 137 -130z m-229 -64 c26 -28 47 -54 47 -57 0 -5 -336
-340 -921 -919 -49 -49 -92 -88 -96 -87 -4 1 -29 25 -55 53 l-47 52 451 450
c248 247 476 475 507 506 31 32 58 56 61 55 3 -1 27 -25 53 -53z m157 -160
l55 -55 -290 -285 c-159 -156 -390 -384 -512 -506 l-222 -221 -53 56 -54 57
386 384 c212 211 439 438 505 504 66 65 122 120 125 121 3 0 30 -24 60 -55z
m-1193 -926 c37 -40 89 -94 116 -120 49 -51 57 -68 32 -68 -9 0 -45 -13 -82
-30 -36 -16 -71 -30 -77 -30 -6 0 -42 31 -79 68 l-68 68 25 55 c13 30 31 71
40 92 8 20 17 37 20 37 2 0 35 -32 73 -72z m-129 -228 c29 -28 52 -52 52 -54
0 -2 -12 -7 -27 -11 -16 -3 -57 -20 -92 -36 -35 -17 -65 -28 -67 -26 -2 2 7
25 20 50 14 25 30 64 37 86 7 23 15 41 19 41 3 0 30 -23 58 -50z m-140 -143
c9 -10 4 -17 -18 -31 -29 -16 -30 -16 -30 1 0 19 18 43 31 43 4 0 11 -6 17
-13z"/>
</g>
</svg>
