<svg width="72" height="56" version="1.1" xmlns="http://www.w3.org/2000/svg" desc="Created with imagetracer.js version 1.2.6" ><path fill="rgb(73,73,73)" stroke="rgb(73,73,73)" stroke-width="1" opacity="1" d="M 23 24 L 47.5 24 L 48 24.5 L 48 30 L 23.5 30 L 23 29.5 L 23 24 Z " /><path fill="rgb(254,254,254)" stroke="rgb(254,254,254)" stroke-width="1" opacity="1" d="M 18.5 24 L 21 25.5 L 19 28.5 L 20.5 29 L 22.5 24 L 23 29.5 L 20.5 30 Q 18.3 29.3 19 31.5 L 18 31.5 L 19 29.5 L 17 29 L 16.5 31 L 16 29.5 L 19 27.5 L 16 26.5 L 20 25.5 L 18.5 24 Z " /><path fill="rgb(254,254,254)" stroke="rgb(254,254,254)" stroke-width="1" opacity="1" d="M 48.5 24 L 51 24.5 L 53 27.5 L 51.5 28 L 49 26.5 L 51 31.5 L 50 31.5 L 49.5 30 L 48 30.5 L 48.5 24 Z " /><path fill="rgb(254,254,254)" stroke="rgb(254,254,254)" stroke-width="1" opacity="1" d="M 54 28 L 56 28.5 L 52 31.5 L 52.5 29 L 54 29.5 L 54 28 Z " /><path fill="rgb(254,254,254)" stroke="rgb(254,254,254)" stroke-width="1" opacity="1" d="M 42 30 Q 45 29 44 32 Q 41 33 42 30 Z " /><path fill="rgb(255,255,255)" stroke="rgb(255,255,255)" stroke-width="1" opacity="1" d="M 0 0 L 72 0 L 72 56 L 0 56 L 0 0 Z M 22 24 L 21 29 L 23 30 L 40 30 L 41 32 L 42 30 L 42 32 L 46 30 L 47 32 L 47 31 L 50 30 L 49 27 L 52 28 L 53 28 L 51 25 L 50 25 L 49 24 L 22 24 Z M 17 26 Q 16 28 19 27 L 20 28 Q 21 25 17 26 Z M 54 28 L 54 30 L 56 29 L 54 28 Z M 53 29 L 53 32 Q 56 31 53 29 Z " /></svg>