<svg width="121" height="83" version="1.1" xmlns="http://www.w3.org/2000/svg" desc="Created with imagetracer.js version 1.2.6" ><path fill="rgb(245,245,245)" stroke="rgb(245,245,245)" stroke-width="1" opacity="1" d="M 50.5 24 L 52.5 24 L 54.5 25 L 55.5 24 L 64.5 24 L 66.5 24 L 69.5 26 L 71 25.5 L 70.5 27 Q 72.8 26.3 72 28.5 L 75 30.5 L 73 26.5 L 75 25.5 L 74 27.5 L 76 30.5 L 76 32.5 L 80 38.5 L 79 40.5 L 80 42.5 L 77 47.5 L 77.5 49 L 76 48.5 L 75 52.5 L 78 51.5 L 75.5 55 L 74.5 53 L 73.5 56 L 70.5 55 L 68 56.5 L 70 57.5 L 68.5 58 L 65 56.5 Q 72.1 55.1 75 49.5 L 76 46 L 78 45.5 Q 75.2 43.8 77 37.5 L 77.5 36 Q 75.3 36.8 76 34.5 L 70.5 28 L 62.5 25 L 57.5 25 Q 49 26.5 45 32.5 L 43.5 36 L 43 34 L 41 33.5 L 43 32.5 L 43.5 34 L 45 31.5 L 44 29.5 L 47 27.5 L 45.5 30 L 49 27.5 Q 46.3 25.7 50.5 24 Z M 51 25 L 49 27 L 51 27 L 51 25 Z " /><path fill="rgb(245,245,245)" stroke="rgb(245,245,245)" stroke-width="1" opacity="1" d="M 40.5 35 Q 44.8 36.8 43 44.5 L 42 44.5 L 41.5 37 L 40 37.5 L 40.5 35 Z " /><path fill="rgb(245,245,245)" stroke="rgb(245,245,245)" stroke-width="1" opacity="1" d="M 43.5 49 L 52.5 56 L 63.5 57 L 67 58.5 L 64.5 59 L 62.5 58 L 62.5 60 L 58 60 Q 59.1 57.3 56.5 58 L 53.5 59 L 53.5 58 L 55 57.5 L 49.5 55 L 45.5 55 L 44 54.5 L 45.5 52 L 43.5 53 L 44.5 50 L 42.5 51 L 43.5 49 Z " /><path fill="rgb(255,255,255)" stroke="rgb(255,255,255)" stroke-width="1" opacity="1" d="M 0 0 L 121 0 L 121 83 L 0 83 L 0 0 Z M 53 24 L 51 27 L 46 30 L 44 30 L 45 32 L 42 38 L 43 48 L 43 50 L 45 50 L 44 52 L 46 52 L 47 55 Q 48 57 50 55 L 55 58 L 54 58 L 54 59 L 57 58 Q 59 57 58 60 L 63 60 L 62 59 L 73 55 Q 76 53 76 49 Q 79 47 77 46 L 79 46 L 80 43 L 79 41 L 80 39 L 79 37 L 78 37 L 78 36 L 72 27 L 67 24 L 65 24 L 56 24 L 55 25 L 53 24 Z M 43 32 L 41 34 L 43 34 L 43 32 Z M 46 53 L 44 55 L 46 55 L 46 53 Z M 65 58 L 65 59 L 67 59 L 65 58 Z " /><path fill="rgb(1,1,1)" stroke="rgb(1,1,1)" stroke-width="1" opacity="1" d="M 55 26 L 64.5 26 L 66.5 28 Q 68 25.5 69.5 29 L 73 31.5 Q 77 35.5 77 43.5 Q 74.8 50.3 69.5 54 L 66.5 55 L 65 54.5 L 64.5 56 L 55.5 56 L 48 51.5 L 55 50.5 L 52 49.5 L 54.5 48 L 56 50.5 L 53 52.5 L 63.5 53 L 67.5 52 L 72 48.5 L 70.5 48 L 66.5 51 L 65 48.5 L 66.5 48 L 68.5 48 Q 71.5 48.9 70 44.5 L 71.5 42 L 73 42.5 L 72.5 39 L 68 40 L 67.5 31 L 64.5 32 L 59.5 31 L 56 32 L 56 36 L 50 36 L 50 40 L 48.5 40 L 45.5 39 L 45.5 40 Q 48.9 39.1 47 44.5 L 49.5 49 L 51 49.5 L 48.5 50 L 46 49.5 L 43 43.5 L 43 39 L 45 38.5 L 44 36.5 L 46.5 33 Q 48.8 32.3 48 34.5 L 46 34.5 L 46 36 L 50 36 Q 52.1 30.8 47.5 32 L 49.5 29 L 53.5 27 L 55 27.5 L 55 26 Z M 59 29 L 59 30 L 62 30 L 59 29 Z M 65 29 L 62 31 L 65 31 L 65 29 Z M 56 30 L 56 31 L 58 31 L 56 30 Z M 75 42 L 73 45 L 76 43 L 75 42 Z " /><path fill="rgb(0,0,0)" stroke="rgb(0,0,0)" stroke-width="1" opacity="1" d="M 64.5 27 L 65 29.5 L 66.5 32 L 69 30.5 L 68 31.5 L 68 40 Q 72.3 41 73.5 38 L 73 39.5 L 73.5 43 L 75.5 42 L 73.5 45 L 71.5 42 L 70 48 L 73 49.5 L 69 52.5 L 70.5 50 L 64 52.5 L 65.5 55 L 63.5 53 L 53.5 53 L 52 53.5 L 55 51.5 L 47 51 L 47.5 49 L 50.5 50 L 50.5 49 L 48 47.5 L 47.5 45 L 46 45.5 L 47 40 L 44 38.5 L 46.5 37 L 46.5 38 L 45 38.5 L 50 40 L 50 36 L 46 36 L 46 34.5 L 48 34.5 L 47 32.5 L 50 32 L 50 36 L 56 36 Q 53.9 30.8 58.5 32 L 62 30.5 L 58.5 30 L 54.5 32 L 52 31.5 Q 53.8 27.3 55.5 30 L 61.5 29 L 63.5 30 L 64.5 27 Z M 63 31 L 63 32 L 65 32 L 63 31 Z M 55 48 L 52 50 L 55 50 L 55 48 Z M 66 48 L 66 51 L 68 50 L 66 48 Z " /><path fill="rgb(0,0,0)" stroke="rgb(0,0,0)" stroke-width="1" opacity="1" d="M 72.5 33 L 75 36.5 L 72 36.5 L 73 34.5 L 72.5 33 Z " /><path fill="rgb(66,66,66)" stroke="rgb(66,66,66)" stroke-width="1" opacity="1" d="M 57.5 25 L 63 25.5 L 57.5 26 L 57.5 25 Z " /><path fill="rgb(66,66,66)" stroke="rgb(66,66,66)" stroke-width="1" opacity="1" d="M 51.5 27 L 50.5 29 L 47 31.5 L 43.5 39 L 43 36.5 L 49.5 28 L 51.5 27 Z " /><path fill="rgb(66,66,66)" stroke="rgb(66,66,66)" stroke-width="1" opacity="1" d="M 68.5 27 L 75 32.5 L 77 38.5 L 76 38.5 Q 75.1 31.9 70.5 29 L 68.5 27 Z " /><path fill="rgb(66,66,66)" stroke="rgb(66,66,66)" stroke-width="1" opacity="1" d="M 43.5 44 Q 45.4 50.6 50.5 54 Q 55.2 57.3 64.5 56 Q 71 54.5 74 49.5 L 75.5 47 L 75 48.5 L 69.5 55 Q 64.8 58.3 55.5 57 Q 47.6 54.9 44 48.5 L 43.5 44 Z " /></svg>