<svg width="65" height="56" version="1.1" xmlns="http://www.w3.org/2000/svg" desc="Created with imagetracer.js version 1.2.6" ><path fill="rgb(61,61,61)" stroke="rgb(61,61,61)" stroke-width="1" opacity="1" d="M 53.5 3 L 54 5.5 L 53 5.5 L 53.5 3 Z " /><path fill="rgb(61,61,61)" stroke="rgb(61,61,61)" stroke-width="1" opacity="1" d="M 7.5 4 L 8 6.5 L 7.5 8 L 9.5 9 Q 14.3 6.5 12.5 4 L 14 5.5 L 9.5 10 L 7 9 L 6.5 11 L 6 6.5 L 7.5 4 Z " /><path fill="rgb(61,61,61)" stroke="rgb(61,61,61)" stroke-width="1" opacity="1" d="M 24.5 4 L 26 7.5 L 25 7.5 L 24.5 4 Z " /><path fill="rgb(61,61,61)" stroke="rgb(61,61,61)" stroke-width="1" opacity="1" d="M 44.5 4 Q 48.5 3.5 49 6.5 L 47.5 6 Q 43.8 5.7 44.5 4 Z " /><path fill="rgb(61,61,61)" stroke="rgb(61,61,61)" stroke-width="1" opacity="1" d="M 36.5 5 L 35.5 7 L 36.5 5 Z " /><path fill="rgb(61,61,61)" stroke="rgb(61,61,61)" stroke-width="1" opacity="1" d="M 31.5 8 L 32 10.5 L 31 10.5 L 31.5 8 Z " /><path fill="rgb(61,61,61)" stroke="rgb(61,61,61)" stroke-width="1" opacity="1" d="M 26.5 11 L 27 42.5 L 26 42.5 L 26.5 11 Z " /><path fill="rgb(61,61,61)" stroke="rgb(61,61,61)" stroke-width="1" opacity="1" d="M 53.5 14 Q 55.8 13.3 55 15.5 L 53.5 14 Z " /><path fill="rgb(61,61,61)" stroke="rgb(61,61,61)" stroke-width="1" opacity="1" d="M 31.5 44 L 32 47.5 L 31 47.5 L 31.5 44 Z " /><path fill="rgb(61,61,61)" stroke="rgb(61,61,61)" stroke-width="1" opacity="1" d="M 34.5 44 L 35 46.5 L 34 46.5 L 34.5 44 Z " /><path fill="rgb(61,61,61)" stroke="rgb(61,61,61)" stroke-width="1" opacity="1" d="M 33.5 49 L 34.5 51 L 33.5 49 Z " /><path fill="rgb(247,247,248)" stroke="rgb(247,247,248)" stroke-width="1" opacity="1" d="M 11.5 0 L 14 1.5 L 12.5 1 L 11.5 0 Z " /><path fill="rgb(247,247,248)" stroke="rgb(247,247,248)" stroke-width="1" opacity="1" d="M 5.5 1 Q 8.5 2.5 5.5 4 Q 2.5 2.5 5.5 1 Z " /><path fill="rgb(247,247,248)" stroke="rgb(247,247,248)" stroke-width="1" opacity="1" d="M 0.5 4 L 3 5.5 L 1.5 6 L 0.5 4 Z " /><path fill="rgb(247,247,248)" stroke="rgb(247,247,248)" stroke-width="1" opacity="1" d="M 3 7 Q 6 6 5 9 L 3 9.5 L 5 10.5 L 3 11.5 L 2 9.5 L 3 7 Z " /><path fill="rgb(247,247,248)" stroke="rgb(247,247,248)" stroke-width="1" opacity="1" d="M 24.5 16 L 25 39.5 L 24 39.5 L 24.5 16 Z " /><path fill="rgb(247,247,248)" stroke="rgb(247,247,248)" stroke-width="1" opacity="1" d="M 29.5 16 L 30 39.5 L 28 40.5 L 29 39.5 L 29.5 16 Z " /><path fill="rgb(247,247,248)" stroke="rgb(247,247,248)" stroke-width="1" opacity="1" d="M 38.5 16 L 39 39.5 L 38 39.5 L 38.5 16 Z " /><path fill="rgb(247,247,248)" stroke="rgb(247,247,248)" stroke-width="1" opacity="1" d="M 3.5 17 L 4 19 L 6.5 20 L 8 19.5 L 5.5 21 Q 1.9 19.9 3.5 17 Z " /><path fill="rgb(247,247,248)" stroke="rgb(247,247,248)" stroke-width="1" opacity="1" d="M 54 18 L 56 18.5 L 54 19.5 L 54 18 Z " /><path fill="rgb(247,247,248)" stroke="rgb(247,247,248)" stroke-width="1" opacity="1" d="M 3.5 24 L 4 55.5 L 3 55.5 L 3.5 24 Z " /><path fill="rgb(247,247,248)" stroke="rgb(247,247,248)" stroke-width="1" opacity="1" d="M 46.5 52 L 47.5 54 L 46.5 52 Z " /><path fill="rgb(247,247,248)" stroke="rgb(247,247,248)" stroke-width="1" opacity="1" d="M 22.5 53 L 20.5 56 L 19.5 54 Q 21 56.5 22.5 53 Z " /><path fill="rgb(247,247,248)" stroke="rgb(247,247,248)" stroke-width="1" opacity="1" d="M 29.5 53 L 31 55.5 L 29 54.5 L 29.5 53 Z " /><path fill="rgb(9,9,9)" stroke="rgb(9,9,9)" stroke-width="1" opacity="1" d="M 13.5 3 L 16 3.5 L 13.5 4 L 13.5 3 Z " /><path fill="rgb(9,9,9)" stroke="rgb(9,9,9)" stroke-width="1" opacity="1" d="M 21.5 3 L 24 3.5 L 21.5 4 L 21.5 3 Z " /><path fill="rgb(9,9,9)" stroke="rgb(9,9,9)" stroke-width="1" opacity="1" d="M 35.5 3 L 39 3.5 L 36.5 5 L 35.5 3 Z " /><path fill="rgb(9,9,9)" stroke="rgb(9,9,9)" stroke-width="1" opacity="1" d="M 43.5 3 L 46 3.5 L 43.5 4 L 43.5 3 Z " /><path fill="rgb(9,9,9)" stroke="rgb(9,9,9)" stroke-width="1" opacity="1" d="M 51.5 3 L 53 3.5 L 53 10 L 51 9.5 L 52 4.5 L 51.5 3 Z " /><path fill="rgb(9,9,9)" stroke="rgb(9,9,9)" stroke-width="1" opacity="1" d="M 12.5 5 L 9.5 9 L 12.5 5 Z " /><path fill="rgb(9,9,9)" stroke="rgb(9,9,9)" stroke-width="1" opacity="1" d="M 34.5 6 L 34 7.5 L 33 9.5 L 33 43.5 L 35 49 L 38 50.5 L 35 51 Q 36.1 48.3 33.5 49 L 32 47.5 L 32 7 L 34.5 6 Z " /><path fill="rgb(9,9,9)" stroke="rgb(9,9,9)" stroke-width="1" opacity="1" d="M 7 10 L 9 10.5 L 6.5 14 L 6 12.5 L 7 10 Z " /><path fill="rgb(9,9,9)" stroke="rgb(9,9,9)" stroke-width="1" opacity="1" d="M 52.5 11 L 54 13.5 L 53 13.5 L 52.5 11 Z " /><path fill="rgb(223,223,223)" stroke="rgb(223,223,223)" stroke-width="1" opacity="1" d="M 7.5 2 L 54 2.5 L 7.5 3 L 7.5 2 Z " /><path fill="rgb(223,223,223)" stroke="rgb(223,223,223)" stroke-width="1" opacity="1" d="M 29.5 4 Q 33.9 2.5 33 5.5 L 31 6.5 L 31.5 5 Q 28.5 5.5 29.5 4 Z " /><path fill="rgb(223,223,223)" stroke="rgb(223,223,223)" stroke-width="1" opacity="1" d="M 48.5 4 L 51 4.5 L 48.5 5 L 48.5 4 Z " /><path fill="rgb(223,223,223)" stroke="rgb(223,223,223)" stroke-width="1" opacity="1" d="M 54.5 4 L 55 7.5 L 54 7.5 L 54.5 4 Z " /><path fill="rgb(223,223,223)" stroke="rgb(223,223,223)" stroke-width="1" opacity="1" d="M 37.5 5 L 35.5 8 L 37.5 5 Z " /><path fill="rgb(223,223,223)" stroke="rgb(223,223,223)" stroke-width="1" opacity="1" d="M 13.5 6 L 9.5 11 L 13.5 6 Z " /><path fill="rgb(223,223,223)" stroke="rgb(223,223,223)" stroke-width="1" opacity="1" d="M 5.5 7 L 6 14.5 L 5 14.5 L 5.5 7 Z " /><path fill="rgb(223,223,223)" stroke="rgb(223,223,223)" stroke-width="1" opacity="1" d="M 25.5 10 L 26 44.5 L 25 44.5 L 25.5 10 Z " /><path fill="rgb(223,223,223)" stroke="rgb(223,223,223)" stroke-width="1" opacity="1" d="M 7.5 15 L 6.5 17 L 5 16.5 L 7.5 15 Z " /><path fill="rgb(223,223,223)" stroke="rgb(223,223,223)" stroke-width="1" opacity="1" d="M 55.5 15 L 56 17 L 53 16.5 L 55.5 15 Z " /><path fill="rgb(223,223,223)" stroke="rgb(223,223,223)" stroke-width="1" opacity="1" d="M 24.5 46 L 25 47.5 L 23 48.5 L 24.5 46 Z " /><path fill="rgb(223,223,223)" stroke="rgb(223,223,223)" stroke-width="1" opacity="1" d="M 31.5 48 L 32.5 50 L 31.5 48 Z " /><path fill="rgb(251,251,251)" stroke="rgb(251,251,251)" stroke-width="1" opacity="1" d="M 10.5 0 L 9.5 2 L 10.5 0 Z " /><path fill="rgb(251,251,251)" stroke="rgb(251,251,251)" stroke-width="1" opacity="1" d="M 23.5 0 L 25 0.5 L 22.5 2 L 23.5 0 Z " /><path fill="rgb(251,251,251)" stroke="rgb(251,251,251)" stroke-width="1" opacity="1" d="M 27.5 0 L 29.5 0 L 31 0.5 L 28.5 2 L 27.5 0 Z " /><path fill="rgb(251,251,251)" stroke="rgb(251,251,251)" stroke-width="1" opacity="1" d="M 32.5 0 L 34.5 0 L 36 0.5 L 32 2 L 32.5 0 Z " /><path fill="rgb(251,251,251)" stroke="rgb(251,251,251)" stroke-width="1" opacity="1" d="M 40.5 0 L 41.5 2 L 40.5 0 Z " /><path fill="rgb(251,251,251)" stroke="rgb(251,251,251)" stroke-width="1" opacity="1" d="M 48.5 0 L 51 0.5 Q 48.9 3.8 48.5 0 Z " /><path fill="rgb(251,251,251)" stroke="rgb(251,251,251)" stroke-width="1" opacity="1" d="M 21.5 5 L 19.5 8 L 21.5 5 Z " /><path fill="rgb(251,251,251)" stroke="rgb(251,251,251)" stroke-width="1" opacity="1" d="M 27.5 5 Q 29.8 4.3 29 6.5 L 27.5 5 Z " /><path fill="rgb(251,251,251)" stroke="rgb(251,251,251)" stroke-width="1" opacity="1" d="M 41.5 5 L 44.5 7 L 46 6.5 Q 46.8 8.8 44.5 8 L 42.5 7 L 41 7.5 L 41.5 5 Z " /><path fill="rgb(251,251,251)" stroke="rgb(251,251,251)" stroke-width="1" opacity="1" d="M 15.5 6 L 16.5 8 L 15 7.5 Q 16.1 10.8 13.5 10 L 14.5 12 L 16 11.5 L 14.5 15 L 13.5 12 L 12 12.5 L 12.5 11 L 11 10.5 L 13 9.5 L 12.5 8 L 14 8.5 L 15.5 6 Z " /><path fill="rgb(251,251,251)" stroke="rgb(251,251,251)" stroke-width="1" opacity="1" d="M 38.5 6 L 37.5 8 L 38.5 6 Z " /><path fill="rgb(251,251,251)" stroke="rgb(251,251,251)" stroke-width="1" opacity="1" d="M 28.5 9 L 31 9.5 L 31 39.5 L 31 41.5 L 30.5 44 L 29 40.5 L 30 39.5 L 30 16.5 L 30 14.5 Q 31.9 9.1 28.5 10 L 28.5 9 Z " /><path fill="rgb(251,251,251)" stroke="rgb(251,251,251)" stroke-width="1" opacity="1" d="M 48.5 9 L 49.5 11 L 48.5 9 Z " /><path fill="rgb(251,251,251)" stroke="rgb(251,251,251)" stroke-width="1" opacity="1" d="M 37.5 10 L 38 12.5 L 37 12.5 L 37.5 10 Z " /><path fill="rgb(251,251,251)" stroke="rgb(251,251,251)" stroke-width="1" opacity="1" d="M 3.5 12 L 4 14.5 L 3 14.5 L 3.5 12 Z " /><path fill="rgb(251,251,251)" stroke="rgb(251,251,251)" stroke-width="1" opacity="1" d="M 49.5 12 Q 54.2 14.3 50 16.5 L 48.5 21 L 48 19.5 L 49 17.5 Q 46.8 16.3 49.5 15 L 51 14.5 L 49.5 12 Z " /><path fill="rgb(251,251,251)" stroke="rgb(251,251,251)" stroke-width="1" opacity="1" d="M 9.5 13 L 10.5 15 L 9.5 13 Z " /><path fill="rgb(251,251,251)" stroke="rgb(251,251,251)" stroke-width="1" opacity="1" d="M 3.5 20 Q 6.1 19.2 5 22.5 L 3 23.5 L 4 21.5 L 3.5 20 Z " /><path fill="rgb(251,251,251)" stroke="rgb(251,251,251)" stroke-width="1" opacity="1" d="M 51.5 20 L 53 20.5 L 50.5 22 L 51.5 20 Z " /><path fill="rgb(251,251,251)" stroke="rgb(251,251,251)" stroke-width="1" opacity="1" d="M 6 22 L 8 22.5 L 6 23.5 L 6 22 Z " /><path fill="rgb(251,251,251)" stroke="rgb(251,251,251)" stroke-width="1" opacity="1" d="M 53.5 22 L 56 22.5 L 53.5 23 L 53.5 22 Z " /><path fill="rgb(251,251,251)" stroke="rgb(251,251,251)" stroke-width="1" opacity="1" d="M 36.5 40 L 38 40.5 L 36 41 L 37.5 44 L 38.5 42 L 39 44.5 L 37 45.5 L 35 41.5 L 36.5 40 Z " /><path fill="rgb(251,251,251)" stroke="rgb(251,251,251)" stroke-width="1" opacity="1" d="M 39.5 46 L 38.5 48 L 39.5 46 Z " /><path fill="rgb(251,251,251)" stroke="rgb(251,251,251)" stroke-width="1" opacity="1" d="M 17.5 48 L 20 49.5 L 18.5 50 L 16 49.5 L 17.5 48 Z " /><path fill="rgb(251,251,251)" stroke="rgb(251,251,251)" stroke-width="1" opacity="1" d="M 43.5 48 L 48 51.5 L 45 52 L 43.5 49 L 42 49.5 L 43.5 48 Z " /><path fill="rgb(251,251,251)" stroke="rgb(251,251,251)" stroke-width="1" opacity="1" d="M 46.5 48 L 47.5 50 L 46.5 48 Z " /><path fill="rgb(251,251,251)" stroke="rgb(251,251,251)" stroke-width="1" opacity="1" d="M 17.5 53 L 19 53.5 L 16.5 55 L 17.5 53 Z " /><path fill="rgb(251,251,251)" stroke="rgb(251,251,251)" stroke-width="1" opacity="1" d="M 24.5 53 L 23.5 55 L 24.5 53 Z " /><path fill="rgb(251,251,251)" stroke="rgb(251,251,251)" stroke-width="1" opacity="1" d="M 27.5 53 L 29 53.5 L 28.5 55 L 31.5 53 L 29.5 56 L 26.5 55 L 25 55.5 L 27.5 53 Z " /><path fill="rgb(251,251,251)" stroke="rgb(251,251,251)" stroke-width="1" opacity="1" d="M 34.5 53 Q 39.3 52.3 41 54.5 L 39.5 55 L 35.5 54 L 35.5 56 L 33 54.5 L 34.5 53 Z " /><path fill="rgb(251,251,251)" stroke="rgb(251,251,251)" stroke-width="1" opacity="1" d="M 45.5 53 L 43.5 56 L 42.5 54 Q 44 56.5 45.5 53 Z " /><path fill="rgb(251,251,251)" stroke="rgb(251,251,251)" stroke-width="1" opacity="1" d="M 47.5 54 L 46.5 56 L 47.5 54 Z " /><path fill="rgb(248,248,248)" stroke="rgb(248,248,248)" stroke-width="1" opacity="1" d="M 26.5 0 L 27.5 2 L 26.5 0 Z " /><path fill="rgb(248,248,248)" stroke="rgb(248,248,248)" stroke-width="1" opacity="1" d="M 54.5 0 L 64.5 0 L 65 0.5 L 65 56 L 48 56 L 48 48 L 41.5 48 L 41.5 50 L 39 48.5 L 40 47.5 L 40 13.5 L 38.5 11 Q 41.1 11.7 40 9 Q 37 10 38 7 Q 40.7 8.1 40 5.5 L 41 5.5 L 41 8 L 47.5 8 L 48 9.5 L 48 11.5 L 49 15.5 Q 46.3 17.2 48 23.5 L 50.5 24 Q 55 25 56 22.5 L 56 9.5 L 55 8.5 L 56 7.5 L 56 1 L 54.5 0 Z " /><path fill="rgb(248,248,248)" stroke="rgb(248,248,248)" stroke-width="1" opacity="1" d="M 5.5 2 L 4.5 4 L 5.5 2 Z " /><path fill="rgb(248,248,248)" stroke="rgb(248,248,248)" stroke-width="1" opacity="1" d="M 16.5 6 Q 18.8 9 24 8 L 24 14.5 L 25 15.5 L 24 16.5 L 24 48 L 20.5 49 L 16 48 L 16 56 L 5 56 L 5 24.5 L 4 23.5 L 5.5 24 L 8 24 L 8 16 L 10.5 16 L 14.5 16 L 16 15.5 L 16 8.5 L 16.5 6 Z " /><path fill="rgb(248,248,248)" stroke="rgb(248,248,248)" stroke-width="1" opacity="1" d="M 29.5 10 L 28.5 12 L 29.5 10 Z " /><path fill="rgb(248,248,248)" stroke="rgb(248,248,248)" stroke-width="1" opacity="1" d="M 11.5 12 L 12 14 L 10 13.5 L 11.5 12 Z " /><path fill="rgb(248,248,248)" stroke="rgb(248,248,248)" stroke-width="1" opacity="1" d="M 35 12 L 37 12.5 L 35 13.5 L 35 12 Z " /><path fill="rgb(248,248,248)" stroke="rgb(248,248,248)" stroke-width="1" opacity="1" d="M 3.5 15 L 5.5 18 L 3.5 15 Z " /><path fill="rgb(248,248,248)" stroke="rgb(248,248,248)" stroke-width="1" opacity="1" d="M 37 15 L 39 15.5 L 38 16.5 L 37.5 40 L 37 15 Z " /><path fill="rgb(248,248,248)" stroke="rgb(248,248,248)" stroke-width="1" opacity="1" d="M 28.5 16 L 29 39.5 L 28 39.5 L 28.5 16 Z " /><path fill="rgb(248,248,248)" stroke="rgb(248,248,248)" stroke-width="1" opacity="1" d="M 35.5 16 L 36 39.5 L 35 39.5 L 35.5 16 Z " /><path fill="rgb(248,248,248)" stroke="rgb(248,248,248)" stroke-width="1" opacity="1" d="M 2.5 17 L 4 19.5 L 2 18.5 L 2.5 17 Z " /><path fill="rgb(248,248,248)" stroke="rgb(248,248,248)" stroke-width="1" opacity="1" d="M 19.5 53 L 21.5 56 L 19.5 53 Z " /><path fill="rgb(246,246,246)" stroke="rgb(246,246,246)" stroke-width="1" opacity="1" d="M 6.5 0 L 7.5 2 Q 4.7 2.7 6.5 0 Z " /><path fill="rgb(246,246,246)" stroke="rgb(246,246,246)" stroke-width="1" opacity="1" d="M 18 0 L 20 0.5 L 18 1.5 L 18 0 Z " /><path fill="rgb(246,246,246)" stroke="rgb(246,246,246)" stroke-width="1" opacity="1" d="M 3.5 5 L 5 5.5 L 3 6 L 2.5 8 L 2 6.5 L 3.5 5 Z " /><path fill="rgb(246,246,246)" stroke="rgb(246,246,246)" stroke-width="1" opacity="1" d="M 20.5 5 L 22 7.5 L 21 7.5 L 20.5 5 Z " /><path fill="rgb(246,246,246)" stroke="rgb(246,246,246)" stroke-width="1" opacity="1" d="M 30.5 5 L 30 6.5 L 29.5 8 L 29 6.5 L 30.5 5 Z " /><path fill="rgb(246,246,246)" stroke="rgb(246,246,246)" stroke-width="1" opacity="1" d="M 14.5 6 L 16 9.5 L 15 9.5 L 14.5 6 Z " /><path fill="rgb(246,246,246)" stroke="rgb(246,246,246)" stroke-width="1" opacity="1" d="M 0.5 7 L 2 9.5 L 0 10.5 L 0 8.5 L 0.5 7 Z " /><path fill="rgb(246,246,246)" stroke="rgb(246,246,246)" stroke-width="1" opacity="1" d="M 36.5 8 L 37 11.5 L 36 11.5 L 35 9.5 L 36.5 8 Z " /><path fill="rgb(246,246,246)" stroke="rgb(246,246,246)" stroke-width="1" opacity="1" d="M 13.5 10 L 12.5 12 L 13.5 10 Z " /><path fill="rgb(246,246,246)" stroke="rgb(246,246,246)" stroke-width="1" opacity="1" d="M 10.5 11 L 9.5 13 L 10.5 11 Z " /><path fill="rgb(246,246,246)" stroke="rgb(246,246,246)" stroke-width="1" opacity="1" d="M 29.5 11 L 30 13.5 L 29 13.5 L 29.5 11 Z " /><path fill="rgb(246,246,246)" stroke="rgb(246,246,246)" stroke-width="1" opacity="1" d="M 2.5 12 L 2 13.5 L 1.5 15 L 1 13.5 L 2.5 12 Z " /><path fill="rgb(246,246,246)" stroke="rgb(246,246,246)" stroke-width="1" opacity="1" d="M 38.5 12 L 39 14.5 L 38 14.5 L 38.5 12 Z " /><path fill="rgb(246,246,246)" stroke="rgb(246,246,246)" stroke-width="1" opacity="1" d="M 15.5 14 L 14.5 16 L 15.5 14 Z " /><path fill="rgb(246,246,246)" stroke="rgb(246,246,246)" stroke-width="1" opacity="1" d="M 52.5 16 L 53.5 18 L 52.5 16 Z " /><path fill="rgb(246,246,246)" stroke="rgb(246,246,246)" stroke-width="1" opacity="1" d="M 48.5 18 L 51 19.5 L 49.5 20 L 48.5 18 Z " /><path fill="rgb(246,246,246)" stroke="rgb(246,246,246)" stroke-width="1" opacity="1" d="M 53.5 19 L 55 21.5 L 52.5 22 L 53 20.5 L 53.5 19 Z " /><path fill="rgb(246,246,246)" stroke="rgb(246,246,246)" stroke-width="1" opacity="1" d="M 5.5 21 L 8 21.5 L 5.5 22 L 5.5 21 Z " /><path fill="rgb(246,246,246)" stroke="rgb(246,246,246)" stroke-width="1" opacity="1" d="M 2.5 24 L 3 55.5 L 2 55.5 L 2.5 24 Z " /><path fill="rgb(246,246,246)" stroke="rgb(246,246,246)" stroke-width="1" opacity="1" d="M 29 47 L 31 47.5 L 30.5 50 Q 27.5 50.7 29 47 Z " /><path fill="rgb(246,246,246)" stroke="rgb(246,246,246)" stroke-width="1" opacity="1" d="M 19.5 48 L 20.5 50 L 19.5 48 Z " /><path fill="rgb(246,246,246)" stroke="rgb(246,246,246)" stroke-width="1" opacity="1" d="M 17.5 49 L 17 50.5 L 16.5 52 L 16 50.5 L 17.5 49 Z " /><path fill="rgb(246,246,246)" stroke="rgb(246,246,246)" stroke-width="1" opacity="1" d="M 45.5 49 L 46.5 51 L 45.5 49 Z " /><path fill="rgb(246,246,246)" stroke="rgb(246,246,246)" stroke-width="1" opacity="1" d="M 43.5 50 L 44.5 52 L 43.5 50 Z " /><path fill="rgb(246,246,246)" stroke="rgb(246,246,246)" stroke-width="1" opacity="1" d="M 28.5 54 L 27.5 56 L 28.5 54 Z " /><path fill="rgb(160,160,161)" stroke="rgb(160,160,161)" stroke-width="1" opacity="1" d="M 6.5 3 L 7 5.5 L 6 5.5 L 6.5 3 Z " /><path fill="rgb(160,160,161)" stroke="rgb(160,160,161)" stroke-width="1" opacity="1" d="M 11.5 4 L 8.5 8 L 7 7.5 L 11.5 4 Z " /><path fill="rgb(160,160,161)" stroke="rgb(160,160,161)" stroke-width="1" opacity="1" d="M 25.5 4 L 27 6.5 L 24.5 7 L 23 5.5 L 25 5.5 L 25.5 4 Z " /><path fill="rgb(160,160,161)" stroke="rgb(160,160,161)" stroke-width="1" opacity="1" d="M 33 4 L 35 4.5 L 33 5.5 L 33 4 Z " /><path fill="rgb(160,160,161)" stroke="rgb(160,160,161)" stroke-width="1" opacity="1" d="M 47.5 4 L 52 7.5 L 50 8.5 L 50.5 10 L 47 6.5 L 47.5 4 Z " /><path fill="rgb(160,160,161)" stroke="rgb(160,160,161)" stroke-width="1" opacity="1" d="M 27.5 8 L 28 47.5 L 26.5 50 L 34 50.5 L 24.5 51 L 27 47.5 L 27.5 8 Z " /><path fill="rgb(160,160,161)" stroke="rgb(160,160,161)" stroke-width="1" opacity="1" d="M 54.5 8 L 55 13.5 L 54 13.5 L 54.5 8 Z " /><path fill="rgb(160,160,161)" stroke="rgb(160,160,161)" stroke-width="1" opacity="1" d="M 34.5 10 L 35 43.5 L 34 43.5 L 34.5 10 Z " /><path fill="rgb(160,160,161)" stroke="rgb(160,160,161)" stroke-width="1" opacity="1" d="M 35.5 47 L 37.5 50 L 35.5 47 Z " /><path fill="rgb(160,160,161)" stroke="rgb(160,160,161)" stroke-width="1" opacity="1" d="M 17.5 51 L 18.5 52 L 43 52.5 L 17 53 L 17.5 51 Z " /><path fill="rgb(243,243,244)" stroke="rgb(243,243,244)" stroke-width="1" opacity="1" d="M 0.5 0 L 3 1.5 L 2.5 3 L 4 3.5 L 1 5.5 L 3 8.5 L 0 6.5 L 1 4.5 L 0 2.5 L 0.5 0 Z " /><path fill="rgb(243,243,244)" stroke="rgb(243,243,244)" stroke-width="1" opacity="1" d="M 28.5 0 L 29.5 2 L 28.5 0 Z " /><path fill="rgb(243,243,244)" stroke="rgb(243,243,244)" stroke-width="1" opacity="1" d="M 55.5 2 L 54.5 4 L 55.5 2 Z " /><path fill="rgb(243,243,244)" stroke="rgb(243,243,244)" stroke-width="1" opacity="1" d="M 5.5 4 L 6 6.5 L 5 6.5 L 5.5 4 Z " /><path fill="rgb(243,243,244)" stroke="rgb(243,243,244)" stroke-width="1" opacity="1" d="M 42.5 5 L 41.5 7 L 42.5 5 Z " /><path fill="rgb(243,243,244)" stroke="rgb(243,243,244)" stroke-width="1" opacity="1" d="M 44.5 5 L 45 6.5 L 43 7.5 L 44.5 5 Z " /><path fill="rgb(243,243,244)" stroke="rgb(243,243,244)" stroke-width="1" opacity="1" d="M 49.5 5 L 50.5 7 L 49.5 5 Z " /><path fill="rgb(243,243,244)" stroke="rgb(243,243,244)" stroke-width="1" opacity="1" d="M 27.5 6 L 28.5 8 L 27.5 6 Z " /><path fill="rgb(243,243,244)" stroke="rgb(243,243,244)" stroke-width="1" opacity="1" d="M 37.5 6 L 35.5 9 L 37.5 6 Z " /><path fill="rgb(243,243,244)" stroke="rgb(243,243,244)" stroke-width="1" opacity="1" d="M 46.5 7 L 51 10.5 L 50.5 12 Q 52.8 11.3 52 13.5 L 51.5 15 L 53 15.5 L 50.5 17 L 50.5 15 L 49 14.5 L 51 13.5 L 47.5 8 L 46.5 7 Z " /><path fill="rgb(243,243,244)" stroke="rgb(243,243,244)" stroke-width="1" opacity="1" d="M 0.5 9 L 3 10 L 2 12.5 L 3.5 16 L 5 15.5 L 2 17 L 3 23.5 L 2 24.5 L 2 56 L 0 55.5 L 0 24.5 L 0 22.5 L 1 18.5 L 0.5 17 L 2 17 L 2 13 Q -0.7 14.1 0 11.5 L 0.5 9 Z " /><path fill="rgb(243,243,244)" stroke="rgb(243,243,244)" stroke-width="1" opacity="1" d="M 9.5 11 L 12 11.5 Q 9.9 14.8 9.5 11 Z " /><path fill="rgb(243,243,244)" stroke="rgb(243,243,244)" stroke-width="1" opacity="1" d="M 14.5 11 Q 18 13 13.5 15 L 13 12.5 L 14.5 11 Z " /><path fill="rgb(243,243,244)" stroke="rgb(243,243,244)" stroke-width="1" opacity="1" d="M 7.5 16 L 6.5 18 L 7.5 16 Z " /><path fill="rgb(243,243,244)" stroke="rgb(243,243,244)" stroke-width="1" opacity="1" d="M 36.5 45 L 37 47.5 L 36 47.5 L 36.5 45 Z " /><path fill="rgb(243,243,244)" stroke="rgb(243,243,244)" stroke-width="1" opacity="1" d="M 27.5 48 L 28.5 50 L 26 49.5 L 27.5 48 Z " /><path fill="rgb(243,243,244)" stroke="rgb(243,243,244)" stroke-width="1" opacity="1" d="M 43.5 49 L 42.5 51 L 43.5 49 Z " /><path fill="rgb(243,243,244)" stroke="rgb(243,243,244)" stroke-width="1" opacity="1" d="M 46.5 49 L 47.5 51 L 46.5 49 Z " /><path fill="rgb(243,243,244)" stroke="rgb(243,243,244)" stroke-width="1" opacity="1" d="M 35.5 54 L 38 54.5 L 35.5 55 L 35.5 54 Z " /><path fill="rgb(22,22,22)" stroke="rgb(22,22,22)" stroke-width="1" opacity="1" d="M 8.5 3 Q 13.3 2.3 15 4.5 L 13.5 5 L 8.5 4 L 8.5 3 Z " /><path fill="rgb(22,22,22)" stroke="rgb(22,22,22)" stroke-width="1" opacity="1" d="M 18.5 3 L 21 3.5 L 18.5 4 L 18.5 3 Z " /><path fill="rgb(22,22,22)" stroke="rgb(22,22,22)" stroke-width="1" opacity="1" d="M 24.5 3 L 34.5 3 L 36 4.5 Q 36.8 6.8 34.5 6 L 34.5 8 L 33 6.5 L 34.5 4 L 24.5 4 L 23.5 5 L 24.5 3 Z " /><path fill="rgb(22,22,22)" stroke="rgb(22,22,22)" stroke-width="1" opacity="1" d="M 39.5 3 L 43 3.5 L 39.5 4 L 39.5 3 Z " /><path fill="rgb(22,22,22)" stroke="rgb(22,22,22)" stroke-width="1" opacity="1" d="M 46.5 3 Q 51 2 52 4.5 L 50.5 4 Q 45.5 5 46.5 3 Z " /><path fill="rgb(22,22,22)" stroke="rgb(22,22,22)" stroke-width="1" opacity="1" d="M 11.5 5 L 9.5 8 L 11.5 5 Z " /><path fill="rgb(22,22,22)" stroke="rgb(22,22,22)" stroke-width="1" opacity="1" d="M 53.5 6 L 54 11.5 L 52 10.5 L 53.5 6 Z " /><path fill="rgb(22,22,22)" stroke="rgb(22,22,22)" stroke-width="1" opacity="1" d="M 26.5 7 L 27 10.5 L 26 10.5 L 26.5 7 Z " /><path fill="rgb(22,22,22)" stroke="rgb(22,22,22)" stroke-width="1" opacity="1" d="M 49.5 7 L 50.5 9 L 49.5 7 Z " /><path fill="rgb(22,22,22)" stroke="rgb(22,22,22)" stroke-width="1" opacity="1" d="M 33.5 9 L 34 43.5 L 33 43.5 L 33.5 9 Z " /><path fill="rgb(22,22,22)" stroke="rgb(22,22,22)" stroke-width="1" opacity="1" d="M 6.5 11 L 7.5 13 L 6.5 11 Z " /><path fill="rgb(22,22,22)" stroke="rgb(22,22,22)" stroke-width="1" opacity="1" d="M 31.5 14 L 32 43.5 L 31 43.5 L 31.5 14 Z " /><path fill="rgb(22,22,22)" stroke="rgb(22,22,22)" stroke-width="1" opacity="1" d="M 26.5 43 L 27 45.5 L 26 45.5 L 26.5 43 Z " /><path fill="rgb(22,22,22)" stroke="rgb(22,22,22)" stroke-width="1" opacity="1" d="M 25 47 L 27 47.5 L 23.5 50 L 23.5 49 Q 26.1 49.7 25 47 Z " /><path fill="rgb(22,22,22)" stroke="rgb(22,22,22)" stroke-width="1" opacity="1" d="M 35.5 48 L 34.5 50 L 35.5 48 Z " /><path fill="rgb(22,22,22)" stroke="rgb(22,22,22)" stroke-width="1" opacity="1" d="M 38.5 50 L 42 51.5 L 19.5 52 L 19.5 51 L 37.5 51 L 38.5 50 Z " /><path fill="rgb(249,249,249)" stroke="rgb(249,249,249)" stroke-width="1" opacity="1" d="M 37.5 8 L 39 10.5 L 37 9.5 L 37.5 8 Z " /><path fill="rgb(249,249,249)" stroke="rgb(249,249,249)" stroke-width="1" opacity="1" d="M 36.5 13 Q 39.1 12.3 38 15 L 35 14.5 L 36.5 13 Z " /><path fill="rgb(249,249,249)" stroke="rgb(249,249,249)" stroke-width="1" opacity="1" d="M 36.5 16 L 37 39.5 L 36 39.5 L 36.5 16 Z " /><path fill="rgb(249,249,249)" stroke="rgb(249,249,249)" stroke-width="1" opacity="1" d="M 39.5 16 L 40 39.5 L 39 39.5 L 39.5 16 Z " /><path fill="rgb(249,249,249)" stroke="rgb(249,249,249)" stroke-width="1" opacity="1" d="M 55.5 19 L 54.5 21 L 55.5 19 Z " /><path fill="rgb(249,249,249)" stroke="rgb(249,249,249)" stroke-width="1" opacity="1" d="M 4.5 24 L 5 55.5 L 4 55.5 L 4.5 24 Z " /><path fill="rgb(249,249,249)" stroke="rgb(249,249,249)" stroke-width="1" opacity="1" d="M 28.5 44 L 29 46.5 L 28 46.5 L 28.5 44 Z " /><path fill="rgb(249,249,249)" stroke="rgb(249,249,249)" stroke-width="1" opacity="1" d="M 23.5 53 L 22.5 55 L 23.5 53 Z " /></svg>